{
.appVersion = "3151";
.formatVersion = 3;
axes = (
{
name = Dispersion;
tag = DISP;
}
);
date = "2024-03-18 00:19:17 +0000";
familyName = "TMT FT88 RISD";
fontMaster = (
{
axesValues = (
0
);
id = "AEA028FA-8432-430F-9508-2B91B3DB731A";
metricValues = (
{
over = 16;
pos = 800;
},
{
over = 16;
pos = 700;
},
{
over = 16;
pos = 500;
},
{
over = -16;
},
{
over = -16;
pos = -200;
},
{
over = -16;
}
);
name = Regular;
},
{
axesValues = (
100
);
id = "70DB4E10-A1B7-44B2-BFCF-9F046C279AC2";
metricValues = (
{
over = 16;
pos = 800;
},
{
over = 16;
pos = 700;
},
{
over = 16;
pos = 500;
},
{
over = -16;
},
{
over = -16;
pos = -200;
},
{
over = -16;
}
);
name = Dispersed;
}
);
glyphs = (
{
glyphname = A;
lastChange = "2024-04-05 14:54:07 +0000";
layers = (
{
background = {
shapes = (
{
closed = 1;
nodes = (
(-250,0,l),
(-150,0,l),
(-150,200,l),
(650,200,l),
(650,0,l),
(750,0,l),
(750,600,l),
(650,600,l),
(650,300,l),
(-150,300,l),
(-150,600,l),
(-250,600,l)
);
},
{
closed = 1;
nodes = (
(-150,600,l),
(650,600,l),
(650,700,l),
(-150,700,l)
);
}
);
};
layerId = "AEA028FA-8432-430F-9508-2B91B3DB731A";
shapes = (
{
alignment = -1;
ref = pixel;
scale = (0.5,1);
},
{
alignment = -1;
pos = (0,100);
ref = pixel;
scale = (0.5,1);
},
{
alignment = -1;
pos = (0,200);
ref = pixel;
scale = (0.5,1);
},
{
alignment = -1;
pos = (0,300);
ref = pixel;
scale = (0.5,1);
},
{
alignment = -1;
pos = (0,400);
ref = pixel;
scale = (0.5,1);
},
{
alignment = -1;
pos = (0,500);
ref = pixel;
scale = (0.5,1);
},
{
alignment = -1;
pos = (50,600);
ref = pixel;
scale = (0.5,1);
},
{
alignment = -1;
pos = (100,600);
ref = pixel;
scale = (0.5,1);
},
{
alignment = -1;
pos = (150,600);
ref = pixel;
scale = (0.5,1);
},
{
alignment = -1;
pos = (200,600);
ref = pixel;
scale = (0.5,1);
},
{
alignment = -1;
pos = (250,600);
ref = pixel;
scale = (0.5,1);
},
{
alignment = -1;
pos = (300,600);
ref = pixel;
scale = (0.5,1);
},
{
alignment = -1;
pos = (350,600);
ref = pixel;
scale = (0.5,1);
},
{
alignment = -1;
pos = (400,600);
ref = pixel;
scale = (0.5,1);
},
{
alignment = -1;
pos = (50,200);
ref = pixel;
scale = (0.5,1);
},
{
alignment = -1;
pos = (100,200);
ref = pixel;
scale = (0.5,1);
},
{
alignment = -1;
pos = (150,200);
ref = pixel;
scale = (0.5,1);
},
{
alignment = -1;
pos = (200,200);
ref = pixel;
scale = (0.5,1);
},
{
alignment = -1;
pos = (250,200);
ref = pixel;
scale = (0.5,1);
},
{
alignment = -1;
pos = (300,200);
ref = pixel;
scale = (0.5,1);
},
{
alignment = -1;
pos = (350,200);
ref = pixel;
scale = (0.5,1);
},
{
alignment = -1;
pos = (400,200);
ref = pixel;
scale = (0.5,1);
},
{
alignment = -1;
pos = (450,500);
ref = pixel;
scale = (0.5,1);
},
{
alignment = -1;
pos = (450,400);
ref = pixel;
scale = (0.5,1);
},
{
alignment = -1;
pos = (450,300);
ref = pixel;
scale = (0.5,1);
},
{
alignment = -1;
pos = (450,200);
ref = pixel;
scale = (0.5,1);
},
{
alignment = -1;
pos = (450,100);
ref = pixel;
scale = (0.5,1);
},
{
alignment = -1;
pos = (450,0);
ref = pixel;
scale = (0.5,1);
}
);
width = 500;
},
{
background = {
shapes = (
{
closed = 1;
nodes = (
(-250,0,l),
(-150,0,l),
(-150,200,l),
(650,200,l),
(650,0,l),
(750,0,l),
(750,600,l),
(650,600,l),
(650,300,l),
(-150,300,l),
(-150,600,l),
(-250,600,l)
);
},
{
closed = 1;
nodes = (
(-150,600,l),
(650,600,l),
(650,700,l),
(-150,700,l)
);
}
);
};
layerId = "70DB4E10-A1B7-44B2-BFCF-9F046C279AC2";
shapes = (
{
alignment = -1;
ref = pixel;
scale = (0.5,1);
},
{
alignment = -1;
pos = (0,100);
ref = pixel;
scale = (0.5,1);
},
{
alignment = -1;
pos = (0,200);
ref = pixel;
scale = (0.5,1);
},
{
alignment = -1;
pos = (0,300);
ref = pixel;
scale = (0.5,1);
},
{
alignment = -1;
pos = (0,400);
ref = pixel;
scale = (0.5,1);
},
{
alignment = -1;
pos = (0,500);
ref = pixel;
scale = (0.5,1);
},
{
alignment = -1;
pos = (50,500);
ref = pixel;
scale = (0.5,1);
},
{
alignment = -1;
pos = (100,600);
ref = pixel;
scale = (0.5,1);
},
{
alignment = -1;
pos = (150,500);
ref = pixel;
scale = (0.5,1);
},
{
alignment = -1;
pos = (200,600);
ref = pixel;
scale = (0.5,1);
},
{
alignment = -1;
pos = (250,600);
ref = pixel;
scale = (0.5,1);
},
{
alignment = -1;
pos = (300,800);
ref = pixel;
scale = (0.5,1);
},
{
alignment = -1;
pos = (350,600);
ref = pixel;
scale = (0.5,1);
},
{
alignment = -1;
pos = (400,600);
ref = pixel;
scale = (0.5,1);
},
{
alignment = -1;
pos = (50,200);
ref = pixel;
scale = (0.5,1);
},
{
alignment = -1;
pos = (100,100);
ref = pixel;
scale = (0.5,1);
},
{
alignment = -1;
pos = (150,200);
ref = pixel;
scale = (0.5,1);
},
{
alignment = -1;
pos = (200,-100);
ref = pixel;
scale = (0.5,1);
},
{
alignment = -1;
pos = (250,200);
ref = pixel;
scale = (0.5,1);
},
{
alignment = -1;
pos = (300,0);
ref = pixel;
scale = (0.5,1);
},
{
alignment = -1;
pos = (350,400);
ref = pixel;
scale = (0.5,1);
},
{
alignment = -1;
pos = (400,200);
ref = pixel;
scale = (0.5,1);
},
{
alignment = -1;
pos = (450,500);
ref = pixel;
scale = (0.5,1);
},
{
alignment = -1;
pos = (450,400);
ref = pixel;
scale = (0.5,1);
},
{
alignment = -1;
pos = (450,300);
ref = pixel;
scale = (0.5,1);
},
{
alignment = -1;
pos = (450,200);
ref = pixel;
scale = (0.5,1);
},
{
alignment = -1;
pos = (450,100);
ref = pixel;
scale = (0.5,1);
},
{
alignment = -1;
pos = (450,0);
ref = pixel;
scale = (0.5,1);
}
);
width = 500;
}
);
unicode = (65,97);
},
{
glyphname = B;
lastChange = "2024-04-05 14:54:07 +0000";
layers = (
{
background = {
shapes = (
{
closed = 1;
nodes = (
(-250,0,l),
(750,0,l),
(750,100,l),
(-150,100,l),
(-150,300,l),
(750,300,l),
(750,400,l),
(-150,400,l),
(-150,600,l),
(750,600,l),
(750,700,l),
(-250,700,l)
);
},
{
closed = 1;
nodes = (
(750,100,l),
(850,100,l),
(850,300,l),
(750,300,l)
);
},
{
closed = 1;
nodes = (
(750,400,l),
(850,400,l),
(850,600,l),
(750,600,l)
);
}
);
};
hints = (
{
horizontal = 1;
place = (0, 100);
place = (0, 100);
type = Stem;
},
{
horizontal = 1;
place = (300, 100);
place = (300, 100);
type = Stem;
},
{
horizontal = 1;
place = (600, 100);
place = (600, 100);
type = Stem;
},
{
place = (100, 100);
place = (100, 100);
type = Stem;
},
{
place = (1100, 100);
place = (1100, 100);
type = Stem;
},
{
horizontal = 1;
place = (100, 200);
place = (100, 200);
type = Stem;
},
{
horizontal = 1;
place = (400, 200);
place = (400, 200);
type = Stem;
}
);
layerId = "AEA028FA-8432-430F-9508-2B91B3DB731A";
shapes = (
{
alignment = -1;
pos = (0,600);
ref = pixel;
scale = (0.5,1);
},
{
alignment = -1;
pos = (0,500);
ref = pixel;
scale = (0.5,1);
},
{
alignment = -1;
pos = (0,400);
ref = pixel;
scale = (0.5,1);
},
{
alignment = -1;
pos = (0,300);
ref = pixel;
scale = (0.5,1);
},
{
alignment = -1;
pos = (0,200);
ref = pixel;
scale = (0.5,1);
},
{
alignment = -1;
pos = (0,100);
ref = pixel;
scale = (0.5,1);
},
{
alignment = -1;
ref = pixel;
scale = (0.5,1);
},
{
alignment = -1;
pos = (50,0);
ref = pixel;
scale = (0.5,1);
},
{
alignment = -1;
pos = (100,0);
ref = pixel;
scale = (0.5,1);
},
{
alignment = -1;
pos = (150,0);
ref = pixel;
scale = (0.5,1);
},
{
alignment = -1;
pos = (200,0);
ref = pixel;
scale = (0.5,1);
},
{
alignment = -1;
pos = (250,0);
ref = pixel;
scale = (0.5,1);
},
{
alignment = -1;
pos = (300,0);
ref = pixel;
scale = (0.5,1);
},
{
alignment = -1;
pos = (350,0);
ref = pixel;
scale = (0.5,1);
},
{
alignment = -1;
pos = (400,0);
ref = pixel;
scale = (0.5,1);
},
{
alignment = -1;
pos = (400,300);
ref = pixel;
scale = (0.5,1);
},
{
alignment = -1;
pos = (350,300);
ref = pixel;
scale = (0.5,1);
},
{
alignment = -1;
pos = (300,300);
ref = pixel;
scale = (0.5,1);
},
{
alignment = -1;
pos = (250,300);
ref = pixel;
scale = (0.5,1);
},
{
alignment = -1;
pos = (200,300);
ref = pixel;
scale = (0.5,1);
},
{
alignment = -1;
pos = (150,300);
ref = pixel;
scale = (0.5,1);
},
{
alignment = -1;
pos = (100,300);
ref = pixel;
scale = (0.5,1);
},
{
alignment = -1;
pos = (50,300);
ref = pixel;
scale = (0.5,1);
},
{
alignment = -1;
pos = (50,600);
ref = pixel;
scale = (0.5,1);
},
{
alignment = -1;
pos = (100,600);
ref = pixel;
scale = (0.5,1);
},
{
alignment = -1;
pos = (150,600);
ref = pixel;
scale = (0.5,1);
},
{
alignment = -1;
pos = (200,600);
ref = pixel;
scale = (0.5,1);
},
{
alignment = -1;
pos = (250,600);
ref = pixel;
scale = (0.5,1);
},
{
alignment = -1;
pos = (300,600);
ref = pixel;
scale = (0.5,1);
},
{
alignment = -1;
pos = (350,600);
ref = pixel;
scale = (0.5,1);
},
{
alignment = -1;
pos = (400,600);
ref = pixel;
scale = (0.5,1);
},
{
alignment = -1;
pos = (450,200);
ref = pixel;
scale = (0.5,1);
},
{
alignment = -1;
pos = (450,100);
ref = pixel;
scale = (0.5,1);
},
{
alignment = -1;
pos = (450,500);
ref = pixel;
scale = (0.5,1);
},
{
alignment = -1;
pos = (450,400);
ref = pixel;
scale = (0.5,1);
}
);
width = 500;
},
{
background = {
shapes = (
{
closed = 1;
nodes = (
(-250,0,l),
(750,0,l),
(750,100,l),
(-150,100,l),
(-150,300,l),
(750,300,l),
(750,400,l),
(-150,400,l),
(-150,600,l),
(750,600,l),
(750,700,l),
(-250,700,l)
);
},
{
closed = 1;
nodes = (
(750,100,l),
(850,100,l),
(850,300,l),
(750,300,l)
);
},
{
closed = 1;
nodes = (
(750,400,l),
(850,400,l),
(850,600,l),
(750,600,l)
);
}
);
};
hints = (
{
horizontal = 1;
place = (0, 100);
place = (0, 100);
type = Stem;
},
{
horizontal = 1;
place = (300, 100);
place = (300, 100);
type = Stem;
},
{
horizontal = 1;
place = (600, 100);
place = (600, 100);
type = Stem;
},
{
place = (100, 100);
place = (100, 100);
type = Stem;
},
{
place = (1100, 100);
place = (1100, 100);
type = Stem;
},
{
horizontal = 1;
place = (100, 200);
place = (100, 200);
type = Stem;
},
{
horizontal = 1;
place = (400, 200);
place = (400, 200);
type = Stem;
}
);
layerId = "70DB4E10-A1B7-44B2-BFCF-9F046C279AC2";
shapes = (
{
alignment = -1;
pos = (0,600);
ref = pixel;
scale = (0.5,1);
},
{
alignment = -1;
pos = (0,500);
ref = pixel;
scale = (0.5,1);
},
{
alignment = -1;
pos = (0,400);
ref = pixel;
scale = (0.5,1);
},
{
alignment = -1;
pos = (0,300);
ref = pixel;
scale = (0.5,1);
},
{
alignment = -1;
pos = (0,200);
ref = pixel;
scale = (0.5,1);
},
{
alignment = -1;
pos = (0,100);
ref = pixel;
scale = (0.5,1);
},
{
alignment = -1;
ref = pixel;
scale = (0.5,1);
},
{
alignment = -1;
pos = (50,-200);
ref = pixel;
scale = (0.5,1);
},
{
alignment = -1;
pos = (100,0);
ref = pixel;
scale = (0.5,1);
},
{
alignment = -1;
pos = (150,-200);
ref = pixel;
scale = (0.5,1);
},
{
alignment = -1;
pos = (200,0);
ref = pixel;
scale = (0.5,1);
},
{
alignment = -1;
pos = (250,100);
ref = pixel;
scale = (0.5,1);
},
{
alignment = -1;
pos = (300,-100);
ref = pixel;
scale = (0.5,1);
},
{
alignment = -1;
pos = (350,0);
ref = pixel;
scale = (0.5,1);
},
{
alignment = -1;
pos = (400,0);
ref = pixel;
scale = (0.5,1);
},
{
alignment = -1;
pos = (400,300);
ref = pixel;
scale = (0.5,1);
},
{
alignment = -1;
pos = (350,300);
ref = pixel;
scale = (0.5,1);
},
{
alignment = -1;
pos = (300,300);
ref = pixel;
scale = (0.5,1);
},
{
alignment = -1;
pos = (250,400);
ref = pixel;
scale = (0.5,1);
},
{
alignment = -1;
pos = (200,300);
ref = pixel;
scale = (0.5,1);
},
{
alignment = -1;
pos = (150,300);
ref = pixel;
scale = (0.5,1);
},
{
alignment = -1;
pos = (100,200);
ref = pixel;
scale = (0.5,1);
},
{
alignment = -1;
pos = (50,300);
ref = pixel;
scale = (0.5,1);
},
{
alignment = -1;
pos = (50,700);
ref = pixel;
scale = (0.5,1);
},
{
alignment = -1;
pos = (100,600);
ref = pixel;
scale = (0.5,1);
},
{
alignment = -1;
pos = (150,800);
ref = pixel;
scale = (0.5,1);
},
{
alignment = -1;
pos = (200,500);
ref = pixel;
scale = (0.5,1);
},
{
alignment = -1;
pos = (250,700);
ref = pixel;
scale = (0.5,1);
},
{
alignment = -1;
pos = (300,600);
ref = pixel;
scale = (0.5,1);
},
{
alignment = -1;
pos = (350,400);
ref = pixel;
scale = (0.5,1);
},
{
alignment = -1;
pos = (400,900);
ref = pixel;
scale = (0.5,1);
},
{
alignment = -1;
pos = (450,200);
ref = pixel;
scale = (0.5,1);
},
{
alignment = -1;
pos = (450,-100);
ref = pixel;
scale = (0.5,1);
},
{
alignment = -1;
pos = (450,600);
ref = pixel;
scale = (0.5,1);
},
{
alignment = -1;
pos = (450,400);
ref = pixel;
scale = (0.5,1);
}
);
width = 500;
}
);
note = B;
unicode = (66,98);
},
{
glyphname = C;
lastChange = "2024-04-05 14:54:07 +0000";
layers = (
{
background = {
shapes = (
{
closed = 1;
nodes = (
(-250,200,l),
(-150,200,l),
(-150,500,l),
(-250,500,l)
);
},
{
closed = 1;
nodes = (
(-150,100,l),
(-50,100,l),
(-50,200,l),
(-150,200,l)
);
},
{
closed = 1;
nodes = (
(-150,500,l),
(-50,500,l),
(-50,600,l),
(-150,600,l)
);
},
{
closed = 1;
nodes = (
(-50,0,l),
(750,0,l),
(750,100,l),
(-50,100,l)
);
},
{
closed = 1;
nodes = (
(-50,600,l),
(750,600,l),
(750,700,l),
(-50,700,l)
);
}
);
};
hints = (
{
horizontal = 1;
place = (0, 100);
place = (0, 100);
type = Stem;
},
{
horizontal = 1;
place = (200, 300);
place = (200, 300);
type = Stem;
},
{
horizontal = 1;
place = (600, 100);
place = (600, 100);
type = Stem;
},
{
place = (200, 100);
place = (200, 100);
type = Stem;
},
{
horizontal = 1;
place = (100, 100);
place = (100, 100);
type = Stem;
},
{
horizontal = 1;
place = (500, 100);
place = (500, 100);
type = Stem;
},
{
place = (300, 100);
place = (300, 100);
type = Stem;
}
);
layerId = "AEA028FA-8432-430F-9508-2B91B3DB731A";
shapes = (
{
alignment = -1;
pos = (0,400);
ref = pixel;
scale = (0.5,1);
},
{
alignment = -1;
pos = (0,300);
ref = pixel;
scale = (0.5,1);
},
{
alignment = -1;
pos = (0,200);
ref = pixel;
scale = (0.5,1);
},
{
alignment = -1;
pos = (50,100);
ref = pixel;
scale = (0.5,1);
},
{
alignment = -1;
pos = (50,500);
ref = pixel;
scale = (0.5,1);
},
{
alignment = -1;
pos = (100,600);
ref = pixel;
scale = (0.5,1);
},
{
alignment = -1;
pos = (150,600);
ref = pixel;
scale = (0.5,1);
},
{
alignment = -1;
pos = (200,600);
ref = pixel;
scale = (0.5,1);
},
{
alignment = -1;
pos = (250,600);
ref = pixel;
scale = (0.5,1);
},
{
alignment = -1;
pos = (300,600);
ref = pixel;
scale = (0.5,1);
},
{
alignment = -1;
pos = (350,600);
ref = pixel;
scale = (0.5,1);
},
{
alignment = -1;
pos = (400,600);
ref = pixel;
scale = (0.5,1);
},
{
alignment = -1;
pos = (450,600);
ref = pixel;
scale = (0.5,1);
},
{
alignment = -1;
pos = (100,0);
ref = pixel;
scale = (0.5,1);
},
{
alignment = -1;
pos = (150,0);
ref = pixel;
scale = (0.5,1);
},
{
alignment = -1;
pos = (200,0);
ref = pixel;
scale = (0.5,1);
},
{
alignment = -1;
pos = (250,0);
ref = pixel;
scale = (0.5,1);
},
{
alignment = -1;
pos = (300,0);
ref = pixel;
scale = (0.5,1);
},
{
alignment = -1;
pos = (350,0);
ref = pixel;
scale = (0.5,1);
},
{
alignment = -1;
pos = (400,0);
ref = pixel;
scale = (0.5,1);
},
{
alignment = -1;
pos = (450,0);
ref = pixel;
scale = (0.5,1);
}
);
width = 500;
},
{
background = {
shapes = (
{
closed = 1;
nodes = (
(-250,200,l),
(-150,200,l),
(-150,500,l),
(-250,500,l)
);
},
{
closed = 1;
nodes = (
(-150,100,l),
(-50,100,l),
(-50,200,l),
(-150,200,l)
);
},
{
closed = 1;
nodes = (
(-150,500,l),
(-50,500,l),
(-50,600,l),
(-150,600,l)
);
},
{
closed = 1;
nodes = (
(-50,0,l),
(750,0,l),
(750,100,l),
(-50,100,l)
);
},
{
closed = 1;
nodes = (
(-50,600,l),
(750,600,l),
(750,700,l),
(-50,700,l)
);
}
);
};
hints = (
{
horizontal = 1;
place = (0, 100);
place = (0, 100);
type = Stem;
},
{
horizontal = 1;
place = (200, 300);
place = (200, 300);
type = Stem;
},
{
horizontal = 1;
place = (600, 100);
place = (600, 100);
type = Stem;
},
{
place = (200, 100);
place = (200, 100);
type = Stem;
},
{
horizontal = 1;
place = (100, 100);
place = (100, 100);
type = Stem;
},
{
horizontal = 1;
place = (500, 100);
place = (500, 100);
type = Stem;
},
{
place = (300, 100);
place = (300, 100);
type = Stem;
}
);
layerId = "70DB4E10-A1B7-44B2-BFCF-9F046C279AC2";
shapes = (
{
alignment = -1;
pos = (0,400);
ref = pixel;
scale = (0.5,1);
},
{
alignment = -1;
pos = (0,300);
ref = pixel;
scale = (0.5,1);
},
{
alignment = -1;
pos = (0,200);
ref = pixel;
scale = (0.5,1);
},
{
alignment = -1;
pos = (50,-100);
ref = pixel;
scale = (0.5,1);
},
{
alignment = -1;
pos = (50,500);
ref = pixel;
scale = (0.5,1);
},
{
alignment = -1;
pos = (100,600);
ref = pixel;
scale = (0.5,1);
},
{
alignment = -1;
pos = (150,600);
ref = pixel;
scale = (0.5,1);
},
{
alignment = -1;
pos = (200,800);
ref = pixel;
scale = (0.5,1);
},
{
alignment = -1;
pos = (250,400);
ref = pixel;
scale = (0.5,1);
},
{
alignment = -1;
pos = (300,600);
ref = pixel;
scale = (0.5,1);
},
{
alignment = -1;
pos = (350,500);
ref = pixel;
scale = (0.5,1);
},
{
alignment = -1;
pos = (400,600);
ref = pixel;
scale = (0.5,1);
},
{
alignment = -1;
pos = (450,700);
ref = pixel;
scale = (0.5,1);
},
{
alignment = -1;
pos = (100,100);
ref = pixel;
scale = (0.5,1);
},
{
alignment = -1;
pos = (150,-300);
ref = pixel;
scale = (0.5,1);
},
{
alignment = -1;
pos = (200,0);
ref = pixel;
scale = (0.5,1);
},
{
alignment = -1;
pos = (250,200);
ref = pixel;
scale = (0.5,1);
},
{
alignment = -1;
pos = (300,0);
ref = pixel;
scale = (0.5,1);
},
{
alignment = -1;
pos = (350,-200);
ref = pixel;
scale = (0.5,1);
},
{
alignment = -1;
pos = (400,0);
ref = pixel;
scale = (0.5,1);
},
{
alignment = -1;
pos = (450,-100);
ref = pixel;
scale = (0.5,1);
}
);
width = 500;
}
);
note = C;
unicode = (67,99);
},
{
glyphname = D;
lastChange = "2024-04-05 14:54:07 +0000";
layers = (
{
background = {
shapes = (
{
closed = 1;
nodes = (
(-250,700,l),
(-250,0,l),
(650,0,l),
(650,100,l),
(-150,100,l),
(-150,600,l),
(650,600,l),
(650,700,l)
);
},
{
closed = 1;
nodes = (
(650,100,l),
(750,100,l),
(750,600,l),
(650,600,l)
);
}
);
};
hints = (
{
horizontal = 1;
place = (0, 100);
place = (0, 100);
type = Stem;
},
{
horizontal = 1;
place = (600, 100);
place = (600, 100);
type = Stem;
},
{
place = (200, 100);
place = (200, 100);
type = Stem;
},
{
place = (1100, 100);
place = (1100, 100);
type = Stem;
}
);
layerId = "AEA028FA-8432-430F-9508-2B91B3DB731A";
shapes = (
{
alignment = -1;
pos = (0,600);
ref = pixel;
scale = (0.5,1);
},
{
alignment = -1;
pos = (0,500);
ref = pixel;
scale = (0.5,1);
},
{
alignment = -1;
pos = (0,400);
ref = pixel;
scale = (0.5,1);
},
{
alignment = -1;
pos = (0,300);
ref = pixel;
scale = (0.5,1);
},
{
alignment = -1;
pos = (0,200);
ref = pixel;
scale = (0.5,1);
},
{
alignment = -1;
pos = (0,100);
ref = pixel;
scale = (0.5,1);
},
{
alignment = -1;
ref = pixel;
scale = (0.5,1);
},
{
alignment = -1;
pos = (50,0);
ref = pixel;
scale = (0.5,1);
},
{
alignment = -1;
pos = (100,0);
ref = pixel;
scale = (0.5,1);
},
{
alignment = -1;
pos = (150,0);
ref = pixel;
scale = (0.5,1);
},
{
alignment = -1;
pos = (200,0);
ref = pixel;
scale = (0.5,1);
},
{
alignment = -1;
pos = (250,0);
ref = pixel;
scale = (0.5,1);
},
{
alignment = -1;
pos = (300,0);
ref = pixel;
scale = (0.5,1);
},
{
alignment = -1;
pos = (350,0);
ref = pixel;
scale = (0.5,1);
},
{
alignment = -1;
pos = (400,0);
ref = pixel;
scale = (0.5,1);
},
{
alignment = -1;
pos = (450,100);
ref = pixel;
scale = (0.5,1);
},
{
alignment = -1;
pos = (450,200);
ref = pixel;
scale = (0.5,1);
},
{
alignment = -1;
pos = (450,300);
ref = pixel;
scale = (0.5,1);
},
{
alignment = -1;
pos = (450,400);
ref = pixel;
scale = (0.5,1);
},
{
alignment = -1;
pos = (450,500);
ref = pixel;
scale = (0.5,1);
},
{
alignment = -1;
pos = (400,600);
ref = pixel;
scale = (0.5,1);
},
{
alignment = -1;
pos = (350,600);
ref = pixel;
scale = (0.5,1);
},
{
alignment = -1;
pos = (300,600);
ref = pixel;
scale = (0.5,1);
},
{
alignment = -1;
pos = (250,600);
ref = pixel;
scale = (0.5,1);
},
{
alignment = -1;
pos = (200,600);
ref = pixel;
scale = (0.5,1);
},
{
alignment = -1;
pos = (150,600);
ref = pixel;
scale = (0.5,1);
},
{
alignment = -1;
pos = (100,600);
ref = pixel;
scale = (0.5,1);
},
{
alignment = -1;
pos = (50,600);
ref = pixel;
scale = (0.5,1);
}
);
width = 500;
},
{
background = {
shapes = (
{
closed = 1;
nodes = (
(-250,700,l),
(-250,0,l),
(650,0,l),
(650,100,l),
(-150,100,l),
(-150,600,l),
(650,600,l),
(650,700,l)
);
},
{
closed = 1;
nodes = (
(650,100,l),
(750,100,l),
(750,600,l),
(650,600,l)
);
}
);
};
hints = (
{
horizontal = 1;
place = (0, 100);
place = (0, 100);
type = Stem;
},
{
horizontal = 1;
place = (600, 100);
place = (600, 100);
type = Stem;
},
{
place = (200, 100);
place = (200, 100);
type = Stem;
},
{
place = (1100, 100);
place = (1100, 100);
type = Stem;
}
);
layerId = "70DB4E10-A1B7-44B2-BFCF-9F046C279AC2";
shapes = (
{
alignment = -1;
pos = (0,600);
ref = pixel;
scale = (0.5,1);
},
{
alignment = -1;
pos = (0,500);
ref = pixel;
scale = (0.5,1);
},
{
alignment = -1;
pos = (0,400);
ref = pixel;
scale = (0.5,1);
},
{
alignment = -1;
pos = (0,300);
ref = pixel;
scale = (0.5,1);
},
{
alignment = -1;
pos = (0,200);
ref = pixel;
scale = (0.5,1);
},
{
alignment = -1;
pos = (0,100);
ref = pixel;
scale = (0.5,1);
},
{
alignment = -1;
ref = pixel;
scale = (0.5,1);
},
{
alignment = -1;
pos = (50,0);
ref = pixel;
scale = (0.5,1);
},
{
alignment = -1;
pos = (100,-200);
ref = pixel;
scale = (0.5,1);
},
{
alignment = -1;
pos = (150,0);
ref = pixel;
scale = (0.5,1);
},
{
alignment = -1;
pos = (200,200);
ref = pixel;
scale = (0.5,1);
},
{
alignment = -1;
pos = (250,-100);
ref = pixel;
scale = (0.5,1);
},
{
alignment = -1;
pos = (300,300);
ref = pixel;
scale = (0.5,1);
},
{
alignment = -1;
pos = (350,0);
ref = pixel;
scale = (0.5,1);
},
{
alignment = -1;
pos = (400,0);
ref = pixel;
scale = (0.5,1);
},
{
alignment = -1;
pos = (450,100);
ref = pixel;
scale = (0.5,1);
},
{
alignment = -1;
pos = (450,200);
ref = pixel;
scale = (0.5,1);
},
{
alignment = -1;
pos = (450,300);
ref = pixel;
scale = (0.5,1);
},
{
alignment = -1;
pos = (450,400);
ref = pixel;
scale = (0.5,1);
},
{
alignment = -1;
pos = (450,500);
ref = pixel;
scale = (0.5,1);
},
{
alignment = -1;
pos = (400,900);
ref = pixel;
scale = (0.5,1);
},
{
alignment = -1;
pos = (350,600);
ref = pixel;
scale = (0.5,1);
},
{
alignment = -1;
pos = (300,700);
ref = pixel;
scale = (0.5,1);
},
{
alignment = -1;
pos = (250,600);
ref = pixel;
scale = (0.5,1);
},
{
alignment = -1;
pos = (200,600);
ref = pixel;
scale = (0.5,1);
},
{
alignment = -1;
pos = (150,800);
ref = pixel;
scale = (0.5,1);
},
{
alignment = -1;
pos = (100,600);
ref = pixel;
scale = (0.5,1);
},
{
alignment = -1;
pos = (50,600);
ref = pixel;
scale = (0.5,1);
}
);
width = 500;
}
);
note = D;
unicode = (68,100);
},
{
glyphname = E;
lastChange = "2024-04-05 14:54:07 +0000";
layers = (
{
background = {
shapes = (
{
closed = 1;
nodes = (
(-250,700,l),
(-250,0,l),
(650,0,l),
(650,100,l),
(-150,100,l),
(-150,300,l),
(350,300,l),
(350,400,l),
(-150,400,l),
(-150,600,l),
(650,600,l),
(650,700,l)
);
}
);
};
hints = (
{
horizontal = 1;
place = (0, 100);
place = (0, 100);
type = Stem;
},
{
horizontal = 1;
place = (300, 100);
place = (300, 100);
type = Stem;
},
{
horizontal = 1;
place = (600, 100);
place = (600, 100);
type = Stem;
},
{
place = (200, 100);
place = (200, 100);
type = Stem;
}
);
layerId = "AEA028FA-8432-430F-9508-2B91B3DB731A";
shapes = (
{
alignment = -1;
pos = (0,600);
ref = pixel;
scale = (0.5,1);
},
{
alignment = -1;
pos = (0,500);
ref = pixel;
scale = (0.5,1);
},
{
alignment = -1;
pos = (0,400);
ref = pixel;
scale = (0.5,1);
},
{
alignment = -1;
pos = (0,300);
ref = pixel;
scale = (0.5,1);
},
{
alignment = -1;
pos = (0,200);
ref = pixel;
scale = (0.5,1);
},
{
alignment = -1;
pos = (0,100);
ref = pixel;
scale = (0.5,1);
},
{
alignment = -1;
ref = pixel;
scale = (0.5,1);
},
{
alignment = -1;
pos = (50,0);
ref = pixel;
scale = (0.5,1);
},
{
alignment = -1;
pos = (100,0);
ref = pixel;
scale = (0.5,1);
},
{
alignment = -1;
pos = (150,0);
ref = pixel;
scale = (0.5,1);
},
{
alignment = -1;
pos = (200,0);
ref = pixel;
scale = (0.5,1);
},
{
alignment = -1;
pos = (250,0);
ref = pixel;
scale = (0.5,1);
},
{
alignment = -1;
pos = (300,0);
ref = pixel;
scale = (0.5,1);
},
{
alignment = -1;
pos = (350,0);
ref = pixel;
scale = (0.5,1);
},
{
alignment = -1;
pos = (400,0);
ref = pixel;
scale = (0.5,1);
},
{
alignment = -1;
pos = (250,300);
ref = pixel;
scale = (0.5,1);
},
{
alignment = -1;
pos = (200,300);
ref = pixel;
scale = (0.5,1);
},
{
alignment = -1;
pos = (150,300);
ref = pixel;
scale = (0.5,1);
},
{
alignment = -1;
pos = (100,300);
ref = pixel;
scale = (0.5,1);
},
{
alignment = -1;
pos = (50,300);
ref = pixel;
scale = (0.5,1);
},
{
alignment = -1;
pos = (50,600);
ref = pixel;
scale = (0.5,1);
},
{
alignment = -1;
pos = (100,600);
ref = pixel;
scale = (0.5,1);
},
{
alignment = -1;
pos = (150,600);
ref = pixel;
scale = (0.5,1);
},
{
alignment = -1;
pos = (200,600);
ref = pixel;
scale = (0.5,1);
},
{
alignment = -1;
pos = (250,600);
ref = pixel;
scale = (0.5,1);
},
{
alignment = -1;
pos = (300,600);
ref = pixel;
scale = (0.5,1);
},
{
alignment = -1;
pos = (350,600);
ref = pixel;
scale = (0.5,1);
},
{
alignment = -1;
pos = (400,600);
ref = pixel;
scale = (0.5,1);
},
{
alignment = -1;
pos = (450,0);
ref = pixel;
scale = (0.5,1);
},
{
alignment = -1;
pos = (450,600);
ref = pixel;
scale = (0.5,1);
},
{
alignment = -1;
pos = (300,300);
ref = pixel;
scale = (0.5,1);
}
);
width = 500;
},
{
background = {
shapes = (
{
closed = 1;
nodes = (
(-250,700,l),
(-250,0,l),
(650,0,l),
(650,100,l),
(-150,100,l),
(-150,300,l),
(350,300,l),
(350,400,l),
(-150,400,l),
(-150,600,l),
(650,600,l),
(650,700,l)
);
}
);
};
hints = (
{
horizontal = 1;
place = (0, 100);
place = (0, 100);
type = Stem;
},
{
horizontal = 1;
place = (300, 100);
place = (300, 100);
type = Stem;
},
{
horizontal = 1;
place = (600, 100);
place = (600, 100);
type = Stem;
},
{
place = (200, 100);
place = (200, 100);
type = Stem;
}
);
layerId = "70DB4E10-A1B7-44B2-BFCF-9F046C279AC2";
shapes = (
{
alignment = -1;
pos = (0,800);
ref = pixel;
scale = (0.5,1);
},
{
alignment = -1;
pos = (0,500);
ref = pixel;
scale = (0.5,1);
},
{
alignment = -1;
pos = (0,400);
ref = pixel;
scale = (0.5,1);
},
{
alignment = -1;
pos = (0,300);
ref = pixel;
scale = (0.5,1);
},
{
alignment = -1;
pos = (0,200);
ref = pixel;
scale = (0.5,1);
},
{
alignment = -1;
pos = (0,100);
ref = pixel;
scale = (0.5,1);
},
{
alignment = -1;
ref = pixel;
scale = (0.5,1);
},
{
alignment = -1;
pos = (50,-200);
ref = pixel;
scale = (0.5,1);
},
{
alignment = -1;
pos = (100,0);
ref = pixel;
scale = (0.5,1);
},
{
alignment = -1;
pos = (150,-100);
ref = pixel;
scale = (0.5,1);
},
{
alignment = -1;
pos = (200,0);
ref = pixel;
scale = (0.5,1);
},
{
alignment = -1;
pos = (250,-200);
ref = pixel;
scale = (0.5,1);
},
{
alignment = -1;
pos = (300,-300);
ref = pixel;
scale = (0.5,1);
},
{
alignment = -1;
pos = (350,0);
ref = pixel;
scale = (0.5,1);
},
{
alignment = -1;
pos = (400,0);
ref = pixel;
scale = (0.5,1);
},
{
alignment = -1;
pos = (250,300);
ref = pixel;
scale = (0.5,1);
},
{
alignment = -1;
pos = (200,300);
ref = pixel;
scale = (0.5,1);
},
{
alignment = -1;
pos = (150,400);
ref = pixel;
scale = (0.5,1);
},
{
alignment = -1;
pos = (100,300);
ref = pixel;
scale = (0.5,1);
},
{
alignment = -1;
pos = (50,300);
ref = pixel;
scale = (0.5,1);
},
{
alignment = -1;
pos = (50,600);
ref = pixel;
scale = (0.5,1);
},
{
alignment = -1;
pos = (100,700);
ref = pixel;
scale = (0.5,1);
},
{
alignment = -1;
pos = (150,600);
ref = pixel;
scale = (0.5,1);
},
{
alignment = -1;
pos = (200,600);
ref = pixel;
scale = (0.5,1);
},
{
alignment = -1;
pos = (250,500);
ref = pixel;
scale = (0.5,1);
},
{
alignment = -1;
pos = (300,600);
ref = pixel;
scale = (0.5,1);
},
{
alignment = -1;
pos = (350,600);
ref = pixel;
scale = (0.5,1);
},
{
alignment = -1;
pos = (400,900);
ref = pixel;
scale = (0.5,1);
},
{
alignment = -1;
pos = (450,-100);
ref = pixel;
scale = (0.5,1);
},
{
alignment = -1;
pos = (450,600);
ref = pixel;
scale = (0.5,1);
},
{
alignment = -1;
pos = (300,200);
ref = pixel;
scale = (0.5,1);
}
);
width = 500;
}
);
note = E;
unicode = (69,101);
},
{
glyphname = F;
lastChange = "2024-04-05 14:54:07 +0000";
layers = (
{
background = {
shapes = (
{
closed = 1;
nodes = (
(-250,0,l),
(-150,0,l),
(-150,300,l),
(350,300,l),
(350,400,l),
(-150,400,l),
(-150,600,l),
(750,600,l),
(750,700,l),
(-250,700,l)
);
}
);
};
hints = (
{
horizontal = 1;
place = (300, 100);
place = (300, 100);
type = Stem;
},
{
horizontal = 1;
place = (600, 100);
place = (600, 100);
type = Stem;
},
{
place = (200, 100);
place = (200, 100);
type = Stem;
}
);
layerId = "AEA028FA-8432-430F-9508-2B91B3DB731A";
shapes = (
{
alignment = -1;
pos = (0,600);
ref = pixel;
scale = (0.5,1);
},
{
alignment = -1;
pos = (0,500);
ref = pixel;
scale = (0.5,1);
},
{
alignment = -1;
pos = (0,400);
ref = pixel;
scale = (0.5,1);
},
{
alignment = -1;
pos = (0,300);
ref = pixel;
scale = (0.5,1);
},
{
alignment = -1;
pos = (0,200);
ref = pixel;
scale = (0.5,1);
},
{
alignment = -1;
pos = (0,100);
ref = pixel;
scale = (0.5,1);
},
{
alignment = -1;
ref = pixel;
scale = (0.5,1);
},
{
alignment = -1;
pos = (50,300);
ref = pixel;
scale = (0.5,1);
},
{
alignment = -1;
pos = (100,300);
ref = pixel;
scale = (0.5,1);
},
{
alignment = -1;
pos = (150,300);
ref = pixel;
scale = (0.5,1);
},
{
alignment = -1;
pos = (200,300);
ref = pixel;
scale = (0.5,1);
},
{
alignment = -1;
pos = (250,300);
ref = pixel;
scale = (0.5,1);
},
{
alignment = -1;
pos = (50,600);
ref = pixel;
scale = (0.5,1);
},
{
alignment = -1;
pos = (100,600);
ref = pixel;
scale = (0.5,1);
},
{
alignment = -1;
pos = (150,600);
ref = pixel;
scale = (0.5,1);
},
{
alignment = -1;
pos = (200,600);
ref = pixel;
scale = (0.5,1);
},
{
alignment = -1;
pos = (250,600);
ref = pixel;
scale = (0.5,1);
},
{
alignment = -1;
pos = (300,600);
ref = pixel;
scale = (0.5,1);
},
{
alignment = -1;
pos = (350,600);
ref = pixel;
scale = (0.5,1);
},
{
alignment = -1;
pos = (400,600);
ref = pixel;
scale = (0.5,1);
},
{
alignment = -1;
pos = (450,600);
ref = pixel;
scale = (0.5,1);
}
);
width = 500;
},
{
background = {
shapes = (
{
closed = 1;
nodes = (
(-250,0,l),
(-150,0,l),
(-150,300,l),
(350,300,l),
(350,400,l),
(-150,400,l),
(-150,600,l),
(750,600,l),
(750,700,l),
(-250,700,l)
);
}
);
};
hints = (
{
horizontal = 1;
place = (300, 100);
place = (300, 100);
type = Stem;
},
{
horizontal = 1;
place = (600, 100);
place = (600, 100);
type = Stem;
},
{
place = (200, 100);
place = (200, 100);
type = Stem;
}
);
layerId = "70DB4E10-A1B7-44B2-BFCF-9F046C279AC2";
shapes = (
{
alignment = -1;
pos = (0,600);
ref = pixel;
scale = (0.5,1);
},
{
alignment = -1;
pos = (0,500);
ref = pixel;
scale = (0.5,1);
},
{
alignment = -1;
pos = (0,400);
ref = pixel;
scale = (0.5,1);
},
{
alignment = -1;
pos = (0,300);
ref = pixel;
scale = (0.5,1);
},
{
alignment = -1;
pos = (0,200);
ref = pixel;
scale = (0.5,1);
},
{
alignment = -1;
pos = (0,100);
ref = pixel;
scale = (0.5,1);
},
{
alignment = -1;
pos = (0,-100);
ref = pixel;
scale = (0.5,1);
},
{
alignment = -1;
pos = (50,100);
ref = pixel;
scale = (0.5,1);
},
{
alignment = -1;
pos = (100,300);
ref = pixel;
scale = (0.5,1);
},
{
alignment = -1;
pos = (150,200);
ref = pixel;
scale = (0.5,1);
},
{
alignment = -1;
pos = (200,300);
ref = pixel;
scale = (0.5,1);
},
{
alignment = -1;
pos = (250,100);
ref = pixel;
scale = (0.5,1);
},
{
alignment = -1;
pos = (50,600);
ref = pixel;
scale = (0.5,1);
},
{
alignment = -1;
pos = (100,900);
ref = pixel;
scale = (0.5,1);
},
{
alignment = -1;
pos = (150,500);
ref = pixel;
scale = (0.5,1);
},
{
alignment = -1;
pos = (200,700);
ref = pixel;
scale = (0.5,1);
},
{
alignment = -1;
pos = (250,600);
ref = pixel;
scale = (0.5,1);
},
{
alignment = -1;
pos = (300,700);
ref = pixel;
scale = (0.5,1);
},
{
alignment = -1;
pos = (350,600);
ref = pixel;
scale = (0.5,1);
},
{
alignment = -1;
pos = (400,800);
ref = pixel;
scale = (0.5,1);
},
{
alignment = -1;
pos = (450,500);
ref = pixel;
scale = (0.5,1);
}
);
width = 500;
}
);
note = F;
unicode = (70,102);
},
{
glyphname = G;
lastChange = "2024-04-05 14:54:07 +0000";
layers = (
{
background = {
shapes = (
{
closed = 1;
nodes = (
(-50,0,l),
(750,0,l),
(750,400,l),
(350,400,l),
(350,300,l),
(650,300,l),
(650,100,l),
(-50,100,l)
);
},
{
closed = 1;
nodes = (
(-150,100,l),
(-50,100,l),
(-50,600,l),
(-150,600,l)
);
},
{
closed = 1;
nodes = (
(-50,600,l),
(750,600,l),
(750,700,l),
(-50,700,l)
);
}
);
};
hints = (
{
horizontal = 1;
place = (0, 100);
place = (0, 100);
type = Stem;
},
{
horizontal = 1;
place = (300, 100);
place = (300, 100);
type = Stem;
},
{
horizontal = 1;
place = (600, 100);
place = (600, 100);
type = Stem;
},
{
place = (200, 100);
place = (200, 100);
type = Stem;
},
{
place = (1000, 100);
place = (1000, 100);
type = Stem;
}
);
layerId = "AEA028FA-8432-430F-9508-2B91B3DB731A";
shapes = (
{
alignment = -1;
pos = (100,0);
ref = pixel;
scale = (0.5,1);
},
{
alignment = -1;
pos = (150,0);
ref = pixel;
scale = (0.5,1);
},
{
alignment = -1;
pos = (200,0);
ref = pixel;
scale = (0.5,1);
},
{
alignment = -1;
pos = (250,0);
ref = pixel;
scale = (0.5,1);
},
{
alignment = -1;
pos = (300,0);
ref = pixel;
scale = (0.5,1);
},
{
alignment = -1;
pos = (350,0);
ref = pixel;
scale = (0.5,1);
},
{
alignment = -1;
pos = (400,0);
ref = pixel;
scale = (0.5,1);
},
{
alignment = -1;
pos = (450,0);
ref = pixel;
scale = (0.5,1);
},
{
alignment = -1;
pos = (450,100);
ref = pixel;
scale = (0.5,1);
},
{
alignment = -1;
pos = (450,200);
ref = pixel;
scale = (0.5,1);
},
{
alignment = -1;
pos = (450,300);
ref = pixel;
scale = (0.5,1);
},
{
alignment = -1;
pos = (400,300);
ref = pixel;
scale = (0.5,1);
},
{
alignment = -1;
pos = (350,300);
ref = pixel;
scale = (0.5,1);
},
{
alignment = -1;
pos = (300,300);
ref = pixel;
scale = (0.5,1);
},
{
alignment = -1;
pos = (100,600);
ref = pixel;
scale = (0.5,1);
},
{
alignment = -1;
pos = (150,600);
ref = pixel;
scale = (0.5,1);
},
{
alignment = -1;
pos = (200,600);
ref = pixel;
scale = (0.5,1);
},
{
alignment = -1;
pos = (250,600);
ref = pixel;
scale = (0.5,1);
},
{
alignment = -1;
pos = (300,600);
ref = pixel;
scale = (0.5,1);
},
{
alignment = -1;
pos = (350,600);
ref = pixel;
scale = (0.5,1);
},
{
alignment = -1;
pos = (400,600);
ref = pixel;
scale = (0.5,1);
},
{
alignment = -1;
pos = (450,600);
ref = pixel;
scale = (0.5,1);
},
{
alignment = -1;
pos = (50,0);
ref = pixel;
scale = (0.5,1);
},
{
alignment = -1;
pos = (0,100);
ref = pixel;
scale = (0.5,1);
},
{
alignment = -1;
pos = (0,200);
ref = pixel;
scale = (0.5,1);
},
{
alignment = -1;
pos = (0,300);
ref = pixel;
scale = (0.5,1);
},
{
alignment = -1;
pos = (0,400);
ref = pixel;
scale = (0.5,1);
},
{
alignment = -1;
pos = (0,500);
ref = pixel;
scale = (0.5,1);
},
{
alignment = -1;
pos = (50,600);
ref = pixel;
scale = (0.5,1);
},
{
alignment = -1;
pos = (250,300);
ref = pixel;
scale = (0.5,1);
}
);
width = 500;
},
{
background = {
shapes = (
{
closed = 1;
nodes = (
(-50,0,l),
(750,0,l),
(750,400,l),
(350,400,l),
(350,300,l),
(650,300,l),
(650,100,l),
(-50,100,l)
);
},
{
closed = 1;
nodes = (
(-150,100,l),
(-50,100,l),
(-50,600,l),
(-150,600,l)
);
},
{
closed = 1;
nodes = (
(-50,600,l),
(750,600,l),
(750,700,l),
(-50,700,l)
);
}
);
};
hints = (
{
horizontal = 1;
place = (0, 100);
place = (0, 100);
type = Stem;
},
{
horizontal = 1;
place = (300, 100);
place = (300, 100);
type = Stem;
},
{
horizontal = 1;
place = (600, 100);
place = (600, 100);
type = Stem;
},
{
place = (200, 100);
place = (200, 100);
type = Stem;
},
{
place = (1000, 100);
place = (1000, 100);
type = Stem;
}
);
layerId = "70DB4E10-A1B7-44B2-BFCF-9F046C279AC2";
shapes = (
{
alignment = -1;
pos = (100,0);
ref = pixel;
scale = (0.5,1);
},
{
alignment = -1;
pos = (150,-200);
ref = pixel;
scale = (0.5,1);
},
{
alignment = -1;
pos = (200,-100);
ref = pixel;
scale = (0.5,1);
},
{
alignment = -1;
pos = (250,0);
ref = pixel;
scale = (0.5,1);
},
{
alignment = -1;
pos = (300,-100);
ref = pixel;
scale = (0.5,1);
},
{
alignment = -1;
pos = (350,0);
ref = pixel;
scale = (0.5,1);
},
{
alignment = -1;
pos = (400,0);
ref = pixel;
scale = (0.5,1);
},
{
alignment = -1;
pos = (450,0);
ref = pixel;
scale = (0.5,1);
},
{
alignment = -1;
pos = (450,100);
ref = pixel;
scale = (0.5,1);
},
{
alignment = -1;
pos = (450,200);
ref = pixel;
scale = (0.5,1);
},
{
alignment = -1;
pos = (450,300);
ref = pixel;
scale = (0.5,1);
},
{
alignment = -1;
pos = (400,300);
ref = pixel;
scale = (0.5,1);
},
{
alignment = -1;
pos = (350,100);
ref = pixel;
scale = (0.5,1);
},
{
alignment = -1;
pos = (300,300);
ref = pixel;
scale = (0.5,1);
},
{
alignment = -1;
pos = (100,800);
ref = pixel;
scale = (0.5,1);
},
{
alignment = -1;
pos = (150,600);
ref = pixel;
scale = (0.5,1);
},
{
alignment = -1;
pos = (200,600);
ref = pixel;
scale = (0.5,1);
},
{
alignment = -1;
pos = (250,700);
ref = pixel;
scale = (0.5,1);
},
{
alignment = -1;
pos = (300,400);
ref = pixel;
scale = (0.5,1);
},
{
alignment = -1;
pos = (350,600);
ref = pixel;
scale = (0.5,1);
},
{
alignment = -1;
pos = (400,900);
ref = pixel;
scale = (0.5,1);
},
{
alignment = -1;
pos = (450,600);
ref = pixel;
scale = (0.5,1);
},
{
alignment = -1;
pos = (50,0);
ref = pixel;
scale = (0.5,1);
},
{
alignment = -1;
pos = (0,100);
ref = pixel;
scale = (0.5,1);
},
{
alignment = -1;
pos = (0,200);
ref = pixel;
scale = (0.5,1);
},
{
alignment = -1;
pos = (0,300);
ref = pixel;
scale = (0.5,1);
},
{
alignment = -1;
pos = (0,400);
ref = pixel;
scale = (0.5,1);
},
{
alignment = -1;
pos = (0,500);
ref = pixel;
scale = (0.5,1);
},
{
alignment = -1;
pos = (50,600);
ref = pixel;
scale = (0.5,1);
},
{
alignment = -1;
pos = (250,400);
ref = pixel;
scale = (0.5,1);
}
);
width = 500;
}
);
note = G;
unicode = (71,103);
},
{
glyphname = H;
lastChange = "2024-04-05 14:54:07 +0000";
layers = (
{
background = {
shapes = (
{
closed = 1;
nodes = (
(-250,0,l),
(-150,0,l),
(-150,300,l),
(650,300,l),
(650,0,l),
(750,0,l),
(750,700,l),
(650,700,l),
(650,400,l),
(-150,400,l),
(-150,700,l),
(-250,700,l)
);
}
);
};
hints = (
{
horizontal = 1;
place = (300, 100);
place = (300, 100);
type = Stem;
},
{
place = (200, 100);
place = (200, 100);
type = Stem;
},
{
place = (1100, 100);
place = (1100, 100);
type = Stem;
}
);
layerId = "AEA028FA-8432-430F-9508-2B91B3DB731A";
shapes = (
{
alignment = -1;
pos = (0,600);
ref = pixel;
scale = (0.5,1);
},
{
alignment = -1;
pos = (0,500);
ref = pixel;
scale = (0.5,1);
},
{
alignment = -1;
pos = (0,400);
ref = pixel;
scale = (0.5,1);
},
{
alignment = -1;
pos = (0,300);
ref = pixel;
scale = (0.5,1);
},
{
alignment = -1;
pos = (0,200);
ref = pixel;
scale = (0.5,1);
},
{
alignment = -1;
pos = (0,100);
ref = pixel;
scale = (0.5,1);
},
{
alignment = -1;
ref = pixel;
scale = (0.5,1);
},
{
alignment = -1;
pos = (50,300);
ref = pixel;
scale = (0.5,1);
},
{
alignment = -1;
pos = (100,300);
ref = pixel;
scale = (0.5,1);
},
{
alignment = -1;
pos = (150,300);
ref = pixel;
scale = (0.5,1);
},
{
alignment = -1;
pos = (200,300);
ref = pixel;
scale = (0.5,1);
},
{
alignment = -1;
pos = (250,300);
ref = pixel;
scale = (0.5,1);
},
{
alignment = -1;
pos = (300,300);
ref = pixel;
scale = (0.5,1);
},
{
alignment = -1;
pos = (350,300);
ref = pixel;
scale = (0.5,1);
},
{
alignment = -1;
pos = (400,300);
ref = pixel;
scale = (0.5,1);
},
{
alignment = -1;
pos = (450,300);
ref = pixel;
scale = (0.5,1);
},
{
alignment = -1;
pos = (450,400);
ref = pixel;
scale = (0.5,1);
},
{
alignment = -1;
pos = (450,500);
ref = pixel;
scale = (0.5,1);
},
{
alignment = -1;
pos = (450,600);
ref = pixel;
scale = (0.5,1);
},
{
alignment = -1;
pos = (450,200);
ref = pixel;
scale = (0.5,1);
},
{
alignment = -1;
pos = (450,100);
ref = pixel;
scale = (0.5,1);
},
{
alignment = -1;
pos = (450,0);
ref = pixel;
scale = (0.5,1);
}
);
width = 500;
},
{
background = {
shapes = (
{
closed = 1;
nodes = (
(-250,0,l),
(-150,0,l),
(-150,300,l),
(650,300,l),
(650,0,l),
(750,0,l),
(750,700,l),
(650,700,l),
(650,400,l),
(-150,400,l),
(-150,700,l),
(-250,700,l)
);
}
);
};
hints = (
{
horizontal = 1;
place = (300, 100);
place = (300, 100);
type = Stem;
},
{
place = (200, 100);
place = (200, 100);
type = Stem;
},
{
place = (1100, 100);
place = (1100, 100);
type = Stem;
}
);
layerId = "70DB4E10-A1B7-44B2-BFCF-9F046C279AC2";
shapes = (
{
alignment = -1;
pos = (0,600);
ref = pixel;
scale = (0.5,1);
},
{
alignment = -1;
pos = (0,500);
ref = pixel;
scale = (0.5,1);
},
{
alignment = -1;
pos = (0,400);
ref = pixel;
scale = (0.5,1);
},
{
alignment = -1;
pos = (0,300);
ref = pixel;
scale = (0.5,1);
},
{
alignment = -1;
pos = (0,200);
ref = pixel;
scale = (0.5,1);
},
{
alignment = -1;
pos = (0,100);
ref = pixel;
scale = (0.5,1);
},
{
alignment = -1;
ref = pixel;
scale = (0.5,1);
},
{
alignment = -1;
pos = (50,100);
ref = pixel;
scale = (0.5,1);
},
{
alignment = -1;
pos = (100,400);
ref = pixel;
scale = (0.5,1);
},
{
alignment = -1;
pos = (150,700);
ref = pixel;
scale = (0.5,1);
},
{
alignment = -1;
pos = (200,300);
ref = pixel;
scale = (0.5,1);
},
{
alignment = -1;
pos = (250,100);
ref = pixel;
scale = (0.5,1);
},
{
alignment = -1;
pos = (300,500);
ref = pixel;
scale = (0.5,1);
},
{
alignment = -1;
pos = (350,300);
ref = pixel;
scale = (0.5,1);
},
{
alignment = -1;
pos = (400,300);
ref = pixel;
scale = (0.5,1);
},
{
alignment = -1;
pos = (450,300);
ref = pixel;
scale = (0.5,1);
},
{
alignment = -1;
pos = (450,400);
ref = pixel;
scale = (0.5,1);
},
{
alignment = -1;
pos = (450,500);
ref = pixel;
scale = (0.5,1);
},
{
alignment = -1;
pos = (450,800);
ref = pixel;
scale = (0.5,1);
},
{
alignment = -1;
pos = (450,200);
ref = pixel;
scale = (0.5,1);
},
{
alignment = -1;
pos = (450,100);
ref = pixel;
scale = (0.5,1);
},
{
alignment = -1;
pos = (450,0);
ref = pixel;
scale = (0.5,1);
}
);
width = 500;
}
);
note = H;
unicode = (72,104);
},
{
glyphname = I;
lastChange = "2024-04-05 14:54:07 +0000";
layers = (
{
background = {
shapes = (
{
closed = 1;
nodes = (
(-250,0,l),
(750,0,l),
(750,100,l),
(250,100,l),
(250,600,l),
(750,600,l),
(750,700,l),
(-250,700,l),
(-250,600,l),
(150,600,l),
(150,100,l),
(-250,100,l)
);
}
);
};
hints = (
{
horizontal = 1;
place = (0, 100);
place = (0, 100);
type = Stem;
},
{
horizontal = 1;
place = (600, 100);
place = (600, 100);
type = Stem;
},
{
place = (600, 100);
place = (600, 100);
type = Stem;
}
);
layerId = "AEA028FA-8432-430F-9508-2B91B3DB731A";
shapes = (
{
alignment = -1;
pos = (200,600);
ref = pixel;
scale = (0.5,1);
},
{
alignment = -1;
pos = (200,500);
ref = pixel;
scale = (0.5,1);
},
{
alignment = -1;
pos = (200,400);
ref = pixel;
scale = (0.5,1);
},
{
alignment = -1;
pos = (200,300);
ref = pixel;
scale = (0.5,1);
},
{
alignment = -1;
pos = (200,200);
ref = pixel;
scale = (0.5,1);
},
{
alignment = -1;
pos = (200,100);
ref = pixel;
scale = (0.5,1);
},
{
alignment = -1;
pos = (200,0);
ref = pixel;
scale = (0.5,1);
},
{
alignment = -1;
pos = (150,0);
ref = pixel;
scale = (0.5,1);
},
{
alignment = -1;
pos = (100,0);
ref = pixel;
scale = (0.5,1);
},
{
alignment = -1;
pos = (50,0);
ref = pixel;
scale = (0.5,1);
},
{
alignment = -1;
ref = pixel;
scale = (0.5,1);
},
{
alignment = -1;
pos = (250,0);
ref = pixel;
scale = (0.5,1);
},
{
alignment = -1;
pos = (300,0);
ref = pixel;
scale = (0.5,1);
},
{
alignment = -1;
pos = (350,0);
ref = pixel;
scale = (0.5,1);
},
{
alignment = -1;
pos = (400,0);
ref = pixel;
scale = (0.5,1);
},
{
alignment = -1;
pos = (450,0);
ref = pixel;
scale = (0.5,1);
},
{
alignment = -1;
pos = (450,600);
ref = pixel;
scale = (0.5,1);
},
{
alignment = -1;
pos = (400,600);
ref = pixel;
scale = (0.5,1);
},
{
alignment = -1;
pos = (350,600);
ref = pixel;
scale = (0.5,1);
},
{
alignment = -1;
pos = (300,600);
ref = pixel;
scale = (0.5,1);
},
{
alignment = -1;
pos = (250,600);
ref = pixel;
scale = (0.5,1);
},
{
alignment = -1;
pos = (150,600);
ref = pixel;
scale = (0.5,1);
},
{
alignment = -1;
pos = (100,600);
ref = pixel;
scale = (0.5,1);
},
{
alignment = -1;
pos = (50,600);
ref = pixel;
scale = (0.5,1);
},
{
alignment = -1;
pos = (0,600);
ref = pixel;
scale = (0.5,1);
}
);
width = 500;
},
{
background = {
shapes = (
{
closed = 1;
nodes = (
(-250,0,l),
(750,0,l),
(750,100,l),
(250,100,l),
(250,600,l),
(750,600,l),
(750,700,l),
(-250,700,l),
(-250,600,l),
(150,600,l),
(150,100,l),
(-250,100,l)
);
}
);
};
hints = (
{
horizontal = 1;
place = (0, 100);
place = (0, 100);
type = Stem;
},
{
horizontal = 1;
place = (600, 100);
place = (600, 100);
type = Stem;
},
{
place = (600, 100);
place = (600, 100);
type = Stem;
}
);
layerId = "70DB4E10-A1B7-44B2-BFCF-9F046C279AC2";
shapes = (
{
alignment = -1;
pos = (200,600);
ref = pixel;
scale = (0.5,1);
},
{
alignment = -1;
pos = (200,500);
ref = pixel;
scale = (0.5,1);
},
{
alignment = -1;
pos = (200,400);
ref = pixel;
scale = (0.5,1);
},
{
alignment = -1;
pos = (200,300);
ref = pixel;
scale = (0.5,1);
},
{
alignment = -1;
pos = (200,200);
ref = pixel;
scale = (0.5,1);
},
{
alignment = -1;
pos = (200,100);
ref = pixel;
scale = (0.5,1);
},
{
alignment = -1;
pos = (200,0);
ref = pixel;
scale = (0.5,1);
},
{
alignment = -1;
pos = (150,0);
ref = pixel;
scale = (0.5,1);
},
{
alignment = -1;
pos = (100,-100);
ref = pixel;
scale = (0.5,1);
},
{
alignment = -1;
pos = (50,0);
ref = pixel;
scale = (0.5,1);
},
{
alignment = -1;
pos = (0,-200);
ref = pixel;
scale = (0.5,1);
},
{
alignment = -1;
pos = (250,-200);
ref = pixel;
scale = (0.5,1);
},
{
alignment = -1;
pos = (300,0);
ref = pixel;
scale = (0.5,1);
},
{
alignment = -1;
pos = (350,0);
ref = pixel;
scale = (0.5,1);
},
{
alignment = -1;
pos = (400,200);
ref = pixel;
scale = (0.5,1);
},
{
alignment = -1;
pos = (450,0);
ref = pixel;
scale = (0.5,1);
},
{
alignment = -1;
pos = (450,600);
ref = pixel;
scale = (0.5,1);
},
{
alignment = -1;
pos = (400,600);
ref = pixel;
scale = (0.5,1);
},
{
alignment = -1;
pos = (350,600);
ref = pixel;
scale = (0.5,1);
},
{
alignment = -1;
pos = (300,600);
ref = pixel;
scale = (0.5,1);
},
{
alignment = -1;
pos = (250,800);
ref = pixel;
scale = (0.5,1);
},
{
alignment = -1;
pos = (150,600);
ref = pixel;
scale = (0.5,1);
},
{
alignment = -1;
pos = (100,800);
ref = pixel;
scale = (0.5,1);
},
{
alignment = -1;
pos = (50,600);
ref = pixel;
scale = (0.5,1);
},
{
alignment = -1;
pos = (0,600);
ref = pixel;
scale = (0.5,1);
}
);
width = 500;
}
);
note = I;
unicode = (73,105);
},
{
glyphname = J;
lastChange = "2024-04-05 14:54:07 +0000";
layers = (
{
background = {
shapes = (
{
closed = 1;
nodes = (
(650,100,l),
(-150,100,l),
(-150,0,l),
(650,0,l)
);
},
{
closed = 1;
nodes = (
(-250,100,l),
(-150,100,l),
(-150,200,l),
(-250,200,l)
);
},
{
closed = 1;
nodes = (
(-250,600,l),
(650,600,l),
(650,100,l),
(750,100,l),
(750,700,l),
(-250,700,l)
);
}
);
};
hints = (
{
horizontal = 1;
place = (0, 100);
place = (0, 100);
type = Stem;
},
{
horizontal = 1;
place = (600, 100);
place = (600, 100);
type = Stem;
},
{
place = (200, 100);
place = (200, 100);
type = Stem;
},
{
place = (1100, 100);
place = (1100, 100);
type = Stem;
},
{
horizontal = 1;
place = (100, 100);
place = (100, 100);
type = Stem;
}
);
layerId = "AEA028FA-8432-430F-9508-2B91B3DB731A";
shapes = (
{
alignment = -1;
pos = (0,600);
ref = pixel;
scale = (0.5,1);
},
{
alignment = -1;
pos = (50,600);
ref = pixel;
scale = (0.5,1);
},
{
alignment = -1;
pos = (100,600);
ref = pixel;
scale = (0.5,1);
},
{
alignment = -1;
pos = (150,600);
ref = pixel;
scale = (0.5,1);
},
{
alignment = -1;
pos = (200,600);
ref = pixel;
scale = (0.5,1);
},
{
alignment = -1;
pos = (250,600);
ref = pixel;
scale = (0.5,1);
},
{
alignment = -1;
pos = (300,600);
ref = pixel;
scale = (0.5,1);
},
{
alignment = -1;
pos = (350,600);
ref = pixel;
scale = (0.5,1);
},
{
alignment = -1;
pos = (400,600);
ref = pixel;
scale = (0.5,1);
},
{
alignment = -1;
pos = (450,600);
ref = pixel;
scale = (0.5,1);
},
{
alignment = -1;
pos = (450,500);
ref = pixel;
scale = (0.5,1);
},
{
alignment = -1;
pos = (450,400);
ref = pixel;
scale = (0.5,1);
},
{
alignment = -1;
pos = (450,300);
ref = pixel;
scale = (0.5,1);
},
{
alignment = -1;
pos = (450,200);
ref = pixel;
scale = (0.5,1);
},
{
alignment = -1;
pos = (450,100);
ref = pixel;
scale = (0.5,1);
},
{
alignment = -1;
pos = (400,0);
ref = pixel;
scale = (0.5,1);
},
{
alignment = -1;
pos = (350,0);
ref = pixel;
scale = (0.5,1);
},
{
alignment = -1;
pos = (300,0);
ref = pixel;
scale = (0.5,1);
},
{
alignment = -1;
pos = (250,0);
ref = pixel;
scale = (0.5,1);
},
{
alignment = -1;
pos = (200,0);
ref = pixel;
scale = (0.5,1);
},
{
alignment = -1;
pos = (150,0);
ref = pixel;
scale = (0.5,1);
},
{
alignment = -1;
pos = (100,0);
ref = pixel;
scale = (0.5,1);
},
{
alignment = -1;
pos = (50,0);
ref = pixel;
scale = (0.5,1);
},
{
alignment = -1;
pos = (0,100);
ref = pixel;
scale = (0.5,1);
}
);
width = 500;
},
{
background = {
shapes = (
{
closed = 1;
nodes = (
(650,100,l),
(-150,100,l),
(-150,0,l),
(650,0,l)
);
},
{
closed = 1;
nodes = (
(-250,100,l),
(-150,100,l),
(-150,200,l),
(-250,200,l)
);
},
{
closed = 1;
nodes = (
(-250,600,l),
(650,600,l),
(650,100,l),
(750,100,l),
(750,700,l),
(-250,700,l)
);
}
);
};
hints = (
{
horizontal = 1;
place = (0, 100);
place = (0, 100);
type = Stem;
},
{
horizontal = 1;
place = (600, 100);
place = (600, 100);
type = Stem;
},
{
place = (200, 100);
place = (200, 100);
type = Stem;
},
{
place = (1100, 100);
place = (1100, 100);
type = Stem;
},
{
horizontal = 1;
place = (100, 100);
place = (100, 100);
type = Stem;
}
);
layerId = "70DB4E10-A1B7-44B2-BFCF-9F046C279AC2";
shapes = (
{
alignment = -1;
pos = (0,600);
ref = pixel;
scale = (0.5,1);
},
{
alignment = -1;
pos = (50,600);
ref = pixel;
scale = (0.5,1);
},
{
alignment = -1;
pos = (100,500);
ref = pixel;
scale = (0.5,1);
},
{
alignment = -1;
pos = (150,700);
ref = pixel;
scale = (0.5,1);
},
{
alignment = -1;
pos = (200,600);
ref = pixel;
scale = (0.5,1);
},
{
alignment = -1;
pos = (250,900);
ref = pixel;
scale = (0.5,1);
},
{
alignment = -1;
pos = (300,600);
ref = pixel;
scale = (0.5,1);
},
{
alignment = -1;
pos = (350,600);
ref = pixel;
scale = (0.5,1);
},
{
alignment = -1;
pos = (400,800);
ref = pixel;
scale = (0.5,1);
},
{
alignment = -1;
pos = (450,600);
ref = pixel;
scale = (0.5,1);
},
{
alignment = -1;
pos = (450,500);
ref = pixel;
scale = (0.5,1);
},
{
alignment = -1;
pos = (450,400);
ref = pixel;
scale = (0.5,1);
},
{
alignment = -1;
pos = (450,300);
ref = pixel;
scale = (0.5,1);
},
{
alignment = -1;
pos = (450,200);
ref = pixel;
scale = (0.5,1);
},
{
alignment = -1;
pos = (450,-100);
ref = pixel;
scale = (0.5,1);
},
{
alignment = -1;
pos = (400,-300);
ref = pixel;
scale = (0.5,1);
},
{
alignment = -1;
pos = (350,0);
ref = pixel;
scale = (0.5,1);
},
{
alignment = -1;
pos = (300,-200);
ref = pixel;
scale = (0.5,1);
},
{
alignment = -1;
pos = (250,0);
ref = pixel;
scale = (0.5,1);
},
{
alignment = -1;
pos = (200,0);
ref = pixel;
scale = (0.5,1);
},
{
alignment = -1;
pos = (150,-100);
ref = pixel;
scale = (0.5,1);
},
{
alignment = -1;
pos = (100,0);
ref = pixel;
scale = (0.5,1);
},
{
alignment = -1;
pos = (50,0);
ref = pixel;
scale = (0.5,1);
},
{
alignment = -1;
pos = (0,300);
ref = pixel;
scale = (0.5,1);
}
);
width = 500;
}
);
note = J;
unicode = (74,106);
},
{
glyphname = K;
lastChange = "2024-04-05 14:54:07 +0000";
layers = (
{
background = {
shapes = (
{
closed = 1;
nodes = (
(-250,0,l),
(-150,0,l),
(-150,300,l),
(150,300,l),
(150,400,l),
(-150,400,l),
(-150,700,l),
(-250,700,l)
);
},
{
closed = 1;
nodes = (
(150,200,l),
(350,200,l),
(350,300,l),
(150,300,l)
);
},
{
closed = 1;
nodes = (
(150,400,l),
(350,400,l),
(350,500,l),
(150,500,l)
);
},
{
closed = 1;
nodes = (
(350,100,l),
(550,100,l),
(550,200,l),
(350,200,l)
);
},
{
closed = 1;
nodes = (
(350,500,l),
(550,500,l),
(550,600,l),
(350,600,l)
);
},
{
closed = 1;
nodes = (
(550,0,l),
(750,0,l),
(750,100,l),
(550,100,l)
);
},
{
closed = 1;
nodes = (
(550,600,l),
(750,600,l),
(750,700,l),
(550,700,l)
);
}
);
};
hints = (
{
horizontal = 1;
place = (100, 100);
place = (100, 100);
type = Stem;
},
{
horizontal = 1;
place = (300, 100);
place = (300, 100);
type = Stem;
},
{
horizontal = 1;
place = (600, 100);
place = (600, 100);
type = Stem;
},
{
place = (200, 100);
place = (200, 100);
type = Stem;
},
{
place = (600, 200);
place = (600, 200);
type = Stem;
},
{
place = (1000, 200);
place = (1000, 200);
type = Stem;
},
{
horizontal = 1;
place = (200, 100);
place = (200, 100);
type = Stem;
},
{
horizontal = 1;
place = (400, 100);
place = (400, 100);
type = Stem;
},
{
horizontal = 1;
place = (500, 100);
place = (500, 100);
type = Stem;
},
{
place = (800, 200);
place = (800, 200);
type = Stem;
},
{
horizontal = 1;
place = (0, 100);
place = (0, 100);
type = Stem;
}
);
layerId = "AEA028FA-8432-430F-9508-2B91B3DB731A";
shapes = (
{
alignment = -1;
pos = (0,600);
ref = pixel;
scale = (0.5,1);
},
{
alignment = -1;
pos = (0,500);
ref = pixel;
scale = (0.5,1);
},
{
alignment = -1;
pos = (0,400);
ref = pixel;
scale = (0.5,1);
},
{
alignment = -1;
pos = (0,300);
ref = pixel;
scale = (0.5,1);
},
{
alignment = -1;
pos = (0,200);
ref = pixel;
scale = (0.5,1);
},
{
alignment = -1;
pos = (0,100);
ref = pixel;
scale = (0.5,1);
},
{
alignment = -1;
ref = pixel;
scale = (0.5,1);
},
{
alignment = -1;
pos = (50,300);
ref = pixel;
scale = (0.5,1);
},
{
alignment = -1;
pos = (100,300);
ref = pixel;
scale = (0.5,1);
},
{
alignment = -1;
pos = (150,300);
ref = pixel;
scale = (0.5,1);
},
{
alignment = -1;
pos = (200,400);
ref = pixel;
scale = (0.5,1);
},
{
alignment = -1;
pos = (250,400);
ref = pixel;
scale = (0.5,1);
},
{
alignment = -1;
pos = (300,500);
ref = pixel;
scale = (0.5,1);
},
{
alignment = -1;
pos = (350,500);
ref = pixel;
scale = (0.5,1);
},
{
alignment = -1;
pos = (400,600);
ref = pixel;
scale = (0.5,1);
},
{
alignment = -1;
pos = (450,600);
ref = pixel;
scale = (0.5,1);
},
{
alignment = -1;
pos = (200,200);
ref = pixel;
scale = (0.5,1);
},
{
alignment = -1;
pos = (250,200);
ref = pixel;
scale = (0.5,1);
},
{
alignment = -1;
pos = (300,100);
ref = pixel;
scale = (0.5,1);
},
{
alignment = -1;
pos = (350,100);
ref = pixel;
scale = (0.5,1);
},
{
alignment = -1;
pos = (400,0);
ref = pixel;
scale = (0.5,1);
},
{
alignment = -1;
pos = (450,0);
ref = pixel;
scale = (0.5,1);
}
);
width = 500;
},
{
background = {
shapes = (
{
closed = 1;
nodes = (
(-250,0,l),
(-150,0,l),
(-150,300,l),
(150,300,l),
(150,400,l),
(-150,400,l),
(-150,700,l),
(-250,700,l)
);
},
{
closed = 1;
nodes = (
(150,200,l),
(350,200,l),
(350,300,l),
(150,300,l)
);
},
{
closed = 1;
nodes = (
(150,400,l),
(350,400,l),
(350,500,l),
(150,500,l)
);
},
{
closed = 1;
nodes = (
(350,100,l),
(550,100,l),
(550,200,l),
(350,200,l)
);
},
{
closed = 1;
nodes = (
(350,500,l),
(550,500,l),
(550,600,l),
(350,600,l)
);
},
{
closed = 1;
nodes = (
(550,0,l),
(750,0,l),
(750,100,l),
(550,100,l)
);
},
{
closed = 1;
nodes = (
(550,600,l),
(750,600,l),
(750,700,l),
(550,700,l)
);
}
);
};
hints = (
{
horizontal = 1;
place = (100, 100);
place = (100, 100);
type = Stem;
},
{
horizontal = 1;
place = (300, 100);
place = (300, 100);
type = Stem;
},
{
horizontal = 1;
place = (600, 100);
place = (600, 100);
type = Stem;
},
{
place = (200, 100);
place = (200, 100);
type = Stem;
},
{
place = (600, 200);
place = (600, 200);
type = Stem;
},
{
place = (1000, 200);
place = (1000, 200);
type = Stem;
},
{
horizontal = 1;
place = (200, 100);
place = (200, 100);
type = Stem;
},
{
horizontal = 1;
place = (400, 100);
place = (400, 100);
type = Stem;
},
{
horizontal = 1;
place = (500, 100);
place = (500, 100);
type = Stem;
},
{
place = (800, 200);
place = (800, 200);
type = Stem;
},
{
horizontal = 1;
place = (0, 100);
place = (0, 100);
type = Stem;
}
);
layerId = "70DB4E10-A1B7-44B2-BFCF-9F046C279AC2";
shapes = (
{
alignment = -1;
pos = (0,700);
ref = pixel;
scale = (0.5,1);
},
{
alignment = -1;
pos = (0,500);
ref = pixel;
scale = (0.5,1);
},
{
alignment = -1;
pos = (0,400);
ref = pixel;
scale = (0.5,1);
},
{
alignment = -1;
pos = (0,300);
ref = pixel;
scale = (0.5,1);
},
{
alignment = -1;
pos = (0,200);
ref = pixel;
scale = (0.5,1);
},
{
alignment = -1;
pos = (0,100);
ref = pixel;
scale = (0.5,1);
},
{
alignment = -1;
pos = (0,-100);
ref = pixel;
scale = (0.5,1);
},
{
alignment = -1;
pos = (50,300);
ref = pixel;
scale = (0.5,1);
},
{
alignment = -1;
pos = (100,500);
ref = pixel;
scale = (0.5,1);
},
{
alignment = -1;
pos = (150,300);
ref = pixel;
scale = (0.5,1);
},
{
alignment = -1;
pos = (200,600);
ref = pixel;
scale = (0.5,1);
},
{
alignment = -1;
pos = (250,400);
ref = pixel;
scale = (0.5,1);
},
{
alignment = -1;
pos = (300,500);
ref = pixel;
scale = (0.5,1);
},
{
alignment = -1;
pos = (350,500);
ref = pixel;
scale = (0.5,1);
},
{
alignment = -1;
pos = (400,900);
ref = pixel;
scale = (0.5,1);
},
{
alignment = -1;
pos = (450,600);
ref = pixel;
scale = (0.5,1);
},
{
alignment = -1;
pos = (200,100);
ref = pixel;
scale = (0.5,1);
},
{
alignment = -1;
pos = (250,200);
ref = pixel;
scale = (0.5,1);
},
{
alignment = -1;
pos = (300,-100);
ref = pixel;
scale = (0.5,1);
},
{
alignment = -1;
pos = (350,100);
ref = pixel;
scale = (0.5,1);
},
{
alignment = -1;
pos = (400,0);
ref = pixel;
scale = (0.5,1);
},
{
alignment = -1;
pos = (450,-200);
ref = pixel;
scale = (0.5,1);
}
);
width = 500;
}
);
note = K;
unicode = (75,107);
},
{
glyphname = L;
lastChange = "2024-04-05 14:54:07 +0000";
layers = (
{
background = {
shapes = (
{
closed = 1;
nodes = (
(-250,0,l),
(750,0,l),
(750,100,l),
(-150,100,l),
(-150,700,l),
(-250,700,l)
);
}
);
};
hints = (
{
horizontal = 1;
place = (0, 100);
place = (0, 100);
type = Stem;
},
{
place = (200, 100);
place = (200, 100);
type = Stem;
}
);
layerId = "AEA028FA-8432-430F-9508-2B91B3DB731A";
shapes = (
{
alignment = -1;
pos = (0,600);
ref = pixel;
scale = (0.5,1);
},
{
alignment = -1;
pos = (0,500);
ref = pixel;
scale = (0.5,1);
},
{
alignment = -1;
pos = (0,400);
ref = pixel;
scale = (0.5,1);
},
{
alignment = -1;
pos = (0,300);
ref = pixel;
scale = (0.5,1);
},
{
alignment = -1;
pos = (0,200);
ref = pixel;
scale = (0.5,1);
},
{
alignment = -1;
pos = (0,100);
ref = pixel;
scale = (0.5,1);
},
{
alignment = -1;
ref = pixel;
scale = (0.5,1);
},
{
alignment = -1;
pos = (50,0);
ref = pixel;
scale = (0.5,1);
},
{
alignment = -1;
pos = (100,0);
ref = pixel;
scale = (0.5,1);
},
{
alignment = -1;
pos = (150,0);
ref = pixel;
scale = (0.5,1);
},
{
alignment = -1;
pos = (200,0);
ref = pixel;
scale = (0.5,1);
},
{
alignment = -1;
pos = (250,0);
ref = pixel;
scale = (0.5,1);
},
{
alignment = -1;
pos = (300,0);
ref = pixel;
scale = (0.5,1);
},
{
alignment = -1;
pos = (350,0);
ref = pixel;
scale = (0.5,1);
},
{
alignment = -1;
pos = (400,0);
ref = pixel;
scale = (0.5,1);
},
{
alignment = -1;
pos = (450,0);
ref = pixel;
scale = (0.5,1);
}
);
width = 500;
},
{
background = {
shapes = (
{
closed = 1;
nodes = (
(-250,0,l),
(750,0,l),
(750,100,l),
(-150,100,l),
(-150,700,l),
(-250,700,l)
);
}
);
};
hints = (
{
horizontal = 1;
place = (0, 100);
place = (0, 100);
type = Stem;
},
{
place = (200, 100);
place = (200, 100);
type = Stem;
}
);
layerId = "70DB4E10-A1B7-44B2-BFCF-9F046C279AC2";
shapes = (
{
alignment = -1;
pos = (0,700);
ref = pixel;
scale = (0.5,1);
},
{
alignment = -1;
pos = (0,500);
ref = pixel;
scale = (0.5,1);
},
{
alignment = -1;
pos = (0,400);
ref = pixel;
scale = (0.5,1);
},
{
alignment = -1;
pos = (0,300);
ref = pixel;
scale = (0.5,1);
},
{
alignment = -1;
pos = (0,200);
ref = pixel;
scale = (0.5,1);
},
{
alignment = -1;
pos = (0,100);
ref = pixel;
scale = (0.5,1);
},
{
alignment = -1;
ref = pixel;
scale = (0.5,1);
},
{
alignment = -1;
pos = (50,-100);
ref = pixel;
scale = (0.5,1);
},
{
alignment = -1;
pos = (100,100);
ref = pixel;
scale = (0.5,1);
},
{
alignment = -1;
pos = (150,0);
ref = pixel;
scale = (0.5,1);
},
{
alignment = -1;
pos = (200,300);
ref = pixel;
scale = (0.5,1);
},
{
alignment = -1;
pos = (250,-200);
ref = pixel;
scale = (0.5,1);
},
{
alignment = -1;
pos = (300,200);
ref = pixel;
scale = (0.5,1);
},
{
alignment = -1;
pos = (350,0);
ref = pixel;
scale = (0.5,1);
},
{
alignment = -1;
pos = (400,-100);
ref = pixel;
scale = (0.5,1);
},
{
alignment = -1;
pos = (450,0);
ref = pixel;
scale = (0.5,1);
}
);
width = 500;
}
);
note = L;
unicode = (76,108);
},
{
glyphname = M;
lastChange = "2024-04-05 14:54:07 +0000";
layers = (
{
background = {
shapes = (
{
closed = 1;
nodes = (
(-250,0,l),
(-150,0,l),
(-150,500,l),
(-50,500,l),
(-50,600,l),
(-150,600,l),
(-150,700,l),
(-250,700,l)
);
},
{
closed = 1;
nodes = (
(-50,400,l),
(50,400,l),
(50,500,l),
(-50,500,l)
);
},
{
closed = 1;
nodes = (
(50,300,l),
(150,300,l),
(150,400,l),
(50,400,l)
);
},
{
closed = 1;
nodes = (
(150,200,l),
(350,200,l),
(350,300,l),
(150,300,l)
);
},
{
closed = 1;
nodes = (
(350,300,l),
(450,300,l),
(450,400,l),
(350,400,l)
);
},
{
closed = 1;
nodes = (
(450,400,l),
(550,400,l),
(550,500,l),
(450,500,l)
);
},
{
closed = 1;
nodes = (
(550,500,l),
(650,500,l),
(650,0,l),
(750,0,l),
(750,700,l),
(650,700,l),
(650,600,l),
(550,600,l)
);
}
);
};
hints = (
{
horizontal = 1;
place = (200, 100);
place = (200, 100);
type = Stem;
},
{
horizontal = 1;
place = (500, 100);
place = (500, 100);
type = Stem;
},
{
place = (200, 100);
place = (200, 100);
type = Stem;
},
{
place = (400, 100);
place = (400, 100);
type = Stem;
},
{
place = (800, 100);
place = (800, 100);
type = Stem;
},
{
place = (1100, 100);
place = (1100, 100);
type = Stem;
},
{
horizontal = 1;
place = (400, 100);
place = (400, 100);
type = Stem;
},
{
horizontal = 1;
place = (300, 100);
place = (300, 100);
type = Stem;
},
{
place = (500, 100);
place = (500, 100);
type = Stem;
},
{
place = (600, 200);
place = (600, 200);
type = Stem;
},
{
place = (900, 100);
place = (900, 100);
type = Stem;
}
);
layerId = "AEA028FA-8432-430F-9508-2B91B3DB731A";
shapes = (
{
alignment = -1;
pos = (0,600);
ref = pixel;
scale = (0.5,1);
},
{
alignment = -1;
pos = (0,500);
ref = pixel;
scale = (0.5,1);
},
{
alignment = -1;
pos = (0,400);
ref = pixel;
scale = (0.5,1);
},
{
alignment = -1;
pos = (0,300);
ref = pixel;
scale = (0.5,1);
},
{
alignment = -1;
pos = (0,200);
ref = pixel;
scale = (0.5,1);
},
{
alignment = -1;
pos = (0,100);
ref = pixel;
scale = (0.5,1);
},
{
alignment = -1;
ref = pixel;
scale = (0.5,1);
},
{
alignment = -1;
pos = (50,500);
ref = pixel;
scale = (0.5,1);
},
{
alignment = -1;
pos = (100,400);
ref = pixel;
scale = (0.5,1);
},
{
alignment = -1;
pos = (150,300);
ref = pixel;
scale = (0.5,1);
},
{
alignment = -1;
pos = (200,200);
ref = pixel;
scale = (0.5,1);
},
{
alignment = -1;
pos = (250,200);
ref = pixel;
scale = (0.5,1);
},
{
alignment = -1;
pos = (300,300);
ref = pixel;
scale = (0.5,1);
},
{
alignment = -1;
pos = (350,400);
ref = pixel;
scale = (0.5,1);
},
{
alignment = -1;
pos = (400,500);
ref = pixel;
scale = (0.5,1);
},
{
alignment = -1;
pos = (450,500);
ref = pixel;
scale = (0.5,1);
},
{
alignment = -1;
pos = (450,600);
ref = pixel;
scale = (0.5,1);
},
{
alignment = -1;
pos = (450,400);
ref = pixel;
scale = (0.5,1);
},
{
alignment = -1;
pos = (450,300);
ref = pixel;
scale = (0.5,1);
},
{
alignment = -1;
pos = (450,200);
ref = pixel;
scale = (0.5,1);
},
{
alignment = -1;
pos = (450,100);
ref = pixel;
scale = (0.5,1);
},
{
alignment = -1;
pos = (450,0);
ref = pixel;
scale = (0.5,1);
}
);
width = 500;
},
{
background = {
shapes = (
{
closed = 1;
nodes = (
(-250,0,l),
(-150,0,l),
(-150,500,l),
(-50,500,l),
(-50,600,l),
(-150,600,l),
(-150,700,l),
(-250,700,l)
);
},
{
closed = 1;
nodes = (
(-50,400,l),
(50,400,l),
(50,500,l),
(-50,500,l)
);
},
{
closed = 1;
nodes = (
(50,300,l),
(150,300,l),
(150,400,l),
(50,400,l)
);
},
{
closed = 1;
nodes = (
(150,200,l),
(350,200,l),
(350,300,l),
(150,300,l)
);
},
{
closed = 1;
nodes = (
(350,300,l),
(450,300,l),
(450,400,l),
(350,400,l)
);
},
{
closed = 1;
nodes = (
(450,400,l),
(550,400,l),
(550,500,l),
(450,500,l)
);
},
{
closed = 1;
nodes = (
(550,500,l),
(650,500,l),
(650,0,l),
(750,0,l),
(750,700,l),
(650,700,l),
(650,600,l),
(550,600,l)
);
}
);
};
hints = (
{
horizontal = 1;
place = (200, 100);
place = (200, 100);
type = Stem;
},
{
horizontal = 1;
place = (500, 100);
place = (500, 100);
type = Stem;
},
{
place = (200, 100);
place = (200, 100);
type = Stem;
},
{
place = (400, 100);
place = (400, 100);
type = Stem;
},
{
place = (800, 100);
place = (800, 100);
type = Stem;
},
{
place = (1100, 100);
place = (1100, 100);
type = Stem;
},
{
horizontal = 1;
place = (400, 100);
place = (400, 100);
type = Stem;
},
{
horizontal = 1;
place = (300, 100);
place = (300, 100);
type = Stem;
},
{
place = (500, 100);
place = (500, 100);
type = Stem;
},
{
place = (600, 200);
place = (600, 200);
type = Stem;
},
{
place = (900, 100);
place = (900, 100);
type = Stem;
}
);
layerId = "70DB4E10-A1B7-44B2-BFCF-9F046C279AC2";
shapes = (
{
alignment = -1;
pos = (0,700);
ref = pixel;
scale = (0.5,1);
},
{
alignment = -1;
pos = (0,500);
ref = pixel;
scale = (0.5,1);
},
{
alignment = -1;
pos = (0,400);
ref = pixel;
scale = (0.5,1);
},
{
alignment = -1;
pos = (0,300);
ref = pixel;
scale = (0.5,1);
},
{
alignment = -1;
pos = (0,200);
ref = pixel;
scale = (0.5,1);
},
{
alignment = -1;
pos = (0,100);
ref = pixel;
scale = (0.5,1);
},
{
alignment = -1;
pos = (0,-100);
ref = pixel;
scale = (0.5,1);
},
{
alignment = -1;
pos = (50,500);
ref = pixel;
scale = (0.5,1);
},
{
alignment = -1;
pos = (100,600);
ref = pixel;
scale = (0.5,1);
},
{
alignment = -1;
pos = (150,100);
ref = pixel;
scale = (0.5,1);
},
{
alignment = -1;
pos = (200,300);
ref = pixel;
scale = (0.5,1);
},
{
alignment = -1;
pos = (250,200);
ref = pixel;
scale = (0.5,1);
},
{
alignment = -1;
pos = (300,300);
ref = pixel;
scale = (0.5,1);
},
{
alignment = -1;
pos = (350,200);
ref = pixel;
scale = (0.5,1);
},
{
alignment = -1;
pos = (400,700);
ref = pixel;
scale = (0.5,1);
},
{
alignment = -1;
pos = (450,500);
ref = pixel;
scale = (0.5,1);
},
{
alignment = -1;
pos = (450,600);
ref = pixel;
scale = (0.5,1);
},
{
alignment = -1;
pos = (450,400);
ref = pixel;
scale = (0.5,1);
},
{
alignment = -1;
pos = (450,300);
ref = pixel;
scale = (0.5,1);
},
{
alignment = -1;
pos = (450,200);
ref = pixel;
scale = (0.5,1);
},
{
alignment = -1;
pos = (450,100);
ref = pixel;
scale = (0.5,1);
},
{
alignment = -1;
pos = (450,-300);
ref = pixel;
scale = (0.5,1);
}
);
width = 500;
}
);
note = M;
unicode = (77,109);
},
{
glyphname = N;
lastChange = "2024-04-05 14:54:07 +0000";
layers = (
{
background = {
shapes = (
{
closed = 1;
nodes = (
(-250,0,l),
(-150,0,l),
(-150,500,l),
(-50,500,l),
(-50,600,l),
(-150,600,l),
(-150,700,l),
(-250,700,l)
);
},
{
closed = 1;
nodes = (
(-50,400,l),
(150,400,l),
(150,500,l),
(-50,500,l)
);
},
{
closed = 1;
nodes = (
(150,300,l),
(350,300,l),
(350,400,l),
(150,400,l)
);
},
{
closed = 1;
nodes = (
(350,200,l),
(550,200,l),
(550,300,l),
(350,300,l)
);
},
{
closed = 1;
nodes = (
(550,100,l),
(650,100,l),
(650,0,l),
(750,0,l),
(750,700,l),
(650,700,l),
(650,200,l),
(550,200,l)
);
}
);
};
hints = (
{
horizontal = 1;
place = (200, 100);
place = (200, 100);
type = Stem;
},
{
horizontal = 1;
place = (400, 100);
place = (400, 100);
type = Stem;
},
{
place = (200, 100);
place = (200, 100);
type = Stem;
},
{
place = (1100, 100);
place = (1100, 100);
type = Stem;
},
{
horizontal = 1;
place = (500, 100);
place = (500, 100);
type = Stem;
},
{
place = (400, 200);
place = (400, 200);
type = Stem;
},
{
horizontal = 1;
place = (300, 100);
place = (300, 100);
type = Stem;
},
{
place = (600, 200);
place = (600, 200);
type = Stem;
},
{
place = (800, 200);
place = (800, 200);
type = Stem;
},
{
horizontal = 1;
place = (100, 100);
place = (100, 100);
type = Stem;
}
);
layerId = "AEA028FA-8432-430F-9508-2B91B3DB731A";
shapes = (
{
alignment = -1;
pos = (0,600);
ref = pixel;
scale = (0.5,1);
},
{
alignment = -1;
pos = (0,500);
ref = pixel;
scale = (0.5,1);
},
{
alignment = -1;
pos = (0,400);
ref = pixel;
scale = (0.5,1);
},
{
alignment = -1;
pos = (0,300);
ref = pixel;
scale = (0.5,1);
},
{
alignment = -1;
pos = (0,200);
ref = pixel;
scale = (0.5,1);
},
{
alignment = -1;
pos = (0,100);
ref = pixel;
scale = (0.5,1);
},
{
alignment = -1;
ref = pixel;
scale = (0.5,1);
},
{
alignment = -1;
pos = (50,500);
ref = pixel;
scale = (0.5,1);
},
{
alignment = -1;
pos = (100,400);
ref = pixel;
scale = (0.5,1);
},
{
alignment = -1;
pos = (150,400);
ref = pixel;
scale = (0.5,1);
},
{
alignment = -1;
pos = (200,300);
ref = pixel;
scale = (0.5,1);
},
{
alignment = -1;
pos = (300,200);
ref = pixel;
scale = (0.5,1);
},
{
alignment = -1;
pos = (350,200);
ref = pixel;
scale = (0.5,1);
},
{
alignment = -1;
pos = (250,300);
ref = pixel;
scale = (0.5,1);
},
{
alignment = -1;
pos = (400,100);
ref = pixel;
scale = (0.5,1);
},
{
alignment = -1;
pos = (450,100);
ref = pixel;
scale = (0.5,1);
},
{
alignment = -1;
pos = (450,0);
ref = pixel;
scale = (0.5,1);
},
{
alignment = -1;
pos = (450,200);
ref = pixel;
scale = (0.5,1);
},
{
alignment = -1;
pos = (450,300);
ref = pixel;
scale = (0.5,1);
},
{
alignment = -1;
pos = (450,400);
ref = pixel;
scale = (0.5,1);
},
{
alignment = -1;
pos = (450,500);
ref = pixel;
scale = (0.5,1);
},
{
alignment = -1;
pos = (450,600);
ref = pixel;
scale = (0.5,1);
}
);
width = 500;
},
{
background = {
shapes = (
{
closed = 1;
nodes = (
(-250,0,l),
(-150,0,l),
(-150,500,l),
(-50,500,l),
(-50,600,l),
(-150,600,l),
(-150,700,l),
(-250,700,l)
);
},
{
closed = 1;
nodes = (
(-50,400,l),
(150,400,l),
(150,500,l),
(-50,500,l)
);
},
{
closed = 1;
nodes = (
(150,300,l),
(350,300,l),
(350,400,l),
(150,400,l)
);
},
{
closed = 1;
nodes = (
(350,200,l),
(550,200,l),
(550,300,l),
(350,300,l)
);
},
{
closed = 1;
nodes = (
(550,100,l),
(650,100,l),
(650,0,l),
(750,0,l),
(750,700,l),
(650,700,l),
(650,200,l),
(550,200,l)
);
}
);
};
hints = (
{
horizontal = 1;
place = (200, 100);
place = (200, 100);
type = Stem;
},
{
horizontal = 1;
place = (400, 100);
place = (400, 100);
type = Stem;
},
{
place = (200, 100);
place = (200, 100);
type = Stem;
},
{
place = (1100, 100);
place = (1100, 100);
type = Stem;
},
{
horizontal = 1;
place = (500, 100);
place = (500, 100);
type = Stem;
},
{
place = (400, 200);
place = (400, 200);
type = Stem;
},
{
horizontal = 1;
place = (300, 100);
place = (300, 100);
type = Stem;
},
{
place = (600, 200);
place = (600, 200);
type = Stem;
},
{
place = (800, 200);
place = (800, 200);
type = Stem;
},
{
horizontal = 1;
place = (100, 100);
place = (100, 100);
type = Stem;
}
);
layerId = "70DB4E10-A1B7-44B2-BFCF-9F046C279AC2";
shapes = (
{
alignment = -1;
pos = (0,900);
ref = pixel;
scale = (0.5,1);
},
{
alignment = -1;
pos = (0,500);
ref = pixel;
scale = (0.5,1);
},
{
alignment = -1;
pos = (0,400);
ref = pixel;
scale = (0.5,1);
},
{
alignment = -1;
pos = (0,300);
ref = pixel;
scale = (0.5,1);
},
{
alignment = -1;
pos = (0,200);
ref = pixel;
scale = (0.5,1);
},
{
alignment = -1;
pos = (0,100);
ref = pixel;
scale = (0.5,1);
},
{
alignment = -1;
pos = (0,-200);
ref = pixel;
scale = (0.5,1);
},
{
alignment = -1;
pos = (50,500);
ref = pixel;
scale = (0.5,1);
},
{
alignment = -1;
pos = (100,400);
ref = pixel;
scale = (0.5,1);
},
{
alignment = -1;
pos = (150,600);
ref = pixel;
scale = (0.5,1);
},
{
alignment = -1;
pos = (200,400);
ref = pixel;
scale = (0.5,1);
},
{
alignment = -1;
pos = (300,0);
ref = pixel;
scale = (0.5,1);
},
{
alignment = -1;
pos = (350,200);
ref = pixel;
scale = (0.5,1);
},
{
alignment = -1;
pos = (250,300);
ref = pixel;
scale = (0.5,1);
},
{
alignment = -1;
pos = (400,100);
ref = pixel;
scale = (0.5,1);
},
{
alignment = -1;
pos = (450,100);
ref = pixel;
scale = (0.5,1);
},
{
alignment = -1;
pos = (450,-100);
ref = pixel;
scale = (0.5,1);
},
{
alignment = -1;
pos = (450,200);
ref = pixel;
scale = (0.5,1);
},
{
alignment = -1;
pos = (450,300);
ref = pixel;
scale = (0.5,1);
},
{
alignment = -1;
pos = (450,400);
ref = pixel;
scale = (0.5,1);
},
{
alignment = -1;
pos = (450,500);
ref = pixel;
scale = (0.5,1);
},
{
alignment = -1;
pos = (450,700);
ref = pixel;
scale = (0.5,1);
}
);
width = 500;
}
);
note = N;
unicode = (78,110);
},
{
glyphname = O;
lastChange = "2024-04-05 14:54:07 +0000";
layers = (
{
background = {
shapes = (
{
closed = 1;
nodes = (
(-150,0,l),
(650,0,l),
(650,100,l),
(-150,100,l)
);
},
{
closed = 1;
nodes = (
(-250,100,l),
(-150,100,l),
(-150,600,l),
(-250,600,l)
);
},
{
closed = 1;
nodes = (
(-150,600,l),
(650,600,l),
(650,700,l),
(-150,700,l)
);
},
{
closed = 1;
nodes = (
(650,100,l),
(750,100,l),
(750,600,l),
(650,600,l)
);
}
);
};
hints = (
{
horizontal = 1;
place = (0, 100);
place = (0, 100);
type = Stem;
},
{
horizontal = 1;
place = (600, 100);
place = (600, 100);
type = Stem;
},
{
place = (200, 100);
place = (200, 100);
type = Stem;
},
{
place = (1100, 100);
place = (1100, 100);
type = Stem;
}
);
layerId = "AEA028FA-8432-430F-9508-2B91B3DB731A";
shapes = (
{
alignment = -1;
pos = (0,500);
ref = pixel;
scale = (0.5,1);
},
{
alignment = -1;
pos = (0,400);
ref = pixel;
scale = (0.5,1);
},
{
alignment = -1;
pos = (0,300);
ref = pixel;
scale = (0.5,1);
},
{
alignment = -1;
pos = (0,200);
ref = pixel;
scale = (0.5,1);
},
{
alignment = -1;
pos = (0,100);
ref = pixel;
scale = (0.5,1);
},
{
alignment = -1;
pos = (50,0);
ref = pixel;
scale = (0.5,1);
},
{
alignment = -1;
pos = (100,0);
ref = pixel;
scale = (0.5,1);
},
{
alignment = -1;
pos = (150,0);
ref = pixel;
scale = (0.5,1);
},
{
alignment = -1;
pos = (200,0);
ref = pixel;
scale = (0.5,1);
},
{
alignment = -1;
pos = (250,0);
ref = pixel;
scale = (0.5,1);
},
{
alignment = -1;
pos = (300,0);
ref = pixel;
scale = (0.5,1);
},
{
alignment = -1;
pos = (350,0);
ref = pixel;
scale = (0.5,1);
},
{
alignment = -1;
pos = (400,0);
ref = pixel;
scale = (0.5,1);
},
{
alignment = -1;
pos = (450,100);
ref = pixel;
scale = (0.5,1);
},
{
alignment = -1;
pos = (450,200);
ref = pixel;
scale = (0.5,1);
},
{
alignment = -1;
pos = (450,300);
ref = pixel;
scale = (0.5,1);
},
{
alignment = -1;
pos = (450,400);
ref = pixel;
scale = (0.5,1);
},
{
alignment = -1;
pos = (450,500);
ref = pixel;
scale = (0.5,1);
},
{
alignment = -1;
pos = (400,600);
ref = pixel;
scale = (0.5,1);
},
{
alignment = -1;
pos = (350,600);
ref = pixel;
scale = (0.5,1);
},
{
alignment = -1;
pos = (300,600);
ref = pixel;
scale = (0.5,1);
},
{
alignment = -1;
pos = (250,600);
ref = pixel;
scale = (0.5,1);
},
{
alignment = -1;
pos = (200,600);
ref = pixel;
scale = (0.5,1);
},
{
alignment = -1;
pos = (150,600);
ref = pixel;
scale = (0.5,1);
},
{
alignment = -1;
pos = (100,600);
ref = pixel;
scale = (0.5,1);
},
{
alignment = -1;
pos = (50,600);
ref = pixel;
scale = (0.5,1);
}
);
width = 500;
},
{
background = {
shapes = (
{
closed = 1;
nodes = (
(-150,0,l),
(650,0,l),
(650,100,l),
(-150,100,l)
);
},
{
closed = 1;
nodes = (
(-250,100,l),
(-150,100,l),
(-150,600,l),
(-250,600,l)
);
},
{
closed = 1;
nodes = (
(-150,600,l),
(650,600,l),
(650,700,l),
(-150,700,l)
);
},
{
closed = 1;
nodes = (
(650,100,l),
(750,100,l),
(750,600,l),
(650,600,l)
);
}
);
};
hints = (
{
horizontal = 1;
place = (0, 100);
place = (0, 100);
type = Stem;
},
{
horizontal = 1;
place = (600, 100);
place = (600, 100);
type = Stem;
},
{
place = (200, 100);
place = (200, 100);
type = Stem;
},
{
place = (1100, 100);
place = (1100, 100);
type = Stem;
}
);
layerId = "70DB4E10-A1B7-44B2-BFCF-9F046C279AC2";
shapes = (
{
alignment = -1;
pos = (0,500);
ref = pixel;
scale = (0.5,1);
},
{
alignment = -1;
pos = (0,400);
ref = pixel;
scale = (0.5,1);
},
{
alignment = -1;
pos = (0,300);
ref = pixel;
scale = (0.5,1);
},
{
alignment = -1;
pos = (0,200);
ref = pixel;
scale = (0.5,1);
},
{
alignment = -1;
pos = (0,100);
ref = pixel;
scale = (0.5,1);
},
{
alignment = -1;
pos = (50,0);
ref = pixel;
scale = (0.5,1);
},
{
alignment = -1;
pos = (100,-100);
ref = pixel;
scale = (0.5,1);
},
{
alignment = -1;
pos = (150,0);
ref = pixel;
scale = (0.5,1);
},
{
alignment = -1;
pos = (200,100);
ref = pixel;
scale = (0.5,1);
},
{
alignment = -1;
pos = (250,200);
ref = pixel;
scale = (0.5,1);
},
{
alignment = -1;
pos = (300,0);
ref = pixel;
scale = (0.5,1);
},
{
alignment = -1;
pos = (350,-200);
ref = pixel;
scale = (0.5,1);
},
{
alignment = -1;
pos = (400,0);
ref = pixel;
scale = (0.5,1);
},
{
alignment = -1;
pos = (450,100);
ref = pixel;
scale = (0.5,1);
},
{
alignment = -1;
pos = (450,200);
ref = pixel;
scale = (0.5,1);
},
{
alignment = -1;
pos = (450,300);
ref = pixel;
scale = (0.5,1);
},
{
alignment = -1;
pos = (450,400);
ref = pixel;
scale = (0.5,1);
},
{
alignment = -1;
pos = (450,500);
ref = pixel;
scale = (0.5,1);
},
{
alignment = -1;
pos = (400,600);
ref = pixel;
scale = (0.5,1);
},
{
alignment = -1;
pos = (350,500);
ref = pixel;
scale = (0.5,1);
},
{
alignment = -1;
pos = (300,600);
ref = pixel;
scale = (0.5,1);
},
{
alignment = -1;
pos = (250,800);
ref = pixel;
scale = (0.5,1);
},
{
alignment = -1;
pos = (200,600);
ref = pixel;
scale = (0.5,1);
},
{
alignment = -1;
pos = (150,400);
ref = pixel;
scale = (0.5,1);
},
{
alignment = -1;
pos = (100,700);
ref = pixel;
scale = (0.5,1);
},
{
alignment = -1;
pos = (50,600);
ref = pixel;
scale = (0.5,1);
}
);
width = 500;
}
);
note = O;
unicode = (79,111);
},
{
glyphname = P;
lastChange = "2024-04-05 14:54:07 +0000";
layers = (
{
background = {
shapes = (
{
closed = 1;
nodes = (
(-250,0,l),
(-150,0,l),
(-150,200,l),
(650,200,l),
(650,300,l),
(-150,300,l),
(-150,600,l),
(650,600,l),
(650,700,l),
(-250,700,l)
);
},
{
closed = 1;
nodes = (
(650,300,l),
(750,300,l),
(750,600,l),
(650,600,l)
);
}
);
};
hints = (
{
horizontal = 1;
place = (200, 100);
place = (200, 100);
type = Stem;
},
{
horizontal = 1;
place = (600, 100);
place = (600, 100);
type = Stem;
},
{
place = (200, 100);
place = (200, 100);
type = Stem;
},
{
place = (1100, 100);
place = (1100, 100);
type = Stem;
}
);
layerId = "AEA028FA-8432-430F-9508-2B91B3DB731A";
shapes = (
{
alignment = -1;
pos = (0,600);
ref = pixel;
scale = (0.5,1);
},
{
alignment = -1;
pos = (0,500);
ref = pixel;
scale = (0.5,1);
},
{
alignment = -1;
pos = (0,400);
ref = pixel;
scale = (0.5,1);
},
{
alignment = -1;
pos = (0,300);
ref = pixel;
scale = (0.5,1);
},
{
alignment = -1;
pos = (0,200);
ref = pixel;
scale = (0.5,1);
},
{
alignment = -1;
pos = (0,100);
ref = pixel;
scale = (0.5,1);
},
{
alignment = -1;
ref = pixel;
scale = (0.5,1);
},
{
alignment = -1;
pos = (50,200);
ref = pixel;
scale = (0.5,1);
},
{
alignment = -1;
pos = (100,200);
ref = pixel;
scale = (0.5,1);
},
{
alignment = -1;
pos = (150,200);
ref = pixel;
scale = (0.5,1);
},
{
alignment = -1;
pos = (200,200);
ref = pixel;
scale = (0.5,1);
},
{
alignment = -1;
pos = (250,200);
ref = pixel;
scale = (0.5,1);
},
{
alignment = -1;
pos = (300,200);
ref = pixel;
scale = (0.5,1);
},
{
alignment = -1;
pos = (350,200);
ref = pixel;
scale = (0.5,1);
},
{
alignment = -1;
pos = (400,200);
ref = pixel;
scale = (0.5,1);
},
{
alignment = -1;
pos = (450,300);
ref = pixel;
scale = (0.5,1);
},
{
alignment = -1;
pos = (450,400);
ref = pixel;
scale = (0.5,1);
},
{
alignment = -1;
pos = (450,500);
ref = pixel;
scale = (0.5,1);
},
{
alignment = -1;
pos = (400,600);
ref = pixel;
scale = (0.5,1);
},
{
alignment = -1;
pos = (350,600);
ref = pixel;
scale = (0.5,1);
},
{
alignment = -1;
pos = (300,600);
ref = pixel;
scale = (0.5,1);
},
{
alignment = -1;
pos = (250,600);
ref = pixel;
scale = (0.5,1);
},
{
alignment = -1;
pos = (200,600);
ref = pixel;
scale = (0.5,1);
},
{
alignment = -1;
pos = (150,600);
ref = pixel;
scale = (0.5,1);
},
{
alignment = -1;
pos = (100,600);
ref = pixel;
scale = (0.5,1);
},
{
alignment = -1;
pos = (50,600);
ref = pixel;
scale = (0.5,1);
}
);
width = 500;
},
{
background = {
shapes = (
{
closed = 1;
nodes = (
(-250,0,l),
(-150,0,l),
(-150,200,l),
(650,200,l),
(650,300,l),
(-150,300,l),
(-150,600,l),
(650,600,l),
(650,700,l),
(-250,700,l)
);
},
{
closed = 1;
nodes = (
(650,300,l),
(750,300,l),
(750,600,l),
(650,600,l)
);
}
);
};
hints = (
{
horizontal = 1;
place = (200, 100);
place = (200, 100);
type = Stem;
},
{
horizontal = 1;
place = (600, 100);
place = (600, 100);
type = Stem;
},
{
place = (200, 100);
place = (200, 100);
type = Stem;
},
{
place = (1100, 100);
place = (1100, 100);
type = Stem;
}
);
layerId = "70DB4E10-A1B7-44B2-BFCF-9F046C279AC2";
shapes = (
{
alignment = -1;
pos = (0,600);
ref = pixel;
scale = (0.5,1);
},
{
alignment = -1;
pos = (0,500);
ref = pixel;
scale = (0.5,1);
},
{
alignment = -1;
pos = (0,400);
ref = pixel;
scale = (0.5,1);
},
{
alignment = -1;
pos = (0,300);
ref = pixel;
scale = (0.5,1);
},
{
alignment = -1;
pos = (0,200);
ref = pixel;
scale = (0.5,1);
},
{
alignment = -1;
pos = (0,100);
ref = pixel;
scale = (0.5,1);
},
{
alignment = -1;
pos = (0,-200);
ref = pixel;
scale = (0.5,1);
},
{
alignment = -1;
pos = (50,200);
ref = pixel;
scale = (0.5,1);
},
{
alignment = -1;
pos = (100,0);
ref = pixel;
scale = (0.5,1);
},
{
alignment = -1;
pos = (150,200);
ref = pixel;
scale = (0.5,1);
},
{
alignment = -1;
pos = (200,0);
ref = pixel;
scale = (0.5,1);
},
{
alignment = -1;
pos = (250,300);
ref = pixel;
scale = (0.5,1);
},
{
alignment = -1;
pos = (300,100);
ref = pixel;
scale = (0.5,1);
},
{
alignment = -1;
pos = (350,200);
ref = pixel;
scale = (0.5,1);
},
{
alignment = -1;
pos = (400,100);
ref = pixel;
scale = (0.5,1);
},
{
alignment = -1;
pos = (450,300);
ref = pixel;
scale = (0.5,1);
},
{
alignment = -1;
pos = (450,400);
ref = pixel;
scale = (0.5,1);
},
{
alignment = -1;
pos = (450,500);
ref = pixel;
scale = (0.5,1);
},
{
alignment = -1;
pos = (400,600);
ref = pixel;
scale = (0.5,1);
},
{
alignment = -1;
pos = (350,800);
ref = pixel;
scale = (0.5,1);
},
{
alignment = -1;
pos = (300,600);
ref = pixel;
scale = (0.5,1);
},
{
alignment = -1;
pos = (250,500);
ref = pixel;
scale = (0.5,1);
},
{
alignment = -1;
pos = (200,700);
ref = pixel;
scale = (0.5,1);
},
{
alignment = -1;
pos = (150,900);
ref = pixel;
scale = (0.5,1);
},
{
alignment = -1;
pos = (100,600);
ref = pixel;
scale = (0.5,1);
},
{
alignment = -1;
pos = (50,800);
ref = pixel;
scale = (0.5,1);
}
);
width = 500;
}
);
note = P;
unicode = (80,112);
},
{
glyphname = Q;
lastChange = "2024-04-05 14:54:07 +0000";
layers = (
{
background = {
shapes = (
{
closed = 1;
nodes = (
(-250,100,l),
(-150,100,l),
(-150,600,l),
(-250,600,l)
);
},
{
closed = 1;
nodes = (
(-150,0,l),
(550,0,l),
(550,100,l),
(-150,100,l)
);
},
{
closed = 1;
nodes = (
(-150,600,l),
(650,600,l),
(650,700,l),
(-150,700,l)
);
},
{
closed = 1;
nodes = (
(450,200,l),
(550,200,l),
(550,300,l),
(450,300,l)
);
},
{
closed = 1;
nodes = (
(550,100,l),
(650,100,l),
(650,200,l),
(550,200,l)
);
},
{
closed = 1;
nodes = (
(650,0,l),
(750,0,l),
(750,100,l),
(650,100,l)
);
},
{
closed = 1;
nodes = (
(650,200,l),
(750,200,l),
(750,600,l),
(650,600,l)
);
}
);
};
hints = (
{
horizontal = 1;
place = (0, 100);
place = (0, 100);
type = Stem;
},
{
horizontal = 1;
place = (200, 100);
place = (200, 100);
type = Stem;
},
{
horizontal = 1;
place = (600, 100);
place = (600, 100);
type = Stem;
},
{
place = (200, 100);
place = (200, 100);
type = Stem;
},
{
place = (900, 100);
place = (900, 100);
type = Stem;
},
{
place = (1100, 100);
place = (1100, 100);
type = Stem;
},
{
horizontal = 1;
place = (100, 100);
place = (100, 100);
type = Stem;
},
{
place = (1000, 100);
place = (1000, 100);
type = Stem;
}
);
layerId = "AEA028FA-8432-430F-9508-2B91B3DB731A";
shapes = (
{
alignment = -1;
pos = (50,600);
ref = pixel;
scale = (0.5,1);
},
{
alignment = -1;
pos = (100,600);
ref = pixel;
scale = (0.5,1);
},
{
alignment = -1;
pos = (150,600);
ref = pixel;
scale = (0.5,1);
},
{
alignment = -1;
pos = (200,600);
ref = pixel;
scale = (0.5,1);
},
{
alignment = -1;
pos = (250,600);
ref = pixel;
scale = (0.5,1);
},
{
alignment = -1;
pos = (300,600);
ref = pixel;
scale = (0.5,1);
},
{
alignment = -1;
pos = (350,600);
ref = pixel;
scale = (0.5,1);
},
{
alignment = -1;
pos = (400,600);
ref = pixel;
scale = (0.5,1);
},
{
alignment = -1;
pos = (450,500);
ref = pixel;
scale = (0.5,1);
},
{
alignment = -1;
pos = (450,400);
ref = pixel;
scale = (0.5,1);
},
{
alignment = -1;
pos = (450,300);
ref = pixel;
scale = (0.5,1);
},
{
alignment = -1;
pos = (450,200);
ref = pixel;
scale = (0.5,1);
},
{
alignment = -1;
pos = (400,100);
ref = pixel;
scale = (0.5,1);
},
{
alignment = -1;
pos = (350,200);
ref = pixel;
scale = (0.5,1);
},
{
alignment = -1;
pos = (450,0);
ref = pixel;
scale = (0.5,1);
},
{
alignment = -1;
pos = (350,0);
ref = pixel;
scale = (0.5,1);
},
{
alignment = -1;
pos = (300,0);
ref = pixel;
scale = (0.5,1);
},
{
alignment = -1;
pos = (250,0);
ref = pixel;
scale = (0.5,1);
},
{
alignment = -1;
pos = (200,0);
ref = pixel;
scale = (0.5,1);
},
{
alignment = -1;
pos = (150,0);
ref = pixel;
scale = (0.5,1);
},
{
alignment = -1;
pos = (100,0);
ref = pixel;
scale = (0.5,1);
},
{
alignment = -1;
pos = (50,0);
ref = pixel;
scale = (0.5,1);
},
{
alignment = -1;
pos = (0,400);
ref = pixel;
scale = (0.5,1);
},
{
alignment = -1;
pos = (0,300);
ref = pixel;
scale = (0.5,1);
},
{
alignment = -1;
pos = (0,200);
ref = pixel;
scale = (0.5,1);
},
{
alignment = -1;
pos = (0,100);
ref = pixel;
scale = (0.5,1);
},
{
alignment = -1;
pos = (0,500);
ref = pixel;
scale = (0.5,1);
}
);
width = 500;
},
{
background = {
shapes = (
{
closed = 1;
nodes = (
(-250,100,l),
(-150,100,l),
(-150,600,l),
(-250,600,l)
);
},
{
closed = 1;
nodes = (
(-150,0,l),
(550,0,l),
(550,100,l),
(-150,100,l)
);
},
{
closed = 1;
nodes = (
(-150,600,l),
(650,600,l),
(650,700,l),
(-150,700,l)
);
},
{
closed = 1;
nodes = (
(450,200,l),
(550,200,l),
(550,300,l),
(450,300,l)
);
},
{
closed = 1;
nodes = (
(550,100,l),
(650,100,l),
(650,200,l),
(550,200,l)
);
},
{
closed = 1;
nodes = (
(650,0,l),
(750,0,l),
(750,100,l),
(650,100,l)
);
},
{
closed = 1;
nodes = (
(650,200,l),
(750,200,l),
(750,600,l),
(650,600,l)
);
}
);
};
hints = (
{
horizontal = 1;
place = (0, 100);
place = (0, 100);
type = Stem;
},
{
horizontal = 1;
place = (200, 100);
place = (200, 100);
type = Stem;
},
{
horizontal = 1;
place = (600, 100);
place = (600, 100);
type = Stem;
},
{
place = (200, 100);
place = (200, 100);
type = Stem;
},
{
place = (900, 100);
place = (900, 100);
type = Stem;
},
{
place = (1100, 100);
place = (1100, 100);
type = Stem;
},
{
horizontal = 1;
place = (100, 100);
place = (100, 100);
type = Stem;
},
{
place = (1000, 100);
place = (1000, 100);
type = Stem;
}
);
layerId = "70DB4E10-A1B7-44B2-BFCF-9F046C279AC2";
shapes = (
{
alignment = -1;
pos = (50,600);
ref = pixel;
scale = (0.5,1);
},
{
alignment = -1;
pos = (100,900);
ref = pixel;
scale = (0.5,1);
},
{
alignment = -1;
pos = (150,500);
ref = pixel;
scale = (0.5,1);
},
{
alignment = -1;
pos = (200,600);
ref = pixel;
scale = (0.5,1);
},
{
alignment = -1;
pos = (250,700);
ref = pixel;
scale = (0.5,1);
},
{
alignment = -1;
pos = (300,400);
ref = pixel;
scale = (0.5,1);
},
{
alignment = -1;
pos = (350,600);
ref = pixel;
scale = (0.5,1);
},
{
alignment = -1;
pos = (400,800);
ref = pixel;
scale = (0.5,1);
},
{
alignment = -1;
pos = (450,500);
ref = pixel;
scale = (0.5,1);
},
{
alignment = -1;
pos = (450,400);
ref = pixel;
scale = (0.5,1);
},
{
alignment = -1;
pos = (450,300);
ref = pixel;
scale = (0.5,1);
},
{
alignment = -1;
pos = (450,200);
ref = pixel;
scale = (0.5,1);
},
{
alignment = -1;
pos = (400,-100);
ref = pixel;
scale = (0.5,1);
},
{
alignment = -1;
pos = (350,300);
ref = pixel;
scale = (0.5,1);
},
{
alignment = -1;
pos = (450,0);
ref = pixel;
scale = (0.5,1);
},
{
alignment = -1;
pos = (350,0);
ref = pixel;
scale = (0.5,1);
},
{
alignment = -1;
pos = (300,0);
ref = pixel;
scale = (0.5,1);
},
{
alignment = -1;
pos = (250,-200);
ref = pixel;
scale = (0.5,1);
},
{
alignment = -1;
pos = (200,0);
ref = pixel;
scale = (0.5,1);
},
{
alignment = -1;
pos = (150,-300);
ref = pixel;
scale = (0.5,1);
},
{
alignment = -1;
pos = (100,-100);
ref = pixel;
scale = (0.5,1);
},
{
alignment = -1;
pos = (50,0);
ref = pixel;
scale = (0.5,1);
},
{
alignment = -1;
pos = (0,400);
ref = pixel;
scale = (0.5,1);
},
{
alignment = -1;
pos = (0,300);
ref = pixel;
scale = (0.5,1);
},
{
alignment = -1;
pos = (0,200);
ref = pixel;
scale = (0.5,1);
},
{
alignment = -1;
pos = (0,100);
ref = pixel;
scale = (0.5,1);
},
{
alignment = -1;
pos = (0,700);
ref = pixel;
scale = (0.5,1);
}
);
width = 500;
}
);
note = Q;
unicode = (81,113);
},
{
glyphname = R;
lastChange = "2024-04-05 14:54:07 +0000";
layers = (
{
background = {
shapes = (
{
closed = 1;
nodes = (
(-250,0,l),
(-150,0,l),
(-150,300,l),
(450,300,l),
(450,200,l),
(550,200,l),
(550,300,l),
(650,300,l),
(650,400,l),
(-150,400,l),
(-150,600,l),
(650,600,l),
(650,700,l),
(-250,700,l)
);
},
{
closed = 1;
nodes = (
(550,100,l),
(650,100,l),
(650,200,l),
(550,200,l)
);
},
{
closed = 1;
nodes = (
(650,0,l),
(750,0,l),
(750,100,l),
(650,100,l)
);
},
{
closed = 1;
nodes = (
(650,400,l),
(750,400,l),
(750,600,l),
(650,600,l)
);
}
);
};
hints = (
{
horizontal = 1;
place = (100, 100);
place = (100, 100);
type = Stem;
},
{
horizontal = 1;
place = (300, 100);
place = (300, 100);
type = Stem;
},
{
horizontal = 1;
place = (600, 100);
place = (600, 100);
type = Stem;
},
{
place = (200, 100);
place = (200, 100);
type = Stem;
},
{
place = (900, 100);
place = (900, 100);
type = Stem;
},
{
place = (1100, 100);
place = (1100, 100);
type = Stem;
},
{
place = (1000, 100);
place = (1000, 100);
type = Stem;
},
{
horizontal = 1;
place = (0, 100);
place = (0, 100);
type = Stem;
},
{
horizontal = 1;
place = (400, 200);
place = (400, 200);
type = Stem;
}
);
layerId = "AEA028FA-8432-430F-9508-2B91B3DB731A";
shapes = (
{
alignment = -1;
pos = (0,600);
ref = pixel;
scale = (0.5,1);
},
{
alignment = -1;
pos = (0,500);
ref = pixel;
scale = (0.5,1);
},
{
alignment = -1;
pos = (0,400);
ref = pixel;
scale = (0.5,1);
},
{
alignment = -1;
pos = (0,300);
ref = pixel;
scale = (0.5,1);
},
{
alignment = -1;
pos = (0,200);
ref = pixel;
scale = (0.5,1);
},
{
alignment = -1;
pos = (0,100);
ref = pixel;
scale = (0.5,1);
},
{
alignment = -1;
ref = pixel;
scale = (0.5,1);
},
{
alignment = -1;
pos = (50,300);
ref = pixel;
scale = (0.5,1);
},
{
alignment = -1;
pos = (100,300);
ref = pixel;
scale = (0.5,1);
},
{
alignment = -1;
pos = (150,300);
ref = pixel;
scale = (0.5,1);
},
{
alignment = -1;
pos = (200,300);
ref = pixel;
scale = (0.5,1);
},
{
alignment = -1;
pos = (250,300);
ref = pixel;
scale = (0.5,1);
},
{
alignment = -1;
pos = (300,300);
ref = pixel;
scale = (0.5,1);
},
{
alignment = -1;
pos = (350,300);
ref = pixel;
scale = (0.5,1);
},
{
alignment = -1;
pos = (400,300);
ref = pixel;
scale = (0.5,1);
},
{
alignment = -1;
pos = (350,200);
ref = pixel;
scale = (0.5,1);
},
{
alignment = -1;
pos = (400,100);
ref = pixel;
scale = (0.5,1);
},
{
alignment = -1;
pos = (450,0);
ref = pixel;
scale = (0.5,1);
},
{
alignment = -1;
pos = (450,400);
ref = pixel;
scale = (0.5,1);
},
{
alignment = -1;
pos = (450,500);
ref = pixel;
scale = (0.5,1);
},
{
alignment = -1;
pos = (400,600);
ref = pixel;
scale = (0.5,1);
},
{
alignment = -1;
pos = (350,600);
ref = pixel;
scale = (0.5,1);
},
{
alignment = -1;
pos = (300,600);
ref = pixel;
scale = (0.5,1);
},
{
alignment = -1;
pos = (250,600);
ref = pixel;
scale = (0.5,1);
},
{
alignment = -1;
pos = (200,600);
ref = pixel;
scale = (0.5,1);
},
{
alignment = -1;
pos = (150,600);
ref = pixel;
scale = (0.5,1);
},
{
alignment = -1;
pos = (100,600);
ref = pixel;
scale = (0.5,1);
},
{
alignment = -1;
pos = (50,600);
ref = pixel;
scale = (0.5,1);
}
);
width = 500;
},
{
layerId = "70DB4E10-A1B7-44B2-BFCF-9F046C279AC2";
shapes = (
{
alignment = -1;
pos = (0,600);
ref = pixel;
scale = (0.5,1);
},
{
alignment = -1;
pos = (0,500);
ref = pixel;
scale = (0.5,1);
},
{
alignment = -1;
pos = (0,400);
ref = pixel;
scale = (0.5,1);
},
{
alignment = -1;
pos = (0,300);
ref = pixel;
scale = (0.5,1);
},
{
alignment = -1;
pos = (0,200);
ref = pixel;
scale = (0.5,1);
},
{
alignment = -1;
pos = (0,100);
ref = pixel;
scale = (0.5,1);
},
{
alignment = -1;
ref = pixel;
scale = (0.5,1);
},
{
alignment = -1;
pos = (50,100);
ref = pixel;
scale = (0.5,1);
},
{
alignment = -1;
pos = (100,300);
ref = pixel;
scale = (0.5,1);
},
{
alignment = -1;
pos = (150,300);
ref = pixel;
scale = (0.5,1);
},
{
alignment = -1;
pos = (200,200);
ref = pixel;
scale = (0.5,1);
},
{
alignment = -1;
pos = (250,300);
ref = pixel;
scale = (0.5,1);
},
{
alignment = -1;
pos = (300,500);
ref = pixel;
scale = (0.5,1);
},
{
alignment = -1;
pos = (350,300);
ref = pixel;
scale = (0.5,1);
},
{
alignment = -1;
pos = (400,300);
ref = pixel;
scale = (0.5,1);
},
{
alignment = -1;
pos = (350,200);
ref = pixel;
scale = (0.5,1);
},
{
alignment = -1;
pos = (400,100);
ref = pixel;
scale = (0.5,1);
},
{
alignment = -1;
pos = (450,0);
ref = pixel;
scale = (0.5,1);
},
{
alignment = -1;
pos = (450,400);
ref = pixel;
scale = (0.5,1);
},
{
alignment = -1;
pos = (450,500);
ref = pixel;
scale = (0.5,1);
},
{
alignment = -1;
pos = (400,700);
ref = pixel;
scale = (0.5,1);
},
{
alignment = -1;
pos = (350,600);
ref = pixel;
scale = (0.5,1);
},
{
alignment = -1;
pos = (300,600);
ref = pixel;
scale = (0.5,1);
},
{
alignment = -1;
pos = (250,700);
ref = pixel;
scale = (0.5,1);
},
{
alignment = -1;
pos = (200,600);
ref = pixel;
scale = (0.5,1);
},
{
alignment = -1;
pos = (150,600);
ref = pixel;
scale = (0.5,1);
},
{
alignment = -1;
pos = (100,800);
ref = pixel;
scale = (0.5,1);
},
{
alignment = -1;
pos = (50,600);
ref = pixel;
scale = (0.5,1);
}
);
width = 500;
}
);
note = R;
unicode = (82,114);
},
{
glyphname = S;
lastChange = "2024-04-05 14:54:07 +0000";
layers = (
{
background = {
shapes = (
{
closed = 1;
nodes = (
(-250,0,l),
(650,0,l),
(650,100,l),
(-250,100,l)
);
},
{
closed = 1;
nodes = (
(-250,400,l),
(-150,400,l),
(-150,600,l),
(-250,600,l)
);
},
{
closed = 1;
nodes = (
(-150,300,l),
(650,300,l),
(650,400,l),
(-150,400,l)
);
},
{
closed = 1;
nodes = (
(-150,600,l),
(750,600,l),
(750,700,l),
(-150,700,l)
);
},
{
closed = 1;
nodes = (
(650,100,l),
(750,100,l),
(750,300,l),
(650,300,l)
);
}
);
};
hints = (
{
horizontal = 1;
place = (0, 100);
place = (0, 100);
type = Stem;
},
{
horizontal = 1;
place = (300, 100);
place = (300, 100);
type = Stem;
},
{
horizontal = 1;
place = (600, 100);
place = (600, 100);
type = Stem;
},
{
place = (200, 100);
place = (200, 100);
type = Stem;
},
{
place = (1100, 100);
place = (1100, 100);
type = Stem;
},
{
horizontal = 1;
place = (400, 200);
place = (400, 200);
type = Stem;
},
{
horizontal = 1;
place = (100, 200);
place = (100, 200);
type = Stem;
}
);
layerId = "AEA028FA-8432-430F-9508-2B91B3DB731A";
shapes = (
{
alignment = -1;
pos = (450,600);
ref = pixel;
scale = (0.5,1);
},
{
alignment = -1;
pos = (400,600);
ref = pixel;
scale = (0.5,1);
},
{
alignment = -1;
pos = (350,600);
ref = pixel;
scale = (0.5,1);
},
{
alignment = -1;
pos = (300,600);
ref = pixel;
scale = (0.5,1);
},
{
alignment = -1;
pos = (250,600);
ref = pixel;
scale = (0.5,1);
},
{
alignment = -1;
pos = (200,600);
ref = pixel;
scale = (0.5,1);
},
{
alignment = -1;
pos = (150,600);
ref = pixel;
scale = (0.5,1);
},
{
alignment = -1;
pos = (100,600);
ref = pixel;
scale = (0.5,1);
},
{
alignment = -1;
pos = (50,600);
ref = pixel;
scale = (0.5,1);
},
{
alignment = -1;
pos = (0,500);
ref = pixel;
scale = (0.5,1);
},
{
alignment = -1;
pos = (0,400);
ref = pixel;
scale = (0.5,1);
},
{
alignment = -1;
pos = (50,300);
ref = pixel;
scale = (0.5,1);
},
{
alignment = -1;
pos = (100,300);
ref = pixel;
scale = (0.5,1);
},
{
alignment = -1;
pos = (150,300);
ref = pixel;
scale = (0.5,1);
},
{
alignment = -1;
pos = (200,300);
ref = pixel;
scale = (0.5,1);
},
{
alignment = -1;
pos = (250,300);
ref = pixel;
scale = (0.5,1);
},
{
alignment = -1;
pos = (300,300);
ref = pixel;
scale = (0.5,1);
},
{
alignment = -1;
pos = (350,300);
ref = pixel;
scale = (0.5,1);
},
{
alignment = -1;
pos = (400,300);
ref = pixel;
scale = (0.5,1);
},
{
alignment = -1;
pos = (450,200);
ref = pixel;
scale = (0.5,1);
},
{
alignment = -1;
pos = (450,100);
ref = pixel;
scale = (0.5,1);
},
{
alignment = -1;
pos = (400,0);
ref = pixel;
scale = (0.5,1);
},
{
alignment = -1;
pos = (350,0);
ref = pixel;
scale = (0.5,1);
},
{
alignment = -1;
pos = (300,0);
ref = pixel;
scale = (0.5,1);
},
{
alignment = -1;
pos = (250,0);
ref = pixel;
scale = (0.5,1);
},
{
alignment = -1;
pos = (200,0);
ref = pixel;
scale = (0.5,1);
},
{
alignment = -1;
pos = (150,0);
ref = pixel;
scale = (0.5,1);
},
{
alignment = -1;
pos = (100,0);
ref = pixel;
scale = (0.5,1);
},
{
alignment = -1;
pos = (50,0);
ref = pixel;
scale = (0.5,1);
},
{
alignment = -1;
ref = pixel;
scale = (0.5,1);
}
);
width = 500;
},
{
background = {
shapes = (
{
closed = 1;
nodes = (
(-250,0,l),
(650,0,l),
(650,100,l),
(-250,100,l)
);
},
{
closed = 1;
nodes = (
(-250,400,l),
(-150,400,l),
(-150,600,l),
(-250,600,l)
);
},
{
closed = 1;
nodes = (
(-150,300,l),
(650,300,l),
(650,400,l),
(-150,400,l)
);
},
{
closed = 1;
nodes = (
(-150,600,l),
(750,600,l),
(750,700,l),
(-150,700,l)
);
},
{
closed = 1;
nodes = (
(650,100,l),
(750,100,l),
(750,300,l),
(650,300,l)
);
}
);
};
hints = (
{
horizontal = 1;
place = (0, 100);
place = (0, 100);
type = Stem;
},
{
horizontal = 1;
place = (300, 100);
place = (300, 100);
type = Stem;
},
{
horizontal = 1;
place = (600, 100);
place = (600, 100);
type = Stem;
},
{
place = (200, 100);
place = (200, 100);
type = Stem;
},
{
place = (1100, 100);
place = (1100, 100);
type = Stem;
},
{
horizontal = 1;
place = (400, 200);
place = (400, 200);
type = Stem;
},
{
horizontal = 1;
place = (100, 200);
place = (100, 200);
type = Stem;
}
);
layerId = "70DB4E10-A1B7-44B2-BFCF-9F046C279AC2";
shapes = (
{
alignment = -1;
pos = (450,600);
ref = pixel;
scale = (0.5,1);
},
{
alignment = -1;
pos = (400,600);
ref = pixel;
scale = (0.5,1);
},
{
alignment = -1;
pos = (350,600);
ref = pixel;
scale = (0.5,1);
},
{
alignment = -1;
pos = (300,800);
ref = pixel;
scale = (0.5,1);
},
{
alignment = -1;
pos = (250,600);
ref = pixel;
scale = (0.5,1);
},
{
alignment = -1;
pos = (200,700);
ref = pixel;
scale = (0.5,1);
},
{
alignment = -1;
pos = (150,600);
ref = pixel;
scale = (0.5,1);
},
{
alignment = -1;
pos = (100,800);
ref = pixel;
scale = (0.5,1);
},
{
alignment = -1;
pos = (50,600);
ref = pixel;
scale = (0.5,1);
},
{
alignment = -1;
pos = (0,500);
ref = pixel;
scale = (0.5,1);
},
{
alignment = -1;
pos = (0,400);
ref = pixel;
scale = (0.5,1);
},
{
alignment = -1;
pos = (50,300);
ref = pixel;
scale = (0.5,1);
},
{
alignment = -1;
pos = (100,300);
ref = pixel;
scale = (0.5,1);
},
{
alignment = -1;
pos = (150,400);
ref = pixel;
scale = (0.5,1);
},
{
alignment = -1;
pos = (200,300);
ref = pixel;
scale = (0.5,1);
},
{
alignment = -1;
pos = (250,100);
ref = pixel;
scale = (0.5,1);
},
{
alignment = -1;
pos = (300,300);
ref = pixel;
scale = (0.5,1);
},
{
alignment = -1;
pos = (350,200);
ref = pixel;
scale = (0.5,1);
},
{
alignment = -1;
pos = (400,300);
ref = pixel;
scale = (0.5,1);
},
{
alignment = -1;
pos = (450,200);
ref = pixel;
scale = (0.5,1);
},
{
alignment = -1;
pos = (450,100);
ref = pixel;
scale = (0.5,1);
},
{
alignment = -1;
pos = (400,0);
ref = pixel;
scale = (0.5,1);
},
{
alignment = -1;
pos = (350,0);
ref = pixel;
scale = (0.5,1);
},
{
alignment = -1;
pos = (300,0);
ref = pixel;
scale = (0.5,1);
},
{
alignment = -1;
pos = (250,0);
ref = pixel;
scale = (0.5,1);
},
{
alignment = -1;
pos = (200,-200);
ref = pixel;
scale = (0.5,1);
},
{
alignment = -1;
pos = (150,0);
ref = pixel;
scale = (0.5,1);
},
{
alignment = -1;
pos = (100,-200);
ref = pixel;
scale = (0.5,1);
},
{
alignment = -1;
pos = (50,0);
ref = pixel;
scale = (0.5,1);
},
{
alignment = -1;
ref = pixel;
scale = (0.5,1);
}
);
width = 500;
}
);
note = S;
unicode = (83,115);
},
{
glyphname = T;
lastChange = "2024-04-05 14:54:07 +0000";
layers = (
{
background = {
shapes = (
{
closed = 1;
nodes = (
(150,0,l),
(250,0,l),
(250,600,l),
(750,600,l),
(750,700,l),
(-250,700,l),
(-250,600,l),
(150,600,l)
);
}
);
};
hints = (
{
horizontal = 1;
place = (600, 100);
place = (600, 100);
type = Stem;
},
{
place = (600, 100);
place = (600, 100);
type = Stem;
}
);
layerId = "AEA028FA-8432-430F-9508-2B91B3DB731A";
shapes = (
{
alignment = -1;
pos = (0,600);
ref = pixel;
scale = (0.5,1);
},
{
alignment = -1;
pos = (50,600);
ref = pixel;
scale = (0.5,1);
},
{
alignment = -1;
pos = (100,600);
ref = pixel;
scale = (0.5,1);
},
{
alignment = -1;
pos = (150,600);
ref = pixel;
scale = (0.5,1);
},
{
alignment = -1;
pos = (200,600);
ref = pixel;
scale = (0.5,1);
},
{
alignment = -1;
pos = (250,600);
ref = pixel;
scale = (0.5,1);
},
{
alignment = -1;
pos = (300,600);
ref = pixel;
scale = (0.5,1);
},
{
alignment = -1;
pos = (350,600);
ref = pixel;
scale = (0.5,1);
},
{
alignment = -1;
pos = (400,600);
ref = pixel;
scale = (0.5,1);
},
{
alignment = -1;
pos = (450,600);
ref = pixel;
scale = (0.5,1);
},
{
alignment = -1;
pos = (200,500);
ref = pixel;
scale = (0.5,1);
},
{
alignment = -1;
pos = (200,400);
ref = pixel;
scale = (0.5,1);
},
{
alignment = -1;
pos = (200,300);
ref = pixel;
scale = (0.5,1);
},
{
alignment = -1;
pos = (200,200);
ref = pixel;
scale = (0.5,1);
},
{
alignment = -1;
pos = (200,100);
ref = pixel;
scale = (0.5,1);
},
{
alignment = -1;
pos = (200,0);
ref = pixel;
scale = (0.5,1);
}
);
width = 500;
},
{
background = {
shapes = (
{
closed = 1;
nodes = (
(150,0,l),
(250,0,l),
(250,600,l),
(750,600,l),
(750,700,l),
(-250,700,l),
(-250,600,l),
(150,600,l)
);
}
);
};
hints = (
{
horizontal = 1;
place = (600, 100);
place = (600, 100);
type = Stem;
},
{
place = (600, 100);
place = (600, 100);
type = Stem;
}
);
layerId = "70DB4E10-A1B7-44B2-BFCF-9F046C279AC2";
shapes = (
{
alignment = -1;
pos = (0,600);
ref = pixel;
scale = (0.5,1);
},
{
alignment = -1;
pos = (50,700);
ref = pixel;
scale = (0.5,1);
},
{
alignment = -1;
pos = (100,600);
ref = pixel;
scale = (0.5,1);
},
{
alignment = -1;
pos = (150,600);
ref = pixel;
scale = (0.5,1);
},
{
alignment = -1;
pos = (200,600);
ref = pixel;
scale = (0.5,1);
},
{
alignment = -1;
pos = (250,800);
ref = pixel;
scale = (0.5,1);
},
{
alignment = -1;
pos = (300,600);
ref = pixel;
scale = (0.5,1);
},
{
alignment = -1;
pos = (350,500);
ref = pixel;
scale = (0.5,1);
},
{
alignment = -1;
pos = (400,600);
ref = pixel;
scale = (0.5,1);
},
{
alignment = -1;
pos = (450,700);
ref = pixel;
scale = (0.5,1);
},
{
alignment = -1;
pos = (200,500);
ref = pixel;
scale = (0.5,1);
},
{
alignment = -1;
pos = (200,400);
ref = pixel;
scale = (0.5,1);
},
{
alignment = -1;
pos = (200,300);
ref = pixel;
scale = (0.5,1);
},
{
alignment = -1;
pos = (200,200);
ref = pixel;
scale = (0.5,1);
},
{
alignment = -1;
pos = (200,100);
ref = pixel;
scale = (0.5,1);
},
{
alignment = -1;
pos = (200,-100);
ref = pixel;
scale = (0.5,1);
}
);
width = 500;
}
);
note = T;
unicode = (84,116);
},
{
glyphname = U;
lastChange = "2024-04-05 14:54:07 +0000";
layers = (
{
background = {
shapes = (
{
closed = 1;
nodes = (
(-250,700,l),
(-250,100,l),
(-150,100,l),
(-150,700,l)
);
},
{
closed = 1;
nodes = (
(-150,0,l),
(650,0,l),
(650,100,l),
(-150,100,l)
);
},
{
closed = 1;
nodes = (
(650,100,l),
(750,100,l),
(750,700,l),
(650,700,l)
);
}
);
};
hints = (
{
horizontal = 1;
place = (0, 100);
place = (0, 100);
type = Stem;
},
{
place = (200, 100);
place = (200, 100);
type = Stem;
},
{
place = (1100, 100);
place = (1100, 100);
type = Stem;
}
);
layerId = "AEA028FA-8432-430F-9508-2B91B3DB731A";
shapes = (
{
alignment = -1;
pos = (0,600);
ref = pixel;
scale = (0.5,1);
},
{
alignment = -1;
pos = (0,500);
ref = pixel;
scale = (0.5,1);
},
{
alignment = -1;
pos = (0,400);
ref = pixel;
scale = (0.5,1);
},
{
alignment = -1;
pos = (0,300);
ref = pixel;
scale = (0.5,1);
},
{
alignment = -1;
pos = (0,200);
ref = pixel;
scale = (0.5,1);
},
{
alignment = -1;
pos = (0,100);
ref = pixel;
scale = (0.5,1);
},
{
alignment = -1;
pos = (50,0);
ref = pixel;
scale = (0.5,1);
},
{
alignment = -1;
pos = (100,0);
ref = pixel;
scale = (0.5,1);
},
{
alignment = -1;
pos = (150,0);
ref = pixel;
scale = (0.5,1);
},
{
alignment = -1;
pos = (200,0);
ref = pixel;
scale = (0.5,1);
},
{
alignment = -1;
pos = (250,0);
ref = pixel;
scale = (0.5,1);
},
{
alignment = -1;
pos = (300,0);
ref = pixel;
scale = (0.5,1);
},
{
alignment = -1;
pos = (350,0);
ref = pixel;
scale = (0.5,1);
},
{
alignment = -1;
pos = (400,0);
ref = pixel;
scale = (0.5,1);
},
{
alignment = -1;
pos = (450,100);
ref = pixel;
scale = (0.5,1);
},
{
alignment = -1;
pos = (450,200);
ref = pixel;
scale = (0.5,1);
},
{
alignment = -1;
pos = (450,300);
ref = pixel;
scale = (0.5,1);
},
{
alignment = -1;
pos = (450,400);
ref = pixel;
scale = (0.5,1);
},
{
alignment = -1;
pos = (450,500);
ref = pixel;
scale = (0.5,1);
},
{
alignment = -1;
pos = (450,600);
ref = pixel;
scale = (0.5,1);
}
);
width = 500;
},
{
background = {
shapes = (
{
closed = 1;
nodes = (
(-250,700,l),
(-250,100,l),
(-150,100,l),
(-150,700,l)
);
},
{
closed = 1;
nodes = (
(-150,0,l),
(650,0,l),
(650,100,l),
(-150,100,l)
);
},
{
closed = 1;
nodes = (
(650,100,l),
(750,100,l),
(750,700,l),
(650,700,l)
);
}
);
};
hints = (
{
horizontal = 1;
place = (0, 100);
place = (0, 100);
type = Stem;
},
{
place = (200, 100);
place = (200, 100);
type = Stem;
},
{
place = (1100, 100);
place = (1100, 100);
type = Stem;
}
);
layerId = "70DB4E10-A1B7-44B2-BFCF-9F046C279AC2";
shapes = (
{
alignment = -1;
pos = (0,600);
ref = pixel;
scale = (0.5,1);
},
{
alignment = -1;
pos = (0,500);
ref = pixel;
scale = (0.5,1);
},
{
alignment = -1;
pos = (0,400);
ref = pixel;
scale = (0.5,1);
},
{
alignment = -1;
pos = (0,300);
ref = pixel;
scale = (0.5,1);
},
{
alignment = -1;
pos = (0,200);
ref = pixel;
scale = (0.5,1);
},
{
alignment = -1;
pos = (0,100);
ref = pixel;
scale = (0.5,1);
},
{
alignment = -1;
pos = (50,0);
ref = pixel;
scale = (0.5,1);
},
{
alignment = -1;
pos = (100,-200);
ref = pixel;
scale = (0.5,1);
},
{
alignment = -1;
pos = (150,0);
ref = pixel;
scale = (0.5,1);
},
{
alignment = -1;
pos = (200,-100);
ref = pixel;
scale = (0.5,1);
},
{
alignment = -1;
pos = (250,100);
ref = pixel;
scale = (0.5,1);
},
{
alignment = -1;
pos = (300,0);
ref = pixel;
scale = (0.5,1);
},
{
alignment = -1;
pos = (350,200);
ref = pixel;
scale = (0.5,1);
},
{
alignment = -1;
pos = (400,0);
ref = pixel;
scale = (0.5,1);
},
{
alignment = -1;
pos = (450,100);
ref = pixel;
scale = (0.5,1);
},
{
alignment = -1;
pos = (450,200);
ref = pixel;
scale = (0.5,1);
},
{
alignment = -1;
pos = (450,300);
ref = pixel;
scale = (0.5,1);
},
{
alignment = -1;
pos = (450,400);
ref = pixel;
scale = (0.5,1);
},
{
alignment = -1;
pos = (450,500);
ref = pixel;
scale = (0.5,1);
},
{
alignment = -1;
pos = (450,800);
ref = pixel;
scale = (0.5,1);
}
);
width = 500;
}
);
note = U;
unicode = (85,117);
},
{
glyphname = V;
lastChange = "2024-04-05 14:54:07 +0000";
layers = (
{
background = {
shapes = (
{
closed = 1;
nodes = (
(650,700,l),
(650,500,l),
(750,500,l),
(750,700,l)
);
},
{
closed = 1;
nodes = (
(-250,500,l),
(-150,500,l),
(-150,700,l),
(-250,700,l)
);
},
{
closed = 1;
nodes = (
(-150,300,l),
(-50,300,l),
(-50,500,l),
(-150,500,l)
);
},
{
closed = 1;
nodes = (
(-50,200,l),
(50,200,l),
(50,300,l),
(-50,300,l)
);
},
{
closed = 1;
nodes = (
(50,100,l),
(150,100,l),
(150,200,l),
(50,200,l)
);
},
{
closed = 1;
nodes = (
(150,0,l),
(350,0,l),
(350,100,l),
(150,100,l)
);
},
{
closed = 1;
nodes = (
(350,100,l),
(450,100,l),
(450,200,l),
(350,200,l)
);
},
{
closed = 1;
nodes = (
(450,200,l),
(550,200,l),
(550,300,l),
(450,300,l)
);
},
{
closed = 1;
nodes = (
(550,300,l),
(650,300,l),
(650,500,l),
(550,500,l)
);
}
);
};
hints = (
{
horizontal = 1;
place = (500, 200);
place = (500, 200);
type = Stem;
},
{
place = (200, 100);
place = (200, 100);
type = Stem;
},
{
place = (1100, 100);
place = (1100, 100);
type = Stem;
},
{
horizontal = 1;
place = (300, 200);
place = (300, 200);
type = Stem;
},
{
place = (300, 100);
place = (300, 100);
type = Stem;
},
{
horizontal = 1;
place = (200, 100);
place = (200, 100);
type = Stem;
},
{
place = (400, 100);
place = (400, 100);
type = Stem;
},
{
horizontal = 1;
place = (100, 100);
place = (100, 100);
type = Stem;
},
{
place = (500, 100);
place = (500, 100);
type = Stem;
},
{
horizontal = 1;
place = (0, 100);
place = (0, 100);
type = Stem;
},
{
place = (600, 200);
place = (600, 200);
type = Stem;
},
{
place = (800, 100);
place = (800, 100);
type = Stem;
},
{
place = (900, 100);
place = (900, 100);
type = Stem;
},
{
place = (1000, 100);
place = (1000, 100);
type = Stem;
}
);
layerId = "AEA028FA-8432-430F-9508-2B91B3DB731A";
shapes = (
{
alignment = -1;
pos = (0,600);
ref = pixel;
scale = (0.5,1);
},
{
alignment = -1;
pos = (0,500);
ref = pixel;
scale = (0.5,1);
},
{
alignment = -1;
pos = (50,400);
ref = pixel;
scale = (0.5,1);
},
{
alignment = -1;
pos = (50,300);
ref = pixel;
scale = (0.5,1);
},
{
alignment = -1;
pos = (100,200);
ref = pixel;
scale = (0.5,1);
},
{
alignment = -1;
pos = (150,100);
ref = pixel;
scale = (0.5,1);
},
{
alignment = -1;
pos = (200,0);
ref = pixel;
scale = (0.5,1);
},
{
alignment = -1;
pos = (250,0);
ref = pixel;
scale = (0.5,1);
},
{
alignment = -1;
pos = (300,100);
ref = pixel;
scale = (0.5,1);
},
{
alignment = -1;
pos = (350,200);
ref = pixel;
scale = (0.5,1);
},
{
alignment = -1;
pos = (400,300);
ref = pixel;
scale = (0.5,1);
},
{
alignment = -1;
pos = (400,400);
ref = pixel;
scale = (0.5,1);
},
{
alignment = -1;
pos = (450,500);
ref = pixel;
scale = (0.5,1);
},
{
alignment = -1;
pos = (450,600);
ref = pixel;
scale = (0.5,1);
}
);
width = 500;
},
{
background = {
shapes = (
{
closed = 1;
nodes = (
(650,700,l),
(650,500,l),
(750,500,l),
(750,700,l)
);
},
{
closed = 1;
nodes = (
(-250,500,l),
(-150,500,l),
(-150,700,l),
(-250,700,l)
);
},
{
closed = 1;
nodes = (
(-150,300,l),
(-50,300,l),
(-50,500,l),
(-150,500,l)
);
},
{
closed = 1;
nodes = (
(-50,200,l),
(50,200,l),
(50,300,l),
(-50,300,l)
);
},
{
closed = 1;
nodes = (
(50,100,l),
(150,100,l),
(150,200,l),
(50,200,l)
);
},
{
closed = 1;
nodes = (
(150,0,l),
(350,0,l),
(350,100,l),
(150,100,l)
);
},
{
closed = 1;
nodes = (
(350,100,l),
(450,100,l),
(450,200,l),
(350,200,l)
);
},
{
closed = 1;
nodes = (
(450,200,l),
(550,200,l),
(550,300,l),
(450,300,l)
);
},
{
closed = 1;
nodes = (
(550,300,l),
(650,300,l),
(650,500,l),
(550,500,l)
);
}
);
};
hints = (
{
horizontal = 1;
place = (500, 200);
place = (500, 200);
type = Stem;
},
{
place = (200, 100);
place = (200, 100);
type = Stem;
},
{
place = (1100, 100);
place = (1100, 100);
type = Stem;
},
{
horizontal = 1;
place = (300, 200);
place = (300, 200);
type = Stem;
},
{
place = (300, 100);
place = (300, 100);
type = Stem;
},
{
horizontal = 1;
place = (200, 100);
place = (200, 100);
type = Stem;
},
{
place = (400, 100);
place = (400, 100);
type = Stem;
},
{
horizontal = 1;
place = (100, 100);
place = (100, 100);
type = Stem;
},
{
place = (500, 100);
place = (500, 100);
type = Stem;
},
{
horizontal = 1;
place = (0, 100);
place = (0, 100);
type = Stem;
},
{
place = (600, 200);
place = (600, 200);
type = Stem;
},
{
place = (800, 100);
place = (800, 100);
type = Stem;
},
{
place = (900, 100);
place = (900, 100);
type = Stem;
},
{
place = (1000, 100);
place = (1000, 100);
type = Stem;
}
);
layerId = "70DB4E10-A1B7-44B2-BFCF-9F046C279AC2";
shapes = (
{
alignment = -1;
pos = (0,700);
ref = pixel;
scale = (0.5,1);
},
{
alignment = -1;
pos = (0,500);
ref = pixel;
scale = (0.5,1);
},
{
alignment = -1;
pos = (50,400);
ref = pixel;
scale = (0.5,1);
},
{
alignment = -1;
pos = (50,300);
ref = pixel;
scale = (0.5,1);
},
{
alignment = -1;
pos = (100,-100);
ref = pixel;
scale = (0.5,1);
},
{
alignment = -1;
pos = (150,100);
ref = pixel;
scale = (0.5,1);
},
{
alignment = -1;
pos = (200,-200);
ref = pixel;
scale = (0.5,1);
},
{
alignment = -1;
pos = (250,100);
ref = pixel;
scale = (0.5,1);
},
{
alignment = -1;
pos = (300,0);
ref = pixel;
scale = (0.5,1);
},
{
alignment = -1;
pos = (350,200);
ref = pixel;
scale = (0.5,1);
},
{
alignment = -1;
pos = (400,300);
ref = pixel;
scale = (0.5,1);
},
{
alignment = -1;
pos = (400,500);
ref = pixel;
scale = (0.5,1);
},
{
alignment = -1;
pos = (450,400);
ref = pixel;
scale = (0.5,1);
},
{
alignment = -1;
pos = (450,600);
ref = pixel;
scale = (0.5,1);
}
);
width = 500;
}
);
note = V;
unicode = (86,118);
},
{
glyphname = W;
lastChange = "2024-04-05 14:54:07 +0000";
layers = (
{
background = {
shapes = (
{
closed = 1;
nodes = (
(-250,700,l),
(-250,500,l),
(-150,500,l),
(-150,700,l)
);
},
{
closed = 1;
nodes = (
(-150,300,l),
(-50,300,l),
(-50,500,l),
(-150,500,l)
);
},
{
closed = 1;
nodes = (
(-50,100,l),
(50,100,l),
(50,300,l),
(-50,300,l)
);
},
{
closed = 1;
nodes = (
(50,0,l),
(150,0,l),
(150,100,l),
(50,100,l)
);
},
{
closed = 1;
nodes = (
(150,100,l),
(250,100,l),
(250,300,l),
(150,300,l)
);
},
{
closed = 1;
nodes = (
(250,300,l),
(350,300,l),
(350,500,l),
(250,500,l)
);
},
{
closed = 1;
nodes = (
(350,100,l),
(450,100,l),
(450,300,l),
(350,300,l)
);
},
{
closed = 1;
nodes = (
(450,0,l),
(550,0,l),
(550,100,l),
(450,100,l)
);
},
{
closed = 1;
nodes = (
(550,100,l),
(650,100,l),
(650,300,l),
(550,300,l)
);
},
{
closed = 1;
nodes = (
(650,300,l),
(750,300,l),
(750,500,l),
(650,500,l)
);
},
{
closed = 1;
nodes = (
(750,500,l),
(850,500,l),
(850,700,l),
(750,700,l)
);
}
);
};
hints = (
{
horizontal = 1;
place = (500, 200);
place = (500, 200);
type = Stem;
},
{
place = (100, 100);
place = (100, 100);
type = Stem;
},
{
horizontal = 1;
place = (300, 200);
place = (300, 200);
type = Stem;
},
{
place = (200, 100);
place = (200, 100);
type = Stem;
},
{
horizontal = 1;
place = (100, 200);
place = (100, 200);
type = Stem;
},
{
place = (300, 100);
place = (300, 100);
type = Stem;
},
{
horizontal = 1;
place = (0, 100);
place = (0, 100);
type = Stem;
},
{
place = (400, 100);
place = (400, 100);
type = Stem;
},
{
place = (500, 100);
place = (500, 100);
type = Stem;
},
{
place = (600, 100);
place = (600, 100);
type = Stem;
},
{
place = (700, 100);
place = (700, 100);
type = Stem;
},
{
place = (800, 100);
place = (800, 100);
type = Stem;
},
{
place = (900, 100);
place = (900, 100);
type = Stem;
},
{
place = (1000, 100);
place = (1000, 100);
type = Stem;
},
{
place = (1100, 100);
place = (1100, 100);
type = Stem;
}
);
layerId = "AEA028FA-8432-430F-9508-2B91B3DB731A";
shapes = (
{
alignment = -1;
pos = (0,600);
ref = pixel;
scale = (0.5,1);
},
{
alignment = -1;
pos = (0,500);
ref = pixel;
scale = (0.5,1);
},
{
alignment = -1;
pos = (50,300);
ref = pixel;
scale = (0.5,1);
},
{
alignment = -1;
pos = (400,300);
ref = pixel;
scale = (0.5,1);
},
{
alignment = -1;
pos = (450,500);
ref = pixel;
scale = (0.5,1);
},
{
alignment = -1;
pos = (450,600);
ref = pixel;
scale = (0.5,1);
},
{
alignment = -1;
pos = (200,200);
ref = pixel;
scale = (0.5,1);
},
{
alignment = -1;
pos = (100,0);
ref = pixel;
scale = (0.5,1);
},
{
alignment = -1;
pos = (150,100);
ref = pixel;
scale = (0.5,1);
},
{
alignment = -1;
pos = (350,0);
ref = pixel;
scale = (0.5,1);
},
{
alignment = -1;
pos = (300,100);
ref = pixel;
scale = (0.5,1);
},
{
alignment = -1;
pos = (250,200);
ref = pixel;
scale = (0.5,1);
},
{
alignment = -1;
pos = (50,200);
ref = pixel;
scale = (0.5,1);
},
{
alignment = -1;
pos = (50,100);
ref = pixel;
scale = (0.5,1);
},
{
alignment = -1;
pos = (400,200);
ref = pixel;
scale = (0.5,1);
},
{
alignment = -1;
pos = (400,100);
ref = pixel;
scale = (0.5,1);
},
{
alignment = -1;
pos = (450,400);
ref = pixel;
scale = (0.5,1);
},
{
alignment = -1;
pos = (0,400);
ref = pixel;
scale = (0.5,1);
}
);
width = 500;
},
{
background = {
shapes = (
{
closed = 1;
nodes = (
(-250,700,l),
(-250,500,l),
(-150,500,l),
(-150,700,l)
);
},
{
closed = 1;
nodes = (
(-150,300,l),
(-50,300,l),
(-50,500,l),
(-150,500,l)
);
},
{
closed = 1;
nodes = (
(-50,100,l),
(50,100,l),
(50,300,l),
(-50,300,l)
);
},
{
closed = 1;
nodes = (
(50,0,l),
(150,0,l),
(150,100,l),
(50,100,l)
);
},
{
closed = 1;
nodes = (
(150,100,l),
(250,100,l),
(250,300,l),
(150,300,l)
);
},
{
closed = 1;
nodes = (
(250,300,l),
(350,300,l),
(350,500,l),
(250,500,l)
);
},
{
closed = 1;
nodes = (
(350,100,l),
(450,100,l),
(450,300,l),
(350,300,l)
);
},
{
closed = 1;
nodes = (
(450,0,l),
(550,0,l),
(550,100,l),
(450,100,l)
);
},
{
closed = 1;
nodes = (
(550,100,l),
(650,100,l),
(650,300,l),
(550,300,l)
);
},
{
closed = 1;
nodes = (
(650,300,l),
(750,300,l),
(750,500,l),
(650,500,l)
);
},
{
closed = 1;
nodes = (
(750,500,l),
(850,500,l),
(850,700,l),
(750,700,l)
);
}
);
};
hints = (
{
horizontal = 1;
place = (500, 200);
place = (500, 200);
type = Stem;
},
{
place = (100, 100);
place = (100, 100);
type = Stem;
},
{
horizontal = 1;
place = (300, 200);
place = (300, 200);
type = Stem;
},
{
place = (200, 100);
place = (200, 100);
type = Stem;
},
{
horizontal = 1;
place = (100, 200);
place = (100, 200);
type = Stem;
},
{
place = (300, 100);
place = (300, 100);
type = Stem;
},
{
horizontal = 1;
place = (0, 100);
place = (0, 100);
type = Stem;
},
{
place = (400, 100);
place = (400, 100);
type = Stem;
},
{
place = (500, 100);
place = (500, 100);
type = Stem;
},
{
place = (600, 100);
place = (600, 100);
type = Stem;
},
{
place = (700, 100);
place = (700, 100);
type = Stem;
},
{
place = (800, 100);
place = (800, 100);
type = Stem;
},
{
place = (900, 100);
place = (900, 100);
type = Stem;
},
{
place = (1000, 100);
place = (1000, 100);
type = Stem;
},
{
place = (1100, 100);
place = (1100, 100);
type = Stem;
}
);
layerId = "70DB4E10-A1B7-44B2-BFCF-9F046C279AC2";
shapes = (
{
alignment = -1;
pos = (0,600);
ref = pixel;
scale = (0.5,1);
},
{
alignment = -1;
pos = (0,500);
ref = pixel;
scale = (0.5,1);
},
{
alignment = -1;
pos = (50,300);
ref = pixel;
scale = (0.5,1);
},
{
alignment = -1;
pos = (400,300);
ref = pixel;
scale = (0.5,1);
},
{
alignment = -1;
pos = (450,500);
ref = pixel;
scale = (0.5,1);
},
{
alignment = -1;
pos = (450,600);
ref = pixel;
scale = (0.5,1);
},
{
alignment = -1;
pos = (200,600);
ref = pixel;
scale = (0.5,1);
},
{
alignment = -1;
pos = (100,0);
ref = pixel;
scale = (0.5,1);
},
{
alignment = -1;
pos = (150,-100);
ref = pixel;
scale = (0.5,1);
},
{
alignment = -1;
pos = (350,0);
ref = pixel;
scale = (0.5,1);
},
{
alignment = -1;
pos = (300,400);
ref = pixel;
scale = (0.5,1);
},
{
alignment = -1;
pos = (250,100);
ref = pixel;
scale = (0.5,1);
},
{
alignment = -1;
pos = (50,200);
ref = pixel;
scale = (0.5,1);
},
{
alignment = -1;
pos = (50,100);
ref = pixel;
scale = (0.5,1);
},
{
alignment = -1;
pos = (400,200);
ref = pixel;
scale = (0.5,1);
},
{
alignment = -1;
pos = (400,-200);
ref = pixel;
scale = (0.5,1);
},
{
alignment = -1;
pos = (450,400);
ref = pixel;
scale = (0.5,1);
},
{
alignment = -1;
pos = (0,400);
ref = pixel;
scale = (0.5,1);
}
);
width = 500;
}
);
note = W;
unicode = (87,119);
},
{
glyphname = X;
lastChange = "2024-04-05 14:54:28 +0000";
layers = (
{
background = {
shapes = (
{
closed = 1;
nodes = (
(50,300,l),
(450,300,l),
(450,400,l),
(50,400,l)
);
},
{
closed = 1;
nodes = (
(-250,0,l),
(-150,0,l),
(-150,100,l),
(-250,100,l)
);
},
{
closed = 1;
nodes = (
(-250,600,l),
(-150,600,l),
(-150,700,l),
(-250,700,l)
);
},
{
closed = 1;
nodes = (
(-150,100,l),
(-50,100,l),
(-50,200,l),
(-150,200,l)
);
},
{
closed = 1;
nodes = (
(-150,500,l),
(-50,500,l),
(-50,600,l),
(-150,600,l)
);
},
{
closed = 1;
nodes = (
(-50,200,l),
(50,200,l),
(50,300,l),
(-50,300,l)
);
},
{
closed = 1;
nodes = (
(-50,400,l),
(50,400,l),
(50,500,l),
(-50,500,l)
);
},
{
closed = 1;
nodes = (
(450,200,l),
(550,200,l),
(550,300,l),
(450,300,l)
);
},
{
closed = 1;
nodes = (
(450,400,l),
(550,400,l),
(550,500,l),
(450,500,l)
);
},
{
closed = 1;
nodes = (
(550,100,l),
(650,100,l),
(650,200,l),
(550,200,l)
);
},
{
closed = 1;
nodes = (
(550,500,l),
(650,500,l),
(650,600,l),
(550,600,l)
);
},
{
closed = 1;
nodes = (
(650,0,l),
(750,0,l),
(750,100,l),
(650,100,l)
);
},
{
closed = 1;
nodes = (
(650,600,l),
(750,600,l),
(750,700,l),
(650,700,l)
);
}
);
};
hints = (
{
horizontal = 1;
place = (100, 100);
place = (100, 100);
type = Stem;
},
{
horizontal = 1;
place = (300, 100);
place = (300, 100);
type = Stem;
},
{
horizontal = 1;
place = (600, 100);
place = (600, 100);
type = Stem;
},
{
place = (200, 100);
place = (200, 100);
type = Stem;
},
{
place = (400, 100);
place = (400, 100);
type = Stem;
},
{
place = (900, 100);
place = (900, 100);
type = Stem;
},
{
place = (1100, 100);
place = (1100, 100);
type = Stem;
},
{
horizontal = 1;
place = (0, 100);
place = (0, 100);
type = Stem;
},
{
horizontal = 1;
place = (500, 100);
place = (500, 100);
type = Stem;
},
{
place = (300, 100);
place = (300, 100);
type = Stem;
},
{
horizontal = 1;
place = (200, 100);
place = (200, 100);
type = Stem;
},
{
horizontal = 1;
place = (400, 100);
place = (400, 100);
type = Stem;
},
{
place = (1000, 100);
place = (1000, 100);
type = Stem;
}
);
layerId = "AEA028FA-8432-430F-9508-2B91B3DB731A";
shapes = (
{
alignment = -1;
pos = (0,600);
ref = pixel;
scale = (0.5,1);
},
{
alignment = -1;
pos = (50,500);
ref = pixel;
scale = (0.5,1);
},
{
alignment = -1;
pos = (100,400);
ref = pixel;
scale = (0.5,1);
},
{
alignment = -1;
pos = (100,200);
ref = pixel;
scale = (0.5,1);
},
{
alignment = -1;
pos = (50,100);
ref = pixel;
scale = (0.5,1);
},
{
alignment = -1;
ref = pixel;
scale = (0.5,1);
},
{
alignment = -1;
pos = (150,300);
ref = pixel;
scale = (0.5,1);
},
{
alignment = -1;
pos = (200,300);
ref = pixel;
scale = (0.5,1);
},
{
alignment = -1;
pos = (300,300);
ref = pixel;
scale = (0.5,1);
},
{
alignment = -1;
pos = (250,300);
ref = pixel;
scale = (0.5,1);
},
{
alignment = -1;
pos = (350,200);
ref = pixel;
scale = (0.5,1);
},
{
alignment = -1;
pos = (400,100);
ref = pixel;
scale = (0.5,1);
},
{
alignment = -1;
pos = (450,0);
ref = pixel;
scale = (0.5,1);
},
{
alignment = -1;
pos = (350,400);
ref = pixel;
scale = (0.5,1);
},
{
alignment = -1;
pos = (400,500);
ref = pixel;
scale = (0.5,1);
},
{
alignment = -1;
pos = (450,600);
ref = pixel;
scale = (0.5,1);
}
);
width = 500;
},
{
background = {
shapes = (
{
closed = 1;
nodes = (
(50,300,l),
(450,300,l),
(450,400,l),
(50,400,l)
);
},
{
closed = 1;
nodes = (
(-250,0,l),
(-150,0,l),
(-150,100,l),
(-250,100,l)
);
},
{
closed = 1;
nodes = (
(-250,600,l),
(-150,600,l),
(-150,700,l),
(-250,700,l)
);
},
{
closed = 1;
nodes = (
(-150,100,l),
(-50,100,l),
(-50,200,l),
(-150,200,l)
);
},
{
closed = 1;
nodes = (
(-150,500,l),
(-50,500,l),
(-50,600,l),
(-150,600,l)
);
},
{
closed = 1;
nodes = (
(-50,200,l),
(50,200,l),
(50,300,l),
(-50,300,l)
);
},
{
closed = 1;
nodes = (
(-50,400,l),
(50,400,l),
(50,500,l),
(-50,500,l)
);
},
{
closed = 1;
nodes = (
(450,200,l),
(550,200,l),
(550,300,l),
(450,300,l)
);
},
{
closed = 1;
nodes = (
(450,400,l),
(550,400,l),
(550,500,l),
(450,500,l)
);
},
{
closed = 1;
nodes = (
(550,100,l),
(650,100,l),
(650,200,l),
(550,200,l)
);
},
{
closed = 1;
nodes = (
(550,500,l),
(650,500,l),
(650,600,l),
(550,600,l)
);
},
{
closed = 1;
nodes = (
(650,0,l),
(750,0,l),
(750,100,l),
(650,100,l)
);
},
{
closed = 1;
nodes = (
(650,600,l),
(750,600,l),
(750,700,l),
(650,700,l)
);
}
);
};
hints = (
{
horizontal = 1;
place = (100, 100);
place = (100, 100);
type = Stem;
},
{
horizontal = 1;
place = (300, 100);
place = (300, 100);
type = Stem;
},
{
horizontal = 1;
place = (600, 100);
place = (600, 100);
type = Stem;
},
{
place = (200, 100);
place = (200, 100);
type = Stem;
},
{
place = (400, 100);
place = (400, 100);
type = Stem;
},
{
place = (900, 100);
place = (900, 100);
type = Stem;
},
{
place = (1100, 100);
place = (1100, 100);
type = Stem;
},
{
horizontal = 1;
place = (0, 100);
place = (0, 100);
type = Stem;
},
{
horizontal = 1;
place = (500, 100);
place = (500, 100);
type = Stem;
},
{
place = (300, 100);
place = (300, 100);
type = Stem;
},
{
horizontal = 1;
place = (200, 100);
place = (200, 100);
type = Stem;
},
{
horizontal = 1;
place = (400, 100);
place = (400, 100);
type = Stem;
},
{
place = (1000, 100);
place = (1000, 100);
type = Stem;
}
);
layerId = "70DB4E10-A1B7-44B2-BFCF-9F046C279AC2";
shapes = (
{
alignment = -1;
pos = (0,800);
ref = pixel;
scale = (0.5,1);
},
{
alignment = -1;
pos = (50,500);
ref = pixel;
scale = (0.5,1);
},
{
alignment = -1;
pos = (100,600);
ref = pixel;
scale = (0.5,1);
},
{
alignment = -1;
pos = (100,0);
ref = pixel;
scale = (0.5,1);
},
{
alignment = -1;
pos = (50,200);
ref = pixel;
scale = (0.5,1);
},
{
alignment = -1;
ref = pixel;
scale = (0.5,1);
},
{
alignment = -1;
pos = (150,300);
ref = pixel;
scale = (0.5,1);
},
{
alignment = -1;
pos = (200,100);
ref = pixel;
scale = (0.5,1);
},
{
alignment = -1;
pos = (300,300);
ref = pixel;
scale = (0.5,1);
},
{
alignment = -1;
pos = (250,500);
ref = pixel;
scale = (0.5,1);
},
{
alignment = -1;
pos = (350,0);
ref = pixel;
scale = (0.5,1);
},
{
alignment = -1;
pos = (400,100);
ref = pixel;
scale = (0.5,1);
},
{
alignment = -1;
pos = (450,-200);
ref = pixel;
scale = (0.5,1);
},
{
alignment = -1;
pos = (350,500);
ref = pixel;
scale = (0.5,1);
},
{
alignment = -1;
pos = (400,700);
ref = pixel;
scale = (0.5,1);
},
{
alignment = -1;
pos = (450,600);
ref = pixel;
scale = (0.5,1);
}
);
width = 500;
}
);
note = X;
unicode = (88,120);
},
{
glyphname = Y;
lastChange = "2024-04-05 14:54:07 +0000";
layers = (
{
background = {
shapes = (
{
closed = 1;
nodes = (
(250,0,l),
(350,0,l),
(350,200,l),
(450,200,l),
(450,300,l),
(150,300,l),
(150,200,l),
(250,200,l)
);
},
{
closed = 1;
nodes = (
(-250,600,l),
(-150,600,l),
(-150,700,l),
(-250,700,l)
);
},
{
closed = 1;
nodes = (
(-150,500,l),
(-50,500,l),
(-50,600,l),
(-150,600,l)
);
},
{
closed = 1;
nodes = (
(-50,400,l),
(50,400,l),
(50,500,l),
(-50,500,l)
);
},
{
closed = 1;
nodes = (
(50,300,l),
(150,300,l),
(150,400,l),
(50,400,l)
);
},
{
closed = 1;
nodes = (
(450,300,l),
(550,300,l),
(550,400,l),
(450,400,l)
);
},
{
closed = 1;
nodes = (
(550,400,l),
(650,400,l),
(650,500,l),
(550,500,l)
);
},
{
closed = 1;
nodes = (
(650,500,l),
(750,500,l),
(750,600,l),
(650,600,l)
);
},
{
closed = 1;
nodes = (
(750,600,l),
(850,600,l),
(850,700,l),
(750,700,l)
);
}
);
};
hints = (
{
horizontal = 1;
place = (200, 100);
place = (200, 100);
type = Stem;
},
{
horizontal = 1;
place = (400, 100);
place = (400, 100);
type = Stem;
},
{
horizontal = 1;
place = (600, 100);
place = (600, 100);
type = Stem;
},
{
place = (200, 100);
place = (200, 100);
type = Stem;
},
{
place = (400, 100);
place = (400, 100);
type = Stem;
},
{
place = (700, 100);
place = (700, 100);
type = Stem;
},
{
place = (900, 100);
place = (900, 100);
type = Stem;
},
{
place = (1100, 100);
place = (1100, 100);
type = Stem;
},
{
horizontal = 1;
place = (500, 100);
place = (500, 100);
type = Stem;
},
{
place = (300, 100);
place = (300, 100);
type = Stem;
},
{
horizontal = 1;
place = (300, 100);
place = (300, 100);
type = Stem;
},
{
place = (500, 100);
place = (500, 100);
type = Stem;
},
{
place = (1000, 100);
place = (1000, 100);
type = Stem;
},
{
place = (1200, 100);
place = (1200, 100);
type = Stem;
}
);
layerId = "AEA028FA-8432-430F-9508-2B91B3DB731A";
shapes = (
{
alignment = -1;
pos = (0,600);
ref = pixel;
scale = (0.5,1);
},
{
alignment = -1;
pos = (50,500);
ref = pixel;
scale = (0.5,1);
},
{
alignment = -1;
pos = (100,400);
ref = pixel;
scale = (0.5,1);
},
{
alignment = -1;
pos = (150,300);
ref = pixel;
scale = (0.5,1);
},
{
alignment = -1;
pos = (250,200);
ref = pixel;
scale = (0.5,1);
},
{
alignment = -1;
pos = (300,300);
ref = pixel;
scale = (0.5,1);
},
{
alignment = -1;
pos = (350,400);
ref = pixel;
scale = (0.5,1);
},
{
alignment = -1;
pos = (400,500);
ref = pixel;
scale = (0.5,1);
},
{
alignment = -1;
pos = (450,600);
ref = pixel;
scale = (0.5,1);
},
{
alignment = -1;
pos = (200,0);
ref = pixel;
scale = (0.5,1);
},
{
alignment = -1;
pos = (250,100);
ref = pixel;
scale = (0.5,1);
},
{
alignment = -1;
pos = (200,300);
ref = pixel;
scale = (0.5,1);
},
{
alignment = -1;
pos = (250,300);
ref = pixel;
scale = (0.5,1);
}
);
width = 500;
},
{
background = {
shapes = (
{
closed = 1;
nodes = (
(250,0,l),
(350,0,l),
(350,200,l),
(450,200,l),
(450,300,l),
(150,300,l),
(150,200,l),
(250,200,l)
);
},
{
closed = 1;
nodes = (
(-250,600,l),
(-150,600,l),
(-150,700,l),
(-250,700,l)
);
},
{
closed = 1;
nodes = (
(-150,500,l),
(-50,500,l),
(-50,600,l),
(-150,600,l)
);
},
{
closed = 1;
nodes = (
(-50,400,l),
(50,400,l),
(50,500,l),
(-50,500,l)
);
},
{
closed = 1;
nodes = (
(50,300,l),
(150,300,l),
(150,400,l),
(50,400,l)
);
},
{
closed = 1;
nodes = (
(450,300,l),
(550,300,l),
(550,400,l),
(450,400,l)
);
},
{
closed = 1;
nodes = (
(550,400,l),
(650,400,l),
(650,500,l),
(550,500,l)
);
},
{
closed = 1;
nodes = (
(650,500,l),
(750,500,l),
(750,600,l),
(650,600,l)
);
},
{
closed = 1;
nodes = (
(750,600,l),
(850,600,l),
(850,700,l),
(750,700,l)
);
}
);
};
hints = (
{
horizontal = 1;
place = (200, 100);
place = (200, 100);
type = Stem;
},
{
horizontal = 1;
place = (400, 100);
place = (400, 100);
type = Stem;
},
{
horizontal = 1;
place = (600, 100);
place = (600, 100);
type = Stem;
},
{
place = (200, 100);
place = (200, 100);
type = Stem;
},
{
place = (400, 100);
place = (400, 100);
type = Stem;
},
{
place = (700, 100);
place = (700, 100);
type = Stem;
},
{
place = (900, 100);
place = (900, 100);
type = Stem;
},
{
place = (1100, 100);
place = (1100, 100);
type = Stem;
},
{
horizontal = 1;
place = (500, 100);
place = (500, 100);
type = Stem;
},
{
place = (300, 100);
place = (300, 100);
type = Stem;
},
{
horizontal = 1;
place = (300, 100);
place = (300, 100);
type = Stem;
},
{
place = (500, 100);
place = (500, 100);
type = Stem;
},
{
place = (1000, 100);
place = (1000, 100);
type = Stem;
},
{
place = (1200, 100);
place = (1200, 100);
type = Stem;
}
);
layerId = "70DB4E10-A1B7-44B2-BFCF-9F046C279AC2";
shapes = (
{
alignment = -1;
pos = (0,600);
ref = pixel;
scale = (0.5,1);
},
{
alignment = -1;
pos = (50,800);
ref = pixel;
scale = (0.5,1);
},
{
alignment = -1;
pos = (100,400);
ref = pixel;
scale = (0.5,1);
},
{
alignment = -1;
pos = (150,300);
ref = pixel;
scale = (0.5,1);
},
{
alignment = -1;
pos = (250,200);
ref = pixel;
scale = (0.5,1);
},
{
alignment = -1;
pos = (300,300);
ref = pixel;
scale = (0.5,1);
},
{
alignment = -1;
pos = (350,400);
ref = pixel;
scale = (0.5,1);
},
{
alignment = -1;
pos = (400,700);
ref = pixel;
scale = (0.5,1);
},
{
alignment = -1;
pos = (450,600);
ref = pixel;
scale = (0.5,1);
},
{
alignment = -1;
pos = (200,100);
ref = pixel;
scale = (0.5,1);
},
{
alignment = -1;
pos = (250,-100);
ref = pixel;
scale = (0.5,1);
},
{
alignment = -1;
pos = (200,400);
ref = pixel;
scale = (0.5,1);
},
{
alignment = -1;
pos = (250,300);
ref = pixel;
scale = (0.5,1);
}
);
width = 500;
}
);
note = Y;
unicode = (89,121);
},
{
glyphname = Z;
lastChange = "2024-04-05 14:54:07 +0000";
layers = (
{
background = {
shapes = (
{
closed = 1;
nodes = (
(-250,0,l),
(750,0,l),
(750,100,l),
(-50,100,l),
(-50,200,l),
(-150,200,l),
(-150,100,l),
(-250,100,l)
);
},
{
closed = 1;
nodes = (
(-250,600,l),
(550,600,l),
(550,500,l),
(650,500,l),
(650,600,l),
(750,600,l),
(750,700,l),
(-250,700,l)
);
},
{
closed = 1;
nodes = (
(-50,200,l),
(150,200,l),
(150,300,l),
(-50,300,l)
);
},
{
closed = 1;
nodes = (
(150,300,l),
(350,300,l),
(350,400,l),
(150,400,l)
);
},
{
closed = 1;
nodes = (
(350,400,l),
(550,400,l),
(550,500,l),
(350,500,l)
);
}
);
};
hints = (
{
horizontal = 1;
place = (0, 100);
place = (0, 100);
type = Stem;
},
{
horizontal = 1;
place = (200, 100);
place = (200, 100);
type = Stem;
},
{
horizontal = 1;
place = (400, 100);
place = (400, 100);
type = Stem;
},
{
horizontal = 1;
place = (600, 100);
place = (600, 100);
type = Stem;
},
{
place = (300, 100);
place = (300, 100);
type = Stem;
},
{
place = (600, 200);
place = (600, 200);
type = Stem;
},
{
place = (1000, 100);
place = (1000, 100);
type = Stem;
},
{
place = (400, 200);
place = (400, 200);
type = Stem;
},
{
horizontal = 1;
place = (300, 100);
place = (300, 100);
type = Stem;
},
{
place = (800, 200);
place = (800, 200);
type = Stem;
}
);
layerId = "AEA028FA-8432-430F-9508-2B91B3DB731A";
shapes = (
{
alignment = -1;
pos = (0,600);
ref = pixel;
scale = (0.5,1);
},
{
alignment = -1;
pos = (50,600);
ref = pixel;
scale = (0.5,1);
},
{
alignment = -1;
pos = (100,600);
ref = pixel;
scale = (0.5,1);
},
{
alignment = -1;
pos = (150,600);
ref = pixel;
scale = (0.5,1);
},
{
alignment = -1;
pos = (200,600);
ref = pixel;
scale = (0.5,1);
},
{
alignment = -1;
pos = (250,600);
ref = pixel;
scale = (0.5,1);
},
{
alignment = -1;
pos = (300,600);
ref = pixel;
scale = (0.5,1);
},
{
alignment = -1;
pos = (350,600);
ref = pixel;
scale = (0.5,1);
},
{
alignment = -1;
pos = (400,600);
ref = pixel;
scale = (0.5,1);
},
{
alignment = -1;
pos = (450,600);
ref = pixel;
scale = (0.5,1);
},
{
alignment = -1;
pos = (400,500);
ref = pixel;
scale = (0.5,1);
},
{
alignment = -1;
pos = (350,400);
ref = pixel;
scale = (0.5,1);
},
{
alignment = -1;
pos = (300,400);
ref = pixel;
scale = (0.5,1);
},
{
alignment = -1;
pos = (250,300);
ref = pixel;
scale = (0.5,1);
},
{
alignment = -1;
pos = (200,300);
ref = pixel;
scale = (0.5,1);
},
{
alignment = -1;
pos = (150,200);
ref = pixel;
scale = (0.5,1);
},
{
alignment = -1;
pos = (100,200);
ref = pixel;
scale = (0.5,1);
},
{
alignment = -1;
pos = (50,100);
ref = pixel;
scale = (0.5,1);
},
{
alignment = -1;
pos = (50,0);
ref = pixel;
scale = (0.5,1);
},
{
alignment = -1;
ref = pixel;
scale = (0.5,1);
},
{
alignment = -1;
pos = (450,0);
ref = pixel;
scale = (0.5,1);
},
{
alignment = -1;
pos = (400,0);
ref = pixel;
scale = (0.5,1);
},
{
alignment = -1;
pos = (350,0);
ref = pixel;
scale = (0.5,1);
},
{
alignment = -1;
pos = (300,0);
ref = pixel;
scale = (0.5,1);
},
{
alignment = -1;
pos = (250,0);
ref = pixel;
scale = (0.5,1);
},
{
alignment = -1;
pos = (200,0);
ref = pixel;
scale = (0.5,1);
},
{
alignment = -1;
pos = (150,0);
ref = pixel;
scale = (0.5,1);
},
{
alignment = -1;
pos = (100,0);
ref = pixel;
scale = (0.5,1);
}
);
width = 500;
},
{
background = {
shapes = (
{
closed = 1;
nodes = (
(-250,0,l),
(750,0,l),
(750,100,l),
(-50,100,l),
(-50,200,l),
(-150,200,l),
(-150,100,l),
(-250,100,l)
);
},
{
closed = 1;
nodes = (
(-250,600,l),
(550,600,l),
(550,500,l),
(650,500,l),
(650,600,l),
(750,600,l),
(750,700,l),
(-250,700,l)
);
},
{
closed = 1;
nodes = (
(-50,200,l),
(150,200,l),
(150,300,l),
(-50,300,l)
);
},
{
closed = 1;
nodes = (
(150,300,l),
(350,300,l),
(350,400,l),
(150,400,l)
);
},
{
closed = 1;
nodes = (
(350,400,l),
(550,400,l),
(550,500,l),
(350,500,l)
);
}
);
};
hints = (
{
horizontal = 1;
place = (0, 100);
place = (0, 100);
type = Stem;
},
{
horizontal = 1;
place = (200, 100);
place = (200, 100);
type = Stem;
},
{
horizontal = 1;
place = (400, 100);
place = (400, 100);
type = Stem;
},
{
horizontal = 1;
place = (600, 100);
place = (600, 100);
type = Stem;
},
{
place = (300, 100);
place = (300, 100);
type = Stem;
},
{
place = (600, 200);
place = (600, 200);
type = Stem;
},
{
place = (1000, 100);
place = (1000, 100);
type = Stem;
},
{
place = (400, 200);
place = (400, 200);
type = Stem;
},
{
horizontal = 1;
place = (300, 100);
place = (300, 100);
type = Stem;
},
{
place = (800, 200);
place = (800, 200);
type = Stem;
}
);
layerId = "70DB4E10-A1B7-44B2-BFCF-9F046C279AC2";
shapes = (
{
alignment = -1;
pos = (0,600);
ref = pixel;
scale = (0.5,1);
},
{
alignment = -1;
pos = (50,800);
ref = pixel;
scale = (0.5,1);
},
{
alignment = -1;
pos = (100,600);
ref = pixel;
scale = (0.5,1);
},
{
alignment = -1;
pos = (150,700);
ref = pixel;
scale = (0.5,1);
},
{
alignment = -1;
pos = (200,500);
ref = pixel;
scale = (0.5,1);
},
{
alignment = -1;
pos = (250,600);
ref = pixel;
scale = (0.5,1);
},
{
alignment = -1;
pos = (300,600);
ref = pixel;
scale = (0.5,1);
},
{
alignment = -1;
pos = (350,800);
ref = pixel;
scale = (0.5,1);
},
{
alignment = -1;
pos = (400,600);
ref = pixel;
scale = (0.5,1);
},
{
alignment = -1;
pos = (450,600);
ref = pixel;
scale = (0.5,1);
},
{
alignment = -1;
pos = (400,300);
ref = pixel;
scale = (0.5,1);
},
{
alignment = -1;
pos = (350,400);
ref = pixel;
scale = (0.5,1);
},
{
alignment = -1;
pos = (300,400);
ref = pixel;
scale = (0.5,1);
},
{
alignment = -1;
pos = (250,200);
ref = pixel;
scale = (0.5,1);
},
{
alignment = -1;
pos = (200,300);
ref = pixel;
scale = (0.5,1);
},
{
alignment = -1;
pos = (150,200);
ref = pixel;
scale = (0.5,1);
},
{
alignment = -1;
pos = (100,400);
ref = pixel;
scale = (0.5,1);
},
{
alignment = -1;
pos = (50,100);
ref = pixel;
scale = (0.5,1);
},
{
alignment = -1;
pos = (50,0);
ref = pixel;
scale = (0.5,1);
},
{
alignment = -1;
ref = pixel;
scale = (0.5,1);
},
{
alignment = -1;
pos = (450,0);
ref = pixel;
scale = (0.5,1);
},
{
alignment = -1;
pos = (400,-200);
ref = pixel;
scale = (0.5,1);
},
{
alignment = -1;
pos = (350,0);
ref = pixel;
scale = (0.5,1);
},
{
alignment = -1;
pos = (300,-100);
ref = pixel;
scale = (0.5,1);
},
{
alignment = -1;
pos = (250,0);
ref = pixel;
scale = (0.5,1);
},
{
alignment = -1;
pos = (200,-100);
ref = pixel;
scale = (0.5,1);
},
{
alignment = -1;
pos = (150,0);
ref = pixel;
scale = (0.5,1);
},
{
alignment = -1;
pos = (100,-200);
ref = pixel;
scale = (0.5,1);
}
);
width = 500;
}
);
note = Z;
unicode = (90,122);
},
{
glyphname = zero;
lastChange = "2024-03-18 15:43:30 +0000";
layers = (
{
background = {
shapes = (
{
closed = 1;
nodes = (
(-50,0,l),
(550,0,l),
(550,100,l),
(-50,100,l)
);
},
{
closed = 1;
nodes = (
(-250,200,l),
(-150,200,l),
(-150,500,l),
(-250,500,l)
);
},
{
closed = 1;
nodes = (
(-150,100,l),
(-50,100,l),
(-50,200,l),
(-150,200,l)
);
},
{
closed = 1;
nodes = (
(-150,500,l),
(-50,500,l),
(-50,600,l),
(-150,600,l)
);
},
{
closed = 1;
nodes = (
(-50,600,l),
(550,600,l),
(550,700,l),
(-50,700,l)
);
},
{
closed = 1;
nodes = (
(550,100,l),
(650,100,l),
(650,200,l),
(550,200,l)
);
},
{
closed = 1;
nodes = (
(550,500,l),
(650,500,l),
(650,600,l),
(550,600,l)
);
},
{
closed = 1;
nodes = (
(650,200,l),
(750,200,l),
(750,500,l),
(650,500,l)
);
}
);
};
hints = (
{
horizontal = 1;
place = (250, 300);
place = (250, 300);
type = Stem;
},
{
horizontal = 1;
place = (550, 300);
place = (550, 300);
type = Stem;
},
{
place = (350, 300);
place = (350, 300);
type = Stem;
},
{
place = (800, 300);
place = (800, 300);
type = Stem;
},
{
horizontal = 1;
place = (300, 300);
place = (300, 300);
type = Stem;
},
{
horizontal = 1;
place = (500, 300);
place = (500, 300);
type = Stem;
},
{
place = (400, 300);
place = (400, 300);
type = Stem;
},
{
place = (750, 300);
place = (750, 300);
type = Stem;
}
);
layerId = "AEA028FA-8432-430F-9508-2B91B3DB731A";
shapes = (
{
alignment = -1;
pos = (0,400);
ref = pixel;
scale = (0.5,1);
},
{
alignment = -1;
pos = (0,300);
ref = pixel;
scale = (0.5,1);
},
{
alignment = -1;
pos = (0,200);
ref = pixel;
scale = (0.5,1);
},
{
alignment = -1;
pos = (50,100);
ref = pixel;
scale = (0.5,1);
},
{
alignment = -1;
pos = (100,0);
ref = pixel;
scale = (0.5,1);
},
{
alignment = -1;
pos = (150,0);
ref = pixel;
scale = (0.5,1);
},
{
alignment = -1;
pos = (200,0);
ref = pixel;
scale = (0.5,1);
},
{
alignment = -1;
pos = (250,0);
ref = pixel;
scale = (0.5,1);
},
{
alignment = -1;
pos = (300,0);
ref = pixel;
scale = (0.5,1);
},
{
alignment = -1;
pos = (350,0);
ref = pixel;
scale = (0.5,1);
},
{
alignment = -1;
pos = (400,100);
ref = pixel;
scale = (0.5,1);
},
{
alignment = -1;
pos = (450,200);
ref = pixel;
scale = (0.5,1);
},
{
alignment = -1;
pos = (450,400);
ref = pixel;
scale = (0.5,1);
},
{
alignment = -1;
pos = (450,300);
ref = pixel;
scale = (0.5,1);
},
{
alignment = -1;
pos = (400,500);
ref = pixel;
scale = (0.5,1);
},
{
alignment = -1;
pos = (350,600);
ref = pixel;
scale = (0.5,1);
},
{
alignment = -1;
pos = (300,600);
ref = pixel;
scale = (0.5,1);
},
{
alignment = -1;
pos = (250,600);
ref = pixel;
scale = (0.5,1);
},
{
alignment = -1;
pos = (200,600);
ref = pixel;
scale = (0.5,1);
},
{
alignment = -1;
pos = (150,600);
ref = pixel;
scale = (0.5,1);
},
{
alignment = -1;
pos = (100,600);
ref = pixel;
scale = (0.5,1);
},
{
alignment = -1;
pos = (50,500);
ref = pixel;
scale = (0.5,1);
}
);
width = 500;
},
{
background = {
shapes = (
{
closed = 1;
nodes = (
(-50,0,l),
(550,0,l),
(550,100,l),
(-50,100,l)
);
},
{
closed = 1;
nodes = (
(-250,200,l),
(-150,200,l),
(-150,500,l),
(-250,500,l)
);
},
{
closed = 1;
nodes = (
(-150,100,l),
(-50,100,l),
(-50,200,l),
(-150,200,l)
);
},
{
closed = 1;
nodes = (
(-150,500,l),
(-50,500,l),
(-50,600,l),
(-150,600,l)
);
},
{
closed = 1;
nodes = (
(-50,600,l),
(550,600,l),
(550,700,l),
(-50,700,l)
);
},
{
closed = 1;
nodes = (
(550,100,l),
(650,100,l),
(650,200,l),
(550,200,l)
);
},
{
closed = 1;
nodes = (
(550,500,l),
(650,500,l),
(650,600,l),
(550,600,l)
);
},
{
closed = 1;
nodes = (
(650,200,l),
(750,200,l),
(750,500,l),
(650,500,l)
);
}
);
};
hints = (
{
horizontal = 1;
place = (0, 100);
place = (0, 100);
type = Stem;
},
{
horizontal = 1;
place = (600, 100);
place = (600, 100);
type = Stem;
},
{
place = (200, 100);
place = (200, 100);
type = Stem;
},
{
place = (1100, 100);
place = (1100, 100);
type = Stem;
},
{
horizontal = 1;
place = (100, 100);
place = (100, 100);
type = Stem;
},
{
horizontal = 1;
place = (500, 100);
place = (500, 100);
type = Stem;
},
{
place = (300, 100);
place = (300, 100);
type = Stem;
},
{
place = (1000, 100);
place = (1000, 100);
type = Stem;
}
);
layerId = "70DB4E10-A1B7-44B2-BFCF-9F046C279AC2";
shapes = (
{
alignment = -1;
pos = (0,400);
ref = pixel;
scale = (0.5,1);
},
{
alignment = -1;
pos = (0,300);
ref = pixel;
scale = (0.5,1);
},
{
alignment = -1;
pos = (0,200);
ref = pixel;
scale = (0.5,1);
},
{
alignment = -1;
pos = (50,100);
ref = pixel;
scale = (0.5,1);
},
{
alignment = -1;
pos = (100,0);
ref = pixel;
scale = (0.5,1);
},
{
alignment = -1;
pos = (150,-200);
ref = pixel;
scale = (0.5,1);
},
{
alignment = -1;
pos = (200,100);
ref = pixel;
scale = (0.5,1);
},
{
alignment = -1;
pos = (250,0);
ref = pixel;
scale = (0.5,1);
},
{
alignment = -1;
pos = (300,200);
ref = pixel;
scale = (0.5,1);
},
{
alignment = -1;
pos = (350,0);
ref = pixel;
scale = (0.5,1);
},
{
alignment = -1;
pos = (400,100);
ref = pixel;
scale = (0.5,1);
},
{
alignment = -1;
pos = (450,200);
ref = pixel;
scale = (0.5,1);
},
{
alignment = -1;
pos = (450,400);
ref = pixel;
scale = (0.5,1);
},
{
alignment = -1;
pos = (450,300);
ref = pixel;
scale = (0.5,1);
},
{
alignment = -1;
pos = (400,500);
ref = pixel;
scale = (0.5,1);
},
{
alignment = -1;
pos = (350,700);
ref = pixel;
scale = (0.5,1);
},
{
alignment = -1;
pos = (300,600);
ref = pixel;
scale = (0.5,1);
},
{
alignment = -1;
pos = (250,500);
ref = pixel;
scale = (0.5,1);
},
{
alignment = -1;
pos = (200,600);
ref = pixel;
scale = (0.5,1);
},
{
alignment = -1;
pos = (150,800);
ref = pixel;
scale = (0.5,1);
},
{
alignment = -1;
pos = (100,600);
ref = pixel;
scale = (0.5,1);
},
{
alignment = -1;
pos = (50,500);
ref = pixel;
scale = (0.5,1);
}
);
width = 500;
}
);
note = zero;
unicode = 48;
},
{
glyphname = one;
lastChange = "2024-04-05 14:50:31 +0000";
layers = (
{
background = {
shapes = (
{
closed = 1;
nodes = (
(150,100,l),
(-250,100,l),
(-250,0,l),
(750,0,l),
(750,100,l),
(250,100,l),
(250,700,l),
(150,700,l),
(150,600,l),
(-150,600,l),
(-150,500,l),
(150,500,l)
);
}
);
};
hints = (
{
horizontal = 1;
place = (0, 100);
place = (0, 100);
type = Stem;
},
{
horizontal = 1;
place = (500, 100);
place = (500, 100);
type = Stem;
},
{
place = (600, 100);
place = (600, 100);
type = Stem;
}
);
layerId = "AEA028FA-8432-430F-9508-2B91B3DB731A";
shapes = (
{
alignment = -1;
pos = (50,500);
ref = pixel;
scale = (0.5,1);
},
{
alignment = -1;
pos = (100,500);
ref = pixel;
scale = (0.5,1);
},
{
alignment = -1;
pos = (150,500);
ref = pixel;
scale = (0.5,1);
},
{
alignment = -1;
pos = (200,500);
ref = pixel;
scale = (0.5,1);
},
{
alignment = -1;
pos = (200,600);
ref = pixel;
scale = (0.5,1);
},
{
alignment = -1;
pos = (200,400);
ref = pixel;
scale = (0.5,1);
},
{
alignment = -1;
pos = (200,300);
ref = pixel;
scale = (0.5,1);
},
{
alignment = -1;
pos = (200,200);
ref = pixel;
scale = (0.5,1);
},
{
alignment = -1;
pos = (200,100);
ref = pixel;
scale = (0.5,1);
},
{
alignment = -1;
pos = (200,0);
ref = pixel;
scale = (0.5,1);
},
{
alignment = -1;
pos = (150,0);
ref = pixel;
scale = (0.5,1);
},
{
alignment = -1;
pos = (100,0);
ref = pixel;
scale = (0.5,1);
},
{
alignment = -1;
pos = (50,0);
ref = pixel;
scale = (0.5,1);
},
{
alignment = -1;
ref = pixel;
scale = (0.5,1);
},
{
alignment = -1;
pos = (400,0);
ref = pixel;
scale = (0.5,1);
},
{
alignment = -1;
pos = (450,0);
ref = pixel;
scale = (0.5,1);
},
{
alignment = -1;
pos = (350,0);
ref = pixel;
scale = (0.5,1);
},
{
alignment = -1;
pos = (300,0);
ref = pixel;
scale = (0.5,1);
},
{
alignment = -1;
pos = (250,0);
ref = pixel;
scale = (0.5,1);
}
);
width = 500;
},
{
background = {
shapes = (
{
closed = 1;
nodes = (
(150,100,l),
(-250,100,l),
(-250,0,l),
(750,0,l),
(750,100,l),
(250,100,l),
(250,700,l),
(150,700,l),
(150,600,l),
(-150,600,l),
(-150,500,l),
(150,500,l)
);
}
);
};
hints = (
{
horizontal = 1;
place = (0, 100);
place = (0, 100);
type = Stem;
},
{
horizontal = 1;
place = (500, 100);
place = (500, 100);
type = Stem;
},
{
place = (600, 100);
place = (600, 100);
type = Stem;
}
);
layerId = "70DB4E10-A1B7-44B2-BFCF-9F046C279AC2";
shapes = (
{
alignment = -1;
pos = (50,700);
ref = pixel;
scale = (0.5,1);
},
{
alignment = -1;
pos = (100,500);
ref = pixel;
scale = (0.5,1);
},
{
alignment = -1;
pos = (150,600);
ref = pixel;
scale = (0.5,1);
},
{
alignment = -1;
pos = (200,500);
ref = pixel;
scale = (0.5,1);
},
{
alignment = -1;
pos = (200,800);
ref = pixel;
scale = (0.5,1);
},
{
alignment = -1;
pos = (200,400);
ref = pixel;
scale = (0.5,1);
},
{
alignment = -1;
pos = (200,300);
ref = pixel;
scale = (0.5,1);
},
{
alignment = -1;
pos = (200,200);
ref = pixel;
scale = (0.5,1);
},
{
alignment = -1;
pos = (200,100);
ref = pixel;
scale = (0.5,1);
},
{
alignment = -1;
pos = (200,-200);
ref = pixel;
scale = (0.5,1);
},
{
alignment = -1;
pos = (150,0);
ref = pixel;
scale = (0.5,1);
},
{
alignment = -1;
pos = (100,0);
ref = pixel;
scale = (0.5,1);
},
{
alignment = -1;
pos = (50,-100);
ref = pixel;
scale = (0.5,1);
},
{
alignment = -1;
ref = pixel;
scale = (0.5,1);
},
{
alignment = -1;
pos = (400,100);
ref = pixel;
scale = (0.5,1);
},
{
alignment = -1;
pos = (450,0);
ref = pixel;
scale = (0.5,1);
},
{
alignment = -1;
pos = (350,-100);
ref = pixel;
scale = (0.5,1);
},
{
alignment = -1;
pos = (300,0);
ref = pixel;
scale = (0.5,1);
},
{
alignment = -1;
pos = (250,0);
ref = pixel;
scale = (0.5,1);
}
);
width = 500;
}
);
note = one;
unicode = 49;
},
{
glyphname = two;
lastChange = "2024-04-05 14:51:38 +0000";
layers = (
{
background = {
shapes = (
{
closed = 1;
nodes = (
(-250,0,l),
(750,0,l),
(750,100,l),
(-150,100,l),
(-150,300,l),
(-250,300,l)
);
},
{
closed = 1;
nodes = (
(-250,500,l),
(-150,500,l),
(-150,600,l),
(-250,600,l)
);
},
{
closed = 1;
nodes = (
(-150,300,l),
(650,300,l),
(650,400,l),
(-150,400,l)
);
},
{
closed = 1;
nodes = (
(-150,600,l),
(650,600,l),
(650,700,l),
(-150,700,l)
);
},
{
closed = 1;
nodes = (
(650,400,l),
(750,400,l),
(750,600,l),
(650,600,l)
);
}
);
};
hints = (
{
horizontal = 1;
place = (0, 100);
place = (0, 100);
type = Stem;
},
{
horizontal = 1;
place = (300, 100);
place = (300, 100);
type = Stem;
},
{
horizontal = 1;
place = (600, 100);
place = (600, 100);
type = Stem;
},
{
place = (200, 100);
place = (200, 100);
type = Stem;
},
{
place = (1100, 100);
place = (1100, 100);
type = Stem;
},
{
horizontal = 1;
place = (500, 100);
place = (500, 100);
type = Stem;
},
{
horizontal = 1;
place = (400, 200);
place = (400, 200);
type = Stem;
}
);
layerId = "AEA028FA-8432-430F-9508-2B91B3DB731A";
shapes = (
{
alignment = -1;
pos = (50,600);
ref = pixel;
scale = (0.5,1);
},
{
alignment = -1;
pos = (100,600);
ref = pixel;
scale = (0.5,1);
},
{
alignment = -1;
pos = (150,600);
ref = pixel;
scale = (0.5,1);
},
{
alignment = -1;
pos = (200,600);
ref = pixel;
scale = (0.5,1);
},
{
alignment = -1;
pos = (250,600);
ref = pixel;
scale = (0.5,1);
},
{
alignment = -1;
pos = (300,600);
ref = pixel;
scale = (0.5,1);
},
{
alignment = -1;
pos = (350,600);
ref = pixel;
scale = (0.5,1);
},
{
alignment = -1;
pos = (400,600);
ref = pixel;
scale = (0.5,1);
},
{
alignment = -1;
pos = (450,500);
ref = pixel;
scale = (0.5,1);
},
{
alignment = -1;
pos = (450,400);
ref = pixel;
scale = (0.5,1);
},
{
alignment = -1;
pos = (400,300);
ref = pixel;
scale = (0.5,1);
},
{
alignment = -1;
pos = (350,300);
ref = pixel;
scale = (0.5,1);
},
{
alignment = -1;
pos = (300,300);
ref = pixel;
scale = (0.5,1);
},
{
alignment = -1;
pos = (250,300);
ref = pixel;
scale = (0.5,1);
},
{
alignment = -1;
pos = (200,300);
ref = pixel;
scale = (0.5,1);
},
{
alignment = -1;
pos = (150,300);
ref = pixel;
scale = (0.5,1);
},
{
alignment = -1;
pos = (100,300);
ref = pixel;
scale = (0.5,1);
},
{
alignment = -1;
pos = (50,300);
ref = pixel;
scale = (0.5,1);
},
{
alignment = -1;
pos = (0,500);
ref = pixel;
scale = (0.5,1);
},
{
alignment = -1;
pos = (0,200);
ref = pixel;
scale = (0.5,1);
},
{
alignment = -1;
pos = (0,100);
ref = pixel;
scale = (0.5,1);
},
{
alignment = -1;
ref = pixel;
scale = (0.5,1);
},
{
alignment = -1;
pos = (50,0);
ref = pixel;
scale = (0.5,1);
},
{
alignment = -1;
pos = (100,0);
ref = pixel;
scale = (0.5,1);
},
{
alignment = -1;
pos = (150,0);
ref = pixel;
scale = (0.5,1);
},
{
alignment = -1;
pos = (200,0);
ref = pixel;
scale = (0.5,1);
},
{
alignment = -1;
pos = (250,0);
ref = pixel;
scale = (0.5,1);
},
{
alignment = -1;
pos = (300,0);
ref = pixel;
scale = (0.5,1);
},
{
alignment = -1;
pos = (350,0);
ref = pixel;
scale = (0.5,1);
},
{
alignment = -1;
pos = (400,0);
ref = pixel;
scale = (0.5,1);
},
{
alignment = -1;
pos = (450,0);
ref = pixel;
scale = (0.5,1);
}
);
width = 500;
},
{
background = {
shapes = (
{
closed = 1;
nodes = (
(-250,0,l),
(750,0,l),
(750,100,l),
(-150,100,l),
(-150,300,l),
(-250,300,l)
);
},
{
closed = 1;
nodes = (
(-250,500,l),
(-150,500,l),
(-150,600,l),
(-250,600,l)
);
},
{
closed = 1;
nodes = (
(-150,300,l),
(650,300,l),
(650,400,l),
(-150,400,l)
);
},
{
closed = 1;
nodes = (
(-150,600,l),
(650,600,l),
(650,700,l),
(-150,700,l)
);
},
{
closed = 1;
nodes = (
(650,400,l),
(750,400,l),
(750,600,l),
(650,600,l)
);
}
);
};
hints = (
{
horizontal = 1;
place = (0, 100);
place = (0, 100);
type = Stem;
},
{
horizontal = 1;
place = (300, 100);
place = (300, 100);
type = Stem;
},
{
horizontal = 1;
place = (600, 100);
place = (600, 100);
type = Stem;
},
{
place = (200, 100);
place = (200, 100);
type = Stem;
},
{
place = (1100, 100);
place = (1100, 100);
type = Stem;
},
{
horizontal = 1;
place = (500, 100);
place = (500, 100);
type = Stem;
},
{
horizontal = 1;
place = (400, 200);
place = (400, 200);
type = Stem;
}
);
layerId = "70DB4E10-A1B7-44B2-BFCF-9F046C279AC2";
shapes = (
{
alignment = -1;
pos = (50,700);
ref = pixel;
scale = (0.5,1);
},
{
alignment = -1;
pos = (100,600);
ref = pixel;
scale = (0.5,1);
},
{
alignment = -1;
pos = (150,400);
ref = pixel;
scale = (0.5,1);
},
{
alignment = -1;
pos = (200,600);
ref = pixel;
scale = (0.5,1);
},
{
alignment = -1;
pos = (250,600);
ref = pixel;
scale = (0.5,1);
},
{
alignment = -1;
pos = (300,800);
ref = pixel;
scale = (0.5,1);
},
{
alignment = -1;
pos = (350,600);
ref = pixel;
scale = (0.5,1);
},
{
alignment = -1;
pos = (400,600);
ref = pixel;
scale = (0.5,1);
},
{
alignment = -1;
pos = (450,500);
ref = pixel;
scale = (0.5,1);
},
{
alignment = -1;
pos = (450,400);
ref = pixel;
scale = (0.5,1);
},
{
alignment = -1;
pos = (400,300);
ref = pixel;
scale = (0.5,1);
},
{
alignment = -1;
pos = (350,200);
ref = pixel;
scale = (0.5,1);
},
{
alignment = -1;
pos = (300,300);
ref = pixel;
scale = (0.5,1);
},
{
alignment = -1;
pos = (250,400);
ref = pixel;
scale = (0.5,1);
},
{
alignment = -1;
pos = (200,300);
ref = pixel;
scale = (0.5,1);
},
{
alignment = -1;
pos = (150,300);
ref = pixel;
scale = (0.5,1);
},
{
alignment = -1;
pos = (100,300);
ref = pixel;
scale = (0.5,1);
},
{
alignment = -1;
pos = (50,300);
ref = pixel;
scale = (0.5,1);
},
{
alignment = -1;
pos = (0,500);
ref = pixel;
scale = (0.5,1);
},
{
alignment = -1;
pos = (0,200);
ref = pixel;
scale = (0.5,1);
},
{
alignment = -1;
pos = (0,100);
ref = pixel;
scale = (0.5,1);
},
{
alignment = -1;
ref = pixel;
scale = (0.5,1);
},
{
alignment = -1;
pos = (50,0);
ref = pixel;
scale = (0.5,1);
},
{
alignment = -1;
pos = (100,0);
ref = pixel;
scale = (0.5,1);
},
{
alignment = -1;
pos = (150,-200);
ref = pixel;
scale = (0.5,1);
},
{
alignment = -1;
pos = (200,0);
ref = pixel;
scale = (0.5,1);
},
{
alignment = -1;
pos = (250,100);
ref = pixel;
scale = (0.5,1);
},
{
alignment = -1;
pos = (300,0);
ref = pixel;
scale = (0.5,1);
},
{
alignment = -1;
pos = (350,-100);
ref = pixel;
scale = (0.5,1);
},
{
alignment = -1;
pos = (400,0);
ref = pixel;
scale = (0.5,1);
},
{
alignment = -1;
pos = (450,0);
ref = pixel;
scale = (0.5,1);
}
);
width = 500;
}
);
note = two;
unicode = 50;
},
{
glyphname = three;
lastChange = "2024-04-05 14:50:43 +0000";
layers = (
{
background = {
shapes = (
{
closed = 1;
nodes = (
(-150,0,l),
(650,0,l),
(650,100,l),
(-150,100,l)
);
},
{
closed = 1;
nodes = (
(-250,100,l),
(-150,100,l),
(-150,200,l),
(-250,200,l)
);
},
{
closed = 1;
nodes = (
(-250,500,l),
(-150,500,l),
(-150,600,l),
(-250,600,l)
);
},
{
closed = 1;
nodes = (
(-150,600,l),
(650,600,l),
(650,700,l),
(-150,700,l)
);
},
{
closed = 1;
nodes = (
(-50,300,l),
(650,300,l),
(650,400,l),
(-50,400,l)
);
},
{
closed = 1;
nodes = (
(650,100,l),
(750,100,l),
(750,300,l),
(650,300,l)
);
},
{
closed = 1;
nodes = (
(650,400,l),
(750,400,l),
(750,600,l),
(650,600,l)
);
}
);
};
hints = (
{
horizontal = 1;
place = (0, 100);
place = (0, 100);
type = Stem;
},
{
horizontal = 1;
place = (300, 100);
place = (300, 100);
type = Stem;
},
{
horizontal = 1;
place = (600, 100);
place = (600, 100);
type = Stem;
},
{
place = (200, 100);
place = (200, 100);
type = Stem;
},
{
place = (1100, 100);
place = (1100, 100);
type = Stem;
},
{
horizontal = 1;
place = (100, 100);
place = (100, 100);
type = Stem;
},
{
horizontal = 1;
place = (500, 100);
place = (500, 100);
type = Stem;
},
{
horizontal = 1;
place = (100, 200);
place = (100, 200);
type = Stem;
},
{
horizontal = 1;
place = (400, 200);
place = (400, 200);
type = Stem;
}
);
layerId = "AEA028FA-8432-430F-9508-2B91B3DB731A";
shapes = (
{
alignment = -1;
pos = (0,500);
ref = pixel;
scale = (0.5,1);
},
{
alignment = -1;
pos = (50,600);
ref = pixel;
scale = (0.5,1);
},
{
alignment = -1;
pos = (100,600);
ref = pixel;
scale = (0.5,1);
},
{
alignment = -1;
pos = (150,600);
ref = pixel;
scale = (0.5,1);
},
{
alignment = -1;
pos = (200,600);
ref = pixel;
scale = (0.5,1);
},
{
alignment = -1;
pos = (250,600);
ref = pixel;
scale = (0.5,1);
},
{
alignment = -1;
pos = (300,600);
ref = pixel;
scale = (0.5,1);
},
{
alignment = -1;
pos = (350,600);
ref = pixel;
scale = (0.5,1);
},
{
alignment = -1;
pos = (400,600);
ref = pixel;
scale = (0.5,1);
},
{
alignment = -1;
pos = (450,500);
ref = pixel;
scale = (0.5,1);
},
{
alignment = -1;
pos = (450,400);
ref = pixel;
scale = (0.5,1);
},
{
alignment = -1;
pos = (400,300);
ref = pixel;
scale = (0.5,1);
},
{
alignment = -1;
pos = (350,300);
ref = pixel;
scale = (0.5,1);
},
{
alignment = -1;
pos = (300,300);
ref = pixel;
scale = (0.5,1);
},
{
alignment = -1;
pos = (250,300);
ref = pixel;
scale = (0.5,1);
},
{
alignment = -1;
pos = (200,300);
ref = pixel;
scale = (0.5,1);
},
{
alignment = -1;
pos = (150,300);
ref = pixel;
scale = (0.5,1);
},
{
alignment = -1;
pos = (100,300);
ref = pixel;
scale = (0.5,1);
},
{
alignment = -1;
pos = (450,200);
ref = pixel;
scale = (0.5,1);
},
{
alignment = -1;
pos = (450,100);
ref = pixel;
scale = (0.5,1);
},
{
alignment = -1;
pos = (400,0);
ref = pixel;
scale = (0.5,1);
},
{
alignment = -1;
pos = (350,0);
ref = pixel;
scale = (0.5,1);
},
{
alignment = -1;
pos = (300,0);
ref = pixel;
scale = (0.5,1);
},
{
alignment = -1;
pos = (250,0);
ref = pixel;
scale = (0.5,1);
},
{
alignment = -1;
pos = (200,0);
ref = pixel;
scale = (0.5,1);
},
{
alignment = -1;
pos = (150,0);
ref = pixel;
scale = (0.5,1);
},
{
alignment = -1;
pos = (100,0);
ref = pixel;
scale = (0.5,1);
},
{
alignment = -1;
pos = (50,0);
ref = pixel;
scale = (0.5,1);
},
{
alignment = -1;
pos = (0,100);
ref = pixel;
scale = (0.5,1);
}
);
width = 500;
},
{
background = {
shapes = (
{
closed = 1;
nodes = (
(-150,0,l),
(650,0,l),
(650,100,l),
(-150,100,l)
);
},
{
closed = 1;
nodes = (
(-250,100,l),
(-150,100,l),
(-150,200,l),
(-250,200,l)
);
},
{
closed = 1;
nodes = (
(-250,500,l),
(-150,500,l),
(-150,600,l),
(-250,600,l)
);
},
{
closed = 1;
nodes = (
(-150,600,l),
(650,600,l),
(650,700,l),
(-150,700,l)
);
},
{
closed = 1;
nodes = (
(-50,300,l),
(650,300,l),
(650,400,l),
(-50,400,l)
);
},
{
closed = 1;
nodes = (
(650,100,l),
(750,100,l),
(750,300,l),
(650,300,l)
);
},
{
closed = 1;
nodes = (
(650,400,l),
(750,400,l),
(750,600,l),
(650,600,l)
);
}
);
};
hints = (
{
horizontal = 1;
place = (0, 100);
place = (0, 100);
type = Stem;
},
{
horizontal = 1;
place = (300, 100);
place = (300, 100);
type = Stem;
},
{
horizontal = 1;
place = (600, 100);
place = (600, 100);
type = Stem;
},
{
place = (200, 100);
place = (200, 100);
type = Stem;
},
{
place = (1100, 100);
place = (1100, 100);
type = Stem;
},
{
horizontal = 1;
place = (100, 100);
place = (100, 100);
type = Stem;
},
{
horizontal = 1;
place = (500, 100);
place = (500, 100);
type = Stem;
},
{
horizontal = 1;
place = (100, 200);
place = (100, 200);
type = Stem;
},
{
horizontal = 1;
place = (400, 200);
place = (400, 200);
type = Stem;
}
);
layerId = "70DB4E10-A1B7-44B2-BFCF-9F046C279AC2";
shapes = (
{
alignment = -1;
pos = (0,500);
ref = pixel;
scale = (0.5,1);
},
{
alignment = -1;
pos = (50,600);
ref = pixel;
scale = (0.5,1);
},
{
alignment = -1;
pos = (100,700);
ref = pixel;
scale = (0.5,1);
},
{
alignment = -1;
pos = (150,600);
ref = pixel;
scale = (0.5,1);
},
{
alignment = -1;
pos = (200,800);
ref = pixel;
scale = (0.5,1);
},
{
alignment = -1;
pos = (250,500);
ref = pixel;
scale = (0.5,1);
},
{
alignment = -1;
pos = (300,600);
ref = pixel;
scale = (0.5,1);
},
{
alignment = -1;
pos = (350,700);
ref = pixel;
scale = (0.5,1);
},
{
alignment = -1;
pos = (400,600);
ref = pixel;
scale = (0.5,1);
},
{
alignment = -1;
pos = (450,500);
ref = pixel;
scale = (0.5,1);
},
{
alignment = -1;
pos = (450,400);
ref = pixel;
scale = (0.5,1);
},
{
alignment = -1;
pos = (400,300);
ref = pixel;
scale = (0.5,1);
},
{
alignment = -1;
pos = (350,400);
ref = pixel;
scale = (0.5,1);
},
{
alignment = -1;
pos = (300,300);
ref = pixel;
scale = (0.5,1);
},
{
alignment = -1;
pos = (250,300);
ref = pixel;
scale = (0.5,1);
},
{
alignment = -1;
pos = (200,300);
ref = pixel;
scale = (0.5,1);
},
{
alignment = -1;
pos = (150,200);
ref = pixel;
scale = (0.5,1);
},
{
alignment = -1;
pos = (100,300);
ref = pixel;
scale = (0.5,1);
},
{
alignment = -1;
pos = (450,200);
ref = pixel;
scale = (0.5,1);
},
{
alignment = -1;
pos = (450,100);
ref = pixel;
scale = (0.5,1);
},
{
alignment = -1;
pos = (400,0);
ref = pixel;
scale = (0.5,1);
},
{
alignment = -1;
pos = (350,-100);
ref = pixel;
scale = (0.5,1);
},
{
alignment = -1;
pos = (300,0);
ref = pixel;
scale = (0.5,1);
},
{
alignment = -1;
pos = (250,0);
ref = pixel;
scale = (0.5,1);
},
{
alignment = -1;
pos = (200,-200);
ref = pixel;
scale = (0.5,1);
},
{
alignment = -1;
pos = (150,0);
ref = pixel;
scale = (0.5,1);
},
{
alignment = -1;
pos = (100,100);
ref = pixel;
scale = (0.5,1);
},
{
alignment = -1;
pos = (50,0);
ref = pixel;
scale = (0.5,1);
},
{
alignment = -1;
pos = (0,100);
ref = pixel;
scale = (0.5,1);
}
);
width = 500;
}
);
note = three;
unicode = 51;
},
{
glyphname = four;
lastChange = "2024-03-18 15:43:30 +0000";
layers = (
{
background = {
shapes = (
{
closed = 1;
nodes = (
(450,600,l),
(450,300,l),
(-50,300,l),
(-50,400,l),
(-250,400,l),
(-250,200,l),
(450,200,l),
(450,0,l),
(550,0,l),
(550,200,l),
(750,200,l),
(750,300,l),
(550,300,l),
(550,700,l),
(350,700,l),
(350,600,l)
);
},
{
closed = 1;
nodes = (
(-50,400,l),
(150,400,l),
(150,500,l),
(-50,500,l)
);
},
{
closed = 1;
nodes = (
(150,500,l),
(350,500,l),
(350,600,l),
(150,600,l)
);
}
);
};
hints = (
{
horizontal = 1;
place = (200, 100);
place = (200, 100);
type = Stem;
},
{
horizontal = 1;
place = (600, 100);
place = (600, 100);
type = Stem;
},
{
place = (200, 200);
place = (200, 200);
type = Stem;
},
{
place = (600, 200);
place = (600, 200);
type = Stem;
},
{
place = (900, 100);
place = (900, 100);
type = Stem;
},
{
horizontal = 1;
place = (400, 100);
place = (400, 100);
type = Stem;
},
{
place = (400, 200);
place = (400, 200);
type = Stem;
},
{
horizontal = 1;
place = (500, 100);
place = (500, 100);
type = Stem;
}
);
layerId = "AEA028FA-8432-430F-9508-2B91B3DB731A";
shapes = (
{
alignment = -1;
pos = (0,300);
ref = pixel;
scale = (0.5,1);
},
{
alignment = -1;
pos = (50,300);
ref = pixel;
scale = (0.5,1);
},
{
alignment = -1;
pos = (50,200);
ref = pixel;
scale = (0.5,1);
},
{
alignment = -1;
pos = (0,200);
ref = pixel;
scale = (0.5,1);
},
{
alignment = -1;
pos = (100,200);
ref = pixel;
scale = (0.5,1);
},
{
alignment = -1;
pos = (150,200);
ref = pixel;
scale = (0.5,1);
},
{
alignment = -1;
pos = (200,200);
ref = pixel;
scale = (0.5,1);
},
{
alignment = -1;
pos = (250,200);
ref = pixel;
scale = (0.5,1);
},
{
alignment = -1;
pos = (300,200);
ref = pixel;
scale = (0.5,1);
},
{
alignment = -1;
pos = (350,200);
ref = pixel;
scale = (0.5,1);
},
{
alignment = -1;
pos = (400,200);
ref = pixel;
scale = (0.5,1);
},
{
alignment = -1;
pos = (450,200);
ref = pixel;
scale = (0.5,1);
},
{
alignment = -1;
pos = (350,500);
ref = pixel;
scale = (0.5,1);
},
{
alignment = -1;
pos = (350,600);
ref = pixel;
scale = (0.5,1);
},
{
alignment = -1;
pos = (300,600);
ref = pixel;
scale = (0.5,1);
},
{
alignment = -1;
pos = (250,500);
ref = pixel;
scale = (0.5,1);
},
{
alignment = -1;
pos = (200,500);
ref = pixel;
scale = (0.5,1);
},
{
alignment = -1;
pos = (150,400);
ref = pixel;
scale = (0.5,1);
},
{
alignment = -1;
pos = (100,400);
ref = pixel;
scale = (0.5,1);
},
{
alignment = -1;
pos = (350,400);
ref = pixel;
scale = (0.5,1);
},
{
alignment = -1;
pos = (350,300);
ref = pixel;
scale = (0.5,1);
},
{
alignment = -1;
pos = (350,100);
ref = pixel;
scale = (0.5,1);
},
{
alignment = -1;
pos = (350,0);
ref = pixel;
scale = (0.5,1);
}
);
width = 500;
},
{
background = {
shapes = (
{
closed = 1;
nodes = (
(450,600,l),
(450,300,l),
(-50,300,l),
(-50,400,l),
(-250,400,l),
(-250,200,l),
(450,200,l),
(450,0,l),
(550,0,l),
(550,200,l),
(750,200,l),
(750,300,l),
(550,300,l),
(550,700,l),
(350,700,l),
(350,600,l)
);
},
{
closed = 1;
nodes = (
(-50,400,l),
(150,400,l),
(150,500,l),
(-50,500,l)
);
},
{
closed = 1;
nodes = (
(150,500,l),
(350,500,l),
(350,600,l),
(150,600,l)
);
}
);
};
hints = (
{
horizontal = 1;
place = (200, 100);
place = (200, 100);
type = Stem;
},
{
horizontal = 1;
place = (600, 100);
place = (600, 100);
type = Stem;
},
{
place = (200, 200);
place = (200, 200);
type = Stem;
},
{
place = (600, 200);
place = (600, 200);
type = Stem;
},
{
place = (900, 100);
place = (900, 100);
type = Stem;
},
{
horizontal = 1;
place = (400, 100);
place = (400, 100);
type = Stem;
},
{
place = (400, 200);
place = (400, 200);
type = Stem;
},
{
horizontal = 1;
place = (500, 100);
place = (500, 100);
type = Stem;
}
);
layerId = "70DB4E10-A1B7-44B2-BFCF-9F046C279AC2";
shapes = (
{
alignment = -1;
pos = (0,300);
ref = pixel;
scale = (0.5,1);
},
{
alignment = -1;
pos = (50,300);
ref = pixel;
scale = (0.5,1);
},
{
alignment = -1;
pos = (50,100);
ref = pixel;
scale = (0.5,1);
},
{
alignment = -1;
pos = (0,200);
ref = pixel;
scale = (0.5,1);
},
{
alignment = -1;
pos = (100,200);
ref = pixel;
scale = (0.5,1);
},
{
alignment = -1;
pos = (150,0);
ref = pixel;
scale = (0.5,1);
},
{
alignment = -1;
pos = (200,200);
ref = pixel;
scale = (0.5,1);
},
{
alignment = -1;
pos = (250,200);
ref = pixel;
scale = (0.5,1);
},
{
alignment = -1;
pos = (300,100);
ref = pixel;
scale = (0.5,1);
},
{
alignment = -1;
pos = (350,200);
ref = pixel;
scale = (0.5,1);
},
{
alignment = -1;
pos = (400,0);
ref = pixel;
scale = (0.5,1);
},
{
alignment = -1;
pos = (450,200);
ref = pixel;
scale = (0.5,1);
},
{
alignment = -1;
pos = (350,500);
ref = pixel;
scale = (0.5,1);
},
{
alignment = -1;
pos = (350,800);
ref = pixel;
scale = (0.5,1);
},
{
alignment = -1;
pos = (300,600);
ref = pixel;
scale = (0.5,1);
},
{
alignment = -1;
pos = (250,700);
ref = pixel;
scale = (0.5,1);
},
{
alignment = -1;
pos = (200,300);
ref = pixel;
scale = (0.5,1);
},
{
alignment = -1;
pos = (150,400);
ref = pixel;
scale = (0.5,1);
},
{
alignment = -1;
pos = (100,700);
ref = pixel;
scale = (0.5,1);
},
{
alignment = -1;
pos = (350,400);
ref = pixel;
scale = (0.5,1);
},
{
alignment = -1;
pos = (350,300);
ref = pixel;
scale = (0.5,1);
},
{
alignment = -1;
pos = (350,100);
ref = pixel;
scale = (0.5,1);
},
{
alignment = -1;
pos = (350,0);
ref = pixel;
scale = (0.5,1);
}
);
width = 500;
}
);
note = four;
unicode = 52;
},
{
glyphname = five;
lastChange = "2024-04-05 14:51:34 +0000";
layers = (
{
background = {
shapes = (
{
closed = 1;
nodes = (
(-150,600,l),
(750,600,l),
(750,700,l),
(-250,700,l),
(-250,400,l),
(650,400,l),
(650,500,l),
(-150,500,l)
);
},
{
closed = 1;
nodes = (
(-250,100,l),
(-150,100,l),
(-150,200,l),
(-250,200,l)
);
},
{
closed = 1;
nodes = (
(-150,0,l),
(650,0,l),
(650,100,l),
(-150,100,l)
);
},
{
closed = 1;
nodes = (
(650,100,l),
(750,100,l),
(750,400,l),
(650,400,l)
);
}
);
};
hints = (
{
horizontal = 1;
place = (0, 100);
place = (0, 100);
type = Stem;
},
{
horizontal = 1;
place = (400, 100);
place = (400, 100);
type = Stem;
},
{
horizontal = 1;
place = (600, 100);
place = (600, 100);
type = Stem;
},
{
place = (200, 100);
place = (200, 100);
type = Stem;
},
{
place = (1100, 100);
place = (1100, 100);
type = Stem;
},
{
horizontal = 1;
place = (100, 100);
place = (100, 100);
type = Stem;
}
);
layerId = "AEA028FA-8432-430F-9508-2B91B3DB731A";
shapes = (
{
alignment = -1;
pos = (450,600);
ref = pixel;
scale = (0.5,1);
},
{
alignment = -1;
pos = (400,600);
ref = pixel;
scale = (0.5,1);
},
{
alignment = -1;
pos = (350,600);
ref = pixel;
scale = (0.5,1);
},
{
alignment = -1;
pos = (300,600);
ref = pixel;
scale = (0.5,1);
},
{
alignment = -1;
pos = (250,600);
ref = pixel;
scale = (0.5,1);
},
{
alignment = -1;
pos = (200,600);
ref = pixel;
scale = (0.5,1);
},
{
alignment = -1;
pos = (150,600);
ref = pixel;
scale = (0.5,1);
},
{
alignment = -1;
pos = (100,600);
ref = pixel;
scale = (0.5,1);
},
{
alignment = -1;
pos = (50,600);
ref = pixel;
scale = (0.5,1);
},
{
alignment = -1;
pos = (0,600);
ref = pixel;
scale = (0.5,1);
},
{
alignment = -1;
pos = (0,500);
ref = pixel;
scale = (0.5,1);
},
{
alignment = -1;
pos = (0,400);
ref = pixel;
scale = (0.5,1);
},
{
alignment = -1;
pos = (50,400);
ref = pixel;
scale = (0.5,1);
},
{
alignment = -1;
pos = (100,400);
ref = pixel;
scale = (0.5,1);
},
{
alignment = -1;
pos = (150,400);
ref = pixel;
scale = (0.5,1);
},
{
alignment = -1;
pos = (200,400);
ref = pixel;
scale = (0.5,1);
},
{
alignment = -1;
pos = (250,400);
ref = pixel;
scale = (0.5,1);
},
{
alignment = -1;
pos = (300,400);
ref = pixel;
scale = (0.5,1);
},
{
alignment = -1;
pos = (350,400);
ref = pixel;
scale = (0.5,1);
},
{
alignment = -1;
pos = (400,400);
ref = pixel;
scale = (0.5,1);
},
{
alignment = -1;
pos = (450,300);
ref = pixel;
scale = (0.5,1);
},
{
alignment = -1;
pos = (450,200);
ref = pixel;
scale = (0.5,1);
},
{
alignment = -1;
pos = (450,100);
ref = pixel;
scale = (0.5,1);
},
{
alignment = -1;
pos = (400,0);
ref = pixel;
scale = (0.5,1);
},
{
alignment = -1;
pos = (350,0);
ref = pixel;
scale = (0.5,1);
},
{
alignment = -1;
pos = (300,0);
ref = pixel;
scale = (0.5,1);
},
{
alignment = -1;
pos = (250,0);
ref = pixel;
scale = (0.5,1);
},
{
alignment = -1;
pos = (200,0);
ref = pixel;
scale = (0.5,1);
},
{
alignment = -1;
pos = (150,0);
ref = pixel;
scale = (0.5,1);
},
{
alignment = -1;
pos = (100,0);
ref = pixel;
scale = (0.5,1);
},
{
alignment = -1;
pos = (50,0);
ref = pixel;
scale = (0.5,1);
},
{
alignment = -1;
pos = (0,100);
ref = pixel;
scale = (0.5,1);
}
);
width = 500;
},
{
background = {
shapes = (
{
closed = 1;
nodes = (
(-150,600,l),
(750,600,l),
(750,700,l),
(-250,700,l),
(-250,400,l),
(650,400,l),
(650,500,l),
(-150,500,l)
);
},
{
closed = 1;
nodes = (
(-250,100,l),
(-150,100,l),
(-150,200,l),
(-250,200,l)
);
},
{
closed = 1;
nodes = (
(-150,0,l),
(650,0,l),
(650,100,l),
(-150,100,l)
);
},
{
closed = 1;
nodes = (
(650,100,l),
(750,100,l),
(750,400,l),
(650,400,l)
);
}
);
};
hints = (
{
horizontal = 1;
place = (0, 100);
place = (0, 100);
type = Stem;
},
{
horizontal = 1;
place = (400, 100);
place = (400, 100);
type = Stem;
},
{
horizontal = 1;
place = (600, 100);
place = (600, 100);
type = Stem;
},
{
place = (200, 100);
place = (200, 100);
type = Stem;
},
{
place = (1100, 100);
place = (1100, 100);
type = Stem;
},
{
horizontal = 1;
place = (100, 100);
place = (100, 100);
type = Stem;
}
);
layerId = "70DB4E10-A1B7-44B2-BFCF-9F046C279AC2";
shapes = (
{
alignment = -1;
pos = (450,600);
ref = pixel;
scale = (0.5,1);
},
{
alignment = -1;
pos = (400,800);
ref = pixel;
scale = (0.5,1);
},
{
alignment = -1;
pos = (350,600);
ref = pixel;
scale = (0.5,1);
},
{
alignment = -1;
pos = (300,700);
ref = pixel;
scale = (0.5,1);
},
{
alignment = -1;
pos = (250,500);
ref = pixel;
scale = (0.5,1);
},
{
alignment = -1;
pos = (200,600);
ref = pixel;
scale = (0.5,1);
},
{
alignment = -1;
pos = (150,600);
ref = pixel;
scale = (0.5,1);
},
{
alignment = -1;
pos = (100,800);
ref = pixel;
scale = (0.5,1);
},
{
alignment = -1;
pos = (50,600);
ref = pixel;
scale = (0.5,1);
},
{
alignment = -1;
pos = (0,600);
ref = pixel;
scale = (0.5,1);
},
{
alignment = -1;
pos = (0,500);
ref = pixel;
scale = (0.5,1);
},
{
alignment = -1;
pos = (0,400);
ref = pixel;
scale = (0.5,1);
},
{
alignment = -1;
pos = (50,400);
ref = pixel;
scale = (0.5,1);
},
{
alignment = -1;
pos = (100,400);
ref = pixel;
scale = (0.5,1);
},
{
alignment = -1;
pos = (150,300);
ref = pixel;
scale = (0.5,1);
},
{
alignment = -1;
pos = (200,400);
ref = pixel;
scale = (0.5,1);
},
{
alignment = -1;
pos = (250,300);
ref = pixel;
scale = (0.5,1);
},
{
alignment = -1;
pos = (300,400);
ref = pixel;
scale = (0.5,1);
},
{
alignment = -1;
pos = (350,200);
ref = pixel;
scale = (0.5,1);
},
{
alignment = -1;
pos = (400,400);
ref = pixel;
scale = (0.5,1);
},
{
alignment = -1;
pos = (450,300);
ref = pixel;
scale = (0.5,1);
},
{
alignment = -1;
pos = (450,200);
ref = pixel;
scale = (0.5,1);
},
{
alignment = -1;
pos = (450,100);
ref = pixel;
scale = (0.5,1);
},
{
alignment = -1;
pos = (400,0);
ref = pixel;
scale = (0.5,1);
},
{
alignment = -1;
pos = (350,-200);
ref = pixel;
scale = (0.5,1);
},
{
alignment = -1;
pos = (300,0);
ref = pixel;
scale = (0.5,1);
},
{
alignment = -1;
pos = (250,-100);
ref = pixel;
scale = (0.5,1);
},
{
alignment = -1;
pos = (200,0);
ref = pixel;
scale = (0.5,1);
},
{
alignment = -1;
pos = (150,0);
ref = pixel;
scale = (0.5,1);
},
{
alignment = -1;
pos = (100,-200);
ref = pixel;
scale = (0.5,1);
},
{
alignment = -1;
pos = (50,0);
ref = pixel;
scale = (0.5,1);
},
{
alignment = -1;
pos = (0,100);
ref = pixel;
scale = (0.5,1);
}
);
width = 500;
}
);
note = five;
unicode = 53;
},
{
glyphname = six;
lastChange = "2024-04-05 14:51:13 +0000";
layers = (
{
background = {
shapes = (
{
closed = 1;
nodes = (
(-50,600,l),
(650,600,l),
(650,700,l),
(-50,700,l)
);
},
{
closed = 1;
nodes = (
(-250,100,l),
(-150,100,l),
(-150,300,l),
(650,300,l),
(650,400,l),
(-150,400,l),
(-150,500,l),
(-250,500,l)
);
},
{
closed = 1;
nodes = (
(-150,0,l),
(650,0,l),
(650,100,l),
(-150,100,l)
);
},
{
closed = 1;
nodes = (
(-150,500,l),
(-50,500,l),
(-50,600,l),
(-150,600,l)
);
},
{
closed = 1;
nodes = (
(650,100,l),
(750,100,l),
(750,300,l),
(650,300,l)
);
}
);
};
hints = (
{
horizontal = 1;
place = (0, 100);
place = (0, 100);
type = Stem;
},
{
horizontal = 1;
place = (300, 100);
place = (300, 100);
type = Stem;
},
{
horizontal = 1;
place = (600, 100);
place = (600, 100);
type = Stem;
},
{
place = (200, 100);
place = (200, 100);
type = Stem;
},
{
place = (1100, 100);
place = (1100, 100);
type = Stem;
},
{
horizontal = 1;
place = (100, 200);
place = (100, 200);
type = Stem;
},
{
horizontal = 1;
place = (500, 100);
place = (500, 100);
type = Stem;
},
{
place = (300, 100);
place = (300, 100);
type = Stem;
}
);
layerId = "AEA028FA-8432-430F-9508-2B91B3DB731A";
shapes = (
{
alignment = -1;
pos = (0,400);
ref = pixel;
scale = (0.5,1);
},
{
alignment = -1;
pos = (0,300);
ref = pixel;
scale = (0.5,1);
},
{
alignment = -1;
pos = (0,200);
ref = pixel;
scale = (0.5,1);
},
{
alignment = -1;
pos = (0,100);
ref = pixel;
scale = (0.5,1);
},
{
alignment = -1;
pos = (50,0);
ref = pixel;
scale = (0.5,1);
},
{
alignment = -1;
pos = (100,0);
ref = pixel;
scale = (0.5,1);
},
{
alignment = -1;
pos = (150,0);
ref = pixel;
scale = (0.5,1);
},
{
alignment = -1;
pos = (200,0);
ref = pixel;
scale = (0.5,1);
},
{
alignment = -1;
pos = (250,0);
ref = pixel;
scale = (0.5,1);
},
{
alignment = -1;
pos = (300,0);
ref = pixel;
scale = (0.5,1);
},
{
alignment = -1;
pos = (350,0);
ref = pixel;
scale = (0.5,1);
},
{
alignment = -1;
pos = (400,0);
ref = pixel;
scale = (0.5,1);
},
{
alignment = -1;
pos = (450,100);
ref = pixel;
scale = (0.5,1);
},
{
alignment = -1;
pos = (450,200);
ref = pixel;
scale = (0.5,1);
},
{
alignment = -1;
pos = (400,300);
ref = pixel;
scale = (0.5,1);
},
{
alignment = -1;
pos = (350,300);
ref = pixel;
scale = (0.5,1);
},
{
alignment = -1;
pos = (300,300);
ref = pixel;
scale = (0.5,1);
},
{
alignment = -1;
pos = (250,300);
ref = pixel;
scale = (0.5,1);
},
{
alignment = -1;
pos = (200,300);
ref = pixel;
scale = (0.5,1);
},
{
alignment = -1;
pos = (150,300);
ref = pixel;
scale = (0.5,1);
},
{
alignment = -1;
pos = (100,300);
ref = pixel;
scale = (0.5,1);
},
{
alignment = -1;
pos = (50,300);
ref = pixel;
scale = (0.5,1);
},
{
alignment = -1;
pos = (50,500);
ref = pixel;
scale = (0.5,1);
},
{
alignment = -1;
pos = (100,600);
ref = pixel;
scale = (0.5,1);
},
{
alignment = -1;
pos = (150,600);
ref = pixel;
scale = (0.5,1);
},
{
alignment = -1;
pos = (200,600);
ref = pixel;
scale = (0.5,1);
},
{
alignment = -1;
pos = (250,600);
ref = pixel;
scale = (0.5,1);
},
{
alignment = -1;
pos = (300,600);
ref = pixel;
scale = (0.5,1);
},
{
alignment = -1;
pos = (350,600);
ref = pixel;
scale = (0.5,1);
},
{
alignment = -1;
pos = (400,600);
ref = pixel;
scale = (0.5,1);
}
);
width = 500;
},
{
background = {
shapes = (
{
closed = 1;
nodes = (
(-50,600,l),
(650,600,l),
(650,700,l),
(-50,700,l)
);
},
{
closed = 1;
nodes = (
(-250,100,l),
(-150,100,l),
(-150,300,l),
(650,300,l),
(650,400,l),
(-150,400,l),
(-150,500,l),
(-250,500,l)
);
},
{
closed = 1;
nodes = (
(-150,0,l),
(650,0,l),
(650,100,l),
(-150,100,l)
);
},
{
closed = 1;
nodes = (
(-150,500,l),
(-50,500,l),
(-50,600,l),
(-150,600,l)
);
},
{
closed = 1;
nodes = (
(650,100,l),
(750,100,l),
(750,300,l),
(650,300,l)
);
}
);
};
hints = (
{
horizontal = 1;
place = (0, 100);
place = (0, 100);
type = Stem;
},
{
horizontal = 1;
place = (300, 100);
place = (300, 100);
type = Stem;
},
{
horizontal = 1;
place = (600, 100);
place = (600, 100);
type = Stem;
},
{
place = (200, 100);
place = (200, 100);
type = Stem;
},
{
place = (1100, 100);
place = (1100, 100);
type = Stem;
},
{
horizontal = 1;
place = (100, 200);
place = (100, 200);
type = Stem;
},
{
horizontal = 1;
place = (500, 100);
place = (500, 100);
type = Stem;
},
{
place = (300, 100);
place = (300, 100);
type = Stem;
}
);
layerId = "70DB4E10-A1B7-44B2-BFCF-9F046C279AC2";
shapes = (
{
alignment = -1;
pos = (0,400);
ref = pixel;
scale = (0.5,1);
},
{
alignment = -1;
pos = (0,300);
ref = pixel;
scale = (0.5,1);
},
{
alignment = -1;
pos = (0,200);
ref = pixel;
scale = (0.5,1);
},
{
alignment = -1;
pos = (0,100);
ref = pixel;
scale = (0.5,1);
},
{
alignment = -1;
pos = (50,0);
ref = pixel;
scale = (0.5,1);
},
{
alignment = -1;
pos = (100,-100);
ref = pixel;
scale = (0.5,1);
},
{
alignment = -1;
pos = (150,0);
ref = pixel;
scale = (0.5,1);
},
{
alignment = -1;
pos = (200,-200);
ref = pixel;
scale = (0.5,1);
},
{
alignment = -1;
pos = (250,0);
ref = pixel;
scale = (0.5,1);
},
{
alignment = -1;
pos = (300,-100);
ref = pixel;
scale = (0.5,1);
},
{
alignment = -1;
pos = (350,0);
ref = pixel;
scale = (0.5,1);
},
{
alignment = -1;
pos = (400,0);
ref = pixel;
scale = (0.5,1);
},
{
alignment = -1;
pos = (450,100);
ref = pixel;
scale = (0.5,1);
},
{
alignment = -1;
pos = (450,200);
ref = pixel;
scale = (0.5,1);
},
{
alignment = -1;
pos = (400,300);
ref = pixel;
scale = (0.5,1);
},
{
alignment = -1;
pos = (350,200);
ref = pixel;
scale = (0.5,1);
},
{
alignment = -1;
pos = (300,300);
ref = pixel;
scale = (0.5,1);
},
{
alignment = -1;
pos = (250,400);
ref = pixel;
scale = (0.5,1);
},
{
alignment = -1;
pos = (200,300);
ref = pixel;
scale = (0.5,1);
},
{
alignment = -1;
pos = (150,400);
ref = pixel;
scale = (0.5,1);
},
{
alignment = -1;
pos = (100,300);
ref = pixel;
scale = (0.5,1);
},
{
alignment = -1;
pos = (50,300);
ref = pixel;
scale = (0.5,1);
},
{
alignment = -1;
pos = (50,500);
ref = pixel;
scale = (0.5,1);
},
{
alignment = -1;
pos = (100,600);
ref = pixel;
scale = (0.5,1);
},
{
alignment = -1;
pos = (150,600);
ref = pixel;
scale = (0.5,1);
},
{
alignment = -1;
pos = (200,800);
ref = pixel;
scale = (0.5,1);
},
{
alignment = -1;
pos = (250,600);
ref = pixel;
scale = (0.5,1);
},
{
alignment = -1;
pos = (300,600);
ref = pixel;
scale = (0.5,1);
},
{
alignment = -1;
pos = (350,700);
ref = pixel;
scale = (0.5,1);
},
{
alignment = -1;
pos = (400,600);
ref = pixel;
scale = (0.5,1);
}
);
width = 500;
}
);
note = six;
unicode = 54;
},
{
glyphname = seven;
lastChange = "2024-04-05 14:51:27 +0000";
layers = (
{
background = {
shapes = (
{
closed = 1;
nodes = (
(-250,600,l),
(650,600,l),
(650,500,l),
(750,500,l),
(750,700,l),
(-250,700,l)
);
},
{
closed = 1;
nodes = (
(150,0,l),
(250,0,l),
(250,100,l),
(150,100,l)
);
},
{
closed = 1;
nodes = (
(250,100,l),
(350,100,l),
(350,200,l),
(250,200,l)
);
},
{
closed = 1;
nodes = (
(350,200,l),
(450,200,l),
(450,300,l),
(350,300,l)
);
},
{
closed = 1;
nodes = (
(450,300,l),
(550,300,l),
(550,400,l),
(450,400,l)
);
},
{
closed = 1;
nodes = (
(550,400,l),
(650,400,l),
(650,500,l),
(550,500,l)
);
}
);
};
hints = (
{
horizontal = 1;
place = (0, 100);
place = (0, 100);
type = Stem;
},
{
horizontal = 1;
place = (200, 100);
place = (200, 100);
type = Stem;
},
{
horizontal = 1;
place = (400, 100);
place = (400, 100);
type = Stem;
},
{
horizontal = 1;
place = (600, 100);
place = (600, 100);
type = Stem;
},
{
place = (600, 100);
place = (600, 100);
type = Stem;
},
{
place = (800, 100);
place = (800, 100);
type = Stem;
},
{
place = (1100, 100);
place = (1100, 100);
type = Stem;
},
{
horizontal = 1;
place = (100, 100);
place = (100, 100);
type = Stem;
},
{
place = (700, 100);
place = (700, 100);
type = Stem;
},
{
horizontal = 1;
place = (300, 100);
place = (300, 100);
type = Stem;
},
{
place = (900, 100);
place = (900, 100);
type = Stem;
},
{
place = (1000, 100);
place = (1000, 100);
type = Stem;
}
);
layerId = "AEA028FA-8432-430F-9508-2B91B3DB731A";
shapes = (
{
alignment = -1;
pos = (0,600);
ref = pixel;
scale = (0.5,1);
},
{
alignment = -1;
pos = (50,600);
ref = pixel;
scale = (0.5,1);
},
{
alignment = -1;
pos = (100,600);
ref = pixel;
scale = (0.5,1);
},
{
alignment = -1;
pos = (150,600);
ref = pixel;
scale = (0.5,1);
},
{
alignment = -1;
pos = (200,600);
ref = pixel;
scale = (0.5,1);
},
{
alignment = -1;
pos = (250,600);
ref = pixel;
scale = (0.5,1);
},
{
alignment = -1;
pos = (300,600);
ref = pixel;
scale = (0.5,1);
},
{
alignment = -1;
pos = (350,600);
ref = pixel;
scale = (0.5,1);
},
{
alignment = -1;
pos = (400,600);
ref = pixel;
scale = (0.5,1);
},
{
alignment = -1;
pos = (450,600);
ref = pixel;
scale = (0.5,1);
},
{
alignment = -1;
pos = (450,500);
ref = pixel;
scale = (0.5,1);
},
{
alignment = -1;
pos = (400,400);
ref = pixel;
scale = (0.5,1);
},
{
alignment = -1;
pos = (350,300);
ref = pixel;
scale = (0.5,1);
},
{
alignment = -1;
pos = (300,200);
ref = pixel;
scale = (0.5,1);
},
{
alignment = -1;
pos = (250,100);
ref = pixel;
scale = (0.5,1);
},
{
alignment = -1;
pos = (200,0);
ref = pixel;
scale = (0.5,1);
}
);
width = 500;
},
{
background = {
shapes = (
{
closed = 1;
nodes = (
(-250,600,l),
(650,600,l),
(650,500,l),
(750,500,l),
(750,700,l),
(-250,700,l)
);
},
{
closed = 1;
nodes = (
(150,0,l),
(250,0,l),
(250,100,l),
(150,100,l)
);
},
{
closed = 1;
nodes = (
(250,100,l),
(350,100,l),
(350,200,l),
(250,200,l)
);
},
{
closed = 1;
nodes = (
(350,200,l),
(450,200,l),
(450,300,l),
(350,300,l)
);
},
{
closed = 1;
nodes = (
(450,300,l),
(550,300,l),
(550,400,l),
(450,400,l)
);
},
{
closed = 1;
nodes = (
(550,400,l),
(650,400,l),
(650,500,l),
(550,500,l)
);
}
);
};
hints = (
{
horizontal = 1;
place = (0, 100);
place = (0, 100);
type = Stem;
},
{
horizontal = 1;
place = (200, 100);
place = (200, 100);
type = Stem;
},
{
horizontal = 1;
place = (400, 100);
place = (400, 100);
type = Stem;
},
{
horizontal = 1;
place = (600, 100);
place = (600, 100);
type = Stem;
},
{
place = (600, 100);
place = (600, 100);
type = Stem;
},
{
place = (800, 100);
place = (800, 100);
type = Stem;
},
{
place = (1100, 100);
place = (1100, 100);
type = Stem;
},
{
horizontal = 1;
place = (100, 100);
place = (100, 100);
type = Stem;
},
{
place = (700, 100);
place = (700, 100);
type = Stem;
},
{
horizontal = 1;
place = (300, 100);
place = (300, 100);
type = Stem;
},
{
place = (900, 100);
place = (900, 100);
type = Stem;
},
{
place = (1000, 100);
place = (1000, 100);
type = Stem;
}
);
layerId = "70DB4E10-A1B7-44B2-BFCF-9F046C279AC2";
shapes = (
{
alignment = -1;
pos = (0,600);
ref = pixel;
scale = (0.5,1);
},
{
alignment = -1;
pos = (50,600);
ref = pixel;
scale = (0.5,1);
},
{
alignment = -1;
pos = (100,700);
ref = pixel;
scale = (0.5,1);
},
{
alignment = -1;
pos = (150,400);
ref = pixel;
scale = (0.5,1);
},
{
alignment = -1;
pos = (200,600);
ref = pixel;
scale = (0.5,1);
},
{
alignment = -1;
pos = (250,800);
ref = pixel;
scale = (0.5,1);
},
{
alignment = -1;
pos = (300,700);
ref = pixel;
scale = (0.5,1);
},
{
alignment = -1;
pos = (350,600);
ref = pixel;
scale = (0.5,1);
},
{
alignment = -1;
pos = (400,800);
ref = pixel;
scale = (0.5,1);
},
{
alignment = -1;
pos = (450,600);
ref = pixel;
scale = (0.5,1);
},
{
alignment = -1;
pos = (450,500);
ref = pixel;
scale = (0.5,1);
},
{
alignment = -1;
pos = (400,400);
ref = pixel;
scale = (0.5,1);
},
{
alignment = -1;
pos = (350,200);
ref = pixel;
scale = (0.5,1);
},
{
alignment = -1;
pos = (300,300);
ref = pixel;
scale = (0.5,1);
},
{
alignment = -1;
pos = (250,0);
ref = pixel;
scale = (0.5,1);
},
{
alignment = -1;
pos = (200,-200);
ref = pixel;
scale = (0.5,1);
}
);
width = 500;
}
);
note = seven;
unicode = 55;
},
{
glyphname = eight;
lastChange = "2024-04-05 14:51:52 +0000";
layers = (
{
background = {
shapes = (
{
closed = 1;
nodes = (
(-150,0,l),
(650,0,l),
(650,100,l),
(-150,100,l)
);
},
{
closed = 1;
nodes = (
(-250,100,l),
(-150,100,l),
(-150,300,l),
(-250,300,l)
);
},
{
closed = 1;
nodes = (
(-250,400,l),
(-150,400,l),
(-150,600,l),
(-250,600,l)
);
},
{
closed = 1;
nodes = (
(-150,300,l),
(650,300,l),
(650,400,l),
(-150,400,l)
);
},
{
closed = 1;
nodes = (
(-150,600,l),
(650,600,l),
(650,700,l),
(-150,700,l)
);
},
{
closed = 1;
nodes = (
(650,100,l),
(750,100,l),
(750,300,l),
(650,300,l)
);
},
{
closed = 1;
nodes = (
(650,400,l),
(750,400,l),
(750,600,l),
(650,600,l)
);
}
);
};
hints = (
{
horizontal = 1;
place = (0, 100);
place = (0, 100);
type = Stem;
},
{
horizontal = 1;
place = (300, 100);
place = (300, 100);
type = Stem;
},
{
horizontal = 1;
place = (600, 100);
place = (600, 100);
type = Stem;
},
{
place = (200, 100);
place = (200, 100);
type = Stem;
},
{
place = (1100, 100);
place = (1100, 100);
type = Stem;
},
{
horizontal = 1;
place = (100, 200);
place = (100, 200);
type = Stem;
},
{
horizontal = 1;
place = (400, 200);
place = (400, 200);
type = Stem;
}
);
layerId = "AEA028FA-8432-430F-9508-2B91B3DB731A";
shapes = (
{
alignment = -1;
pos = (400,600);
ref = pixel;
scale = (0.5,1);
},
{
alignment = -1;
pos = (350,600);
ref = pixel;
scale = (0.5,1);
},
{
alignment = -1;
pos = (300,600);
ref = pixel;
scale = (0.5,1);
},
{
alignment = -1;
pos = (250,600);
ref = pixel;
scale = (0.5,1);
},
{
alignment = -1;
pos = (200,600);
ref = pixel;
scale = (0.5,1);
},
{
alignment = -1;
pos = (150,600);
ref = pixel;
scale = (0.5,1);
},
{
alignment = -1;
pos = (100,600);
ref = pixel;
scale = (0.5,1);
},
{
alignment = -1;
pos = (50,600);
ref = pixel;
scale = (0.5,1);
},
{
alignment = -1;
pos = (0,500);
ref = pixel;
scale = (0.5,1);
},
{
alignment = -1;
pos = (0,400);
ref = pixel;
scale = (0.5,1);
},
{
alignment = -1;
pos = (50,300);
ref = pixel;
scale = (0.5,1);
},
{
alignment = -1;
pos = (100,300);
ref = pixel;
scale = (0.5,1);
},
{
alignment = -1;
pos = (150,300);
ref = pixel;
scale = (0.5,1);
},
{
alignment = -1;
pos = (200,300);
ref = pixel;
scale = (0.5,1);
},
{
alignment = -1;
pos = (250,300);
ref = pixel;
scale = (0.5,1);
},
{
alignment = -1;
pos = (300,300);
ref = pixel;
scale = (0.5,1);
},
{
alignment = -1;
pos = (350,300);
ref = pixel;
scale = (0.5,1);
},
{
alignment = -1;
pos = (400,300);
ref = pixel;
scale = (0.5,1);
},
{
alignment = -1;
pos = (450,400);
ref = pixel;
scale = (0.5,1);
},
{
alignment = -1;
pos = (450,500);
ref = pixel;
scale = (0.5,1);
},
{
alignment = -1;
pos = (450,100);
ref = pixel;
scale = (0.5,1);
},
{
alignment = -1;
pos = (450,200);
ref = pixel;
scale = (0.5,1);
},
{
alignment = -1;
pos = (400,0);
ref = pixel;
scale = (0.5,1);
},
{
alignment = -1;
pos = (350,0);
ref = pixel;
scale = (0.5,1);
},
{
alignment = -1;
pos = (300,0);
ref = pixel;
scale = (0.5,1);
},
{
alignment = -1;
pos = (250,0);
ref = pixel;
scale = (0.5,1);
},
{
alignment = -1;
pos = (200,0);
ref = pixel;
scale = (0.5,1);
},
{
alignment = -1;
pos = (150,0);
ref = pixel;
scale = (0.5,1);
},
{
alignment = -1;
pos = (100,0);
ref = pixel;
scale = (0.5,1);
},
{
alignment = -1;
pos = (50,0);
ref = pixel;
scale = (0.5,1);
},
{
alignment = -1;
pos = (0,100);
ref = pixel;
scale = (0.5,1);
},
{
alignment = -1;
pos = (0,200);
ref = pixel;
scale = (0.5,1);
}
);
width = 500;
},
{
background = {
shapes = (
{
closed = 1;
nodes = (
(-150,0,l),
(650,0,l),
(650,100,l),
(-150,100,l)
);
},
{
closed = 1;
nodes = (
(-250,100,l),
(-150,100,l),
(-150,300,l),
(-250,300,l)
);
},
{
closed = 1;
nodes = (
(-250,400,l),
(-150,400,l),
(-150,600,l),
(-250,600,l)
);
},
{
closed = 1;
nodes = (
(-150,300,l),
(650,300,l),
(650,400,l),
(-150,400,l)
);
},
{
closed = 1;
nodes = (
(-150,600,l),
(650,600,l),
(650,700,l),
(-150,700,l)
);
},
{
closed = 1;
nodes = (
(650,100,l),
(750,100,l),
(750,300,l),
(650,300,l)
);
},
{
closed = 1;
nodes = (
(650,400,l),
(750,400,l),
(750,600,l),
(650,600,l)
);
}
);
};
hints = (
{
horizontal = 1;
place = (0, 100);
place = (0, 100);
type = Stem;
},
{
horizontal = 1;
place = (300, 100);
place = (300, 100);
type = Stem;
},
{
horizontal = 1;
place = (600, 100);
place = (600, 100);
type = Stem;
},
{
place = (200, 100);
place = (200, 100);
type = Stem;
},
{
place = (1100, 100);
place = (1100, 100);
type = Stem;
},
{
horizontal = 1;
place = (100, 200);
place = (100, 200);
type = Stem;
},
{
horizontal = 1;
place = (400, 200);
place = (400, 200);
type = Stem;
}
);
layerId = "70DB4E10-A1B7-44B2-BFCF-9F046C279AC2";
shapes = (
{
alignment = -1;
pos = (400,600);
ref = pixel;
scale = (0.5,1);
},
{
alignment = -1;
pos = (350,500);
ref = pixel;
scale = (0.5,1);
},
{
alignment = -1;
pos = (300,600);
ref = pixel;
scale = (0.5,1);
},
{
alignment = -1;
pos = (250,800);
ref = pixel;
scale = (0.5,1);
},
{
alignment = -1;
pos = (200,600);
ref = pixel;
scale = (0.5,1);
},
{
alignment = -1;
pos = (150,700);
ref = pixel;
scale = (0.5,1);
},
{
alignment = -1;
pos = (100,600);
ref = pixel;
scale = (0.5,1);
},
{
alignment = -1;
pos = (50,600);
ref = pixel;
scale = (0.5,1);
},
{
alignment = -1;
pos = (0,500);
ref = pixel;
scale = (0.5,1);
},
{
alignment = -1;
pos = (0,400);
ref = pixel;
scale = (0.5,1);
},
{
alignment = -1;
pos = (50,300);
ref = pixel;
scale = (0.5,1);
},
{
alignment = -1;
pos = (100,300);
ref = pixel;
scale = (0.5,1);
},
{
alignment = -1;
pos = (150,400);
ref = pixel;
scale = (0.5,1);
},
{
alignment = -1;
pos = (200,300);
ref = pixel;
scale = (0.5,1);
},
{
alignment = -1;
pos = (250,200);
ref = pixel;
scale = (0.5,1);
},
{
alignment = -1;
pos = (300,300);
ref = pixel;
scale = (0.5,1);
},
{
alignment = -1;
pos = (350,300);
ref = pixel;
scale = (0.5,1);
},
{
alignment = -1;
pos = (400,300);
ref = pixel;
scale = (0.5,1);
},
{
alignment = -1;
pos = (450,400);
ref = pixel;
scale = (0.5,1);
},
{
alignment = -1;
pos = (450,500);
ref = pixel;
scale = (0.5,1);
},
{
alignment = -1;
pos = (450,100);
ref = pixel;
scale = (0.5,1);
},
{
alignment = -1;
pos = (450,200);
ref = pixel;
scale = (0.5,1);
},
{
alignment = -1;
pos = (400,0);
ref = pixel;
scale = (0.5,1);
},
{
alignment = -1;
pos = (350,100);
ref = pixel;
scale = (0.5,1);
},
{
alignment = -1;
pos = (300,-100);
ref = pixel;
scale = (0.5,1);
},
{
alignment = -1;
pos = (250,0);
ref = pixel;
scale = (0.5,1);
},
{
alignment = -1;
pos = (200,100);
ref = pixel;
scale = (0.5,1);
},
{
alignment = -1;
pos = (150,0);
ref = pixel;
scale = (0.5,1);
},
{
alignment = -1;
pos = (100,-200);
ref = pixel;
scale = (0.5,1);
},
{
alignment = -1;
pos = (50,0);
ref = pixel;
scale = (0.5,1);
},
{
alignment = -1;
pos = (0,100);
ref = pixel;
scale = (0.5,1);
},
{
alignment = -1;
pos = (0,200);
ref = pixel;
scale = (0.5,1);
}
);
width = 500;
}
);
note = eight;
unicode = 56;
},
{
glyphname = nine;
lastChange = "2024-04-05 14:52:05 +0000";
layers = (
{
background = {
shapes = (
{
closed = 1;
nodes = (
(-150,600,l),
(650,600,l),
(650,700,l),
(-150,700,l)
);
},
{
closed = 1;
nodes = (
(-250,100,l),
(-150,100,l),
(-150,200,l),
(-250,200,l)
);
},
{
closed = 1;
nodes = (
(-250,400,l),
(-150,400,l),
(-150,600,l),
(-250,600,l)
);
},
{
closed = 1;
nodes = (
(-150,0,l),
(650,0,l),
(650,100,l),
(-150,100,l)
);
},
{
closed = 1;
nodes = (
(-150,300,l),
(650,300,l),
(650,100,l),
(750,100,l),
(750,600,l),
(650,600,l),
(650,400,l),
(-150,400,l)
);
}
);
};
hints = (
{
horizontal = 1;
place = (0, 100);
place = (0, 100);
type = Stem;
},
{
horizontal = 1;
place = (300, 100);
place = (300, 100);
type = Stem;
},
{
horizontal = 1;
place = (600, 100);
place = (600, 100);
type = Stem;
},
{
place = (200, 100);
place = (200, 100);
type = Stem;
},
{
place = (1100, 100);
place = (1100, 100);
type = Stem;
},
{
horizontal = 1;
place = (100, 100);
place = (100, 100);
type = Stem;
},
{
horizontal = 1;
place = (400, 200);
place = (400, 200);
type = Stem;
}
);
layerId = "AEA028FA-8432-430F-9508-2B91B3DB731A";
shapes = (
{
alignment = -1;
pos = (50,600);
ref = pixel;
scale = (0.5,1);
},
{
alignment = -1;
pos = (100,600);
ref = pixel;
scale = (0.5,1);
},
{
alignment = -1;
pos = (150,600);
ref = pixel;
scale = (0.5,1);
},
{
alignment = -1;
pos = (200,600);
ref = pixel;
scale = (0.5,1);
},
{
alignment = -1;
pos = (250,600);
ref = pixel;
scale = (0.5,1);
},
{
alignment = -1;
pos = (300,600);
ref = pixel;
scale = (0.5,1);
},
{
alignment = -1;
pos = (350,600);
ref = pixel;
scale = (0.5,1);
},
{
alignment = -1;
pos = (400,600);
ref = pixel;
scale = (0.5,1);
},
{
alignment = -1;
pos = (0,500);
ref = pixel;
scale = (0.5,1);
},
{
alignment = -1;
pos = (0,400);
ref = pixel;
scale = (0.5,1);
},
{
alignment = -1;
pos = (50,300);
ref = pixel;
scale = (0.5,1);
},
{
alignment = -1;
pos = (100,300);
ref = pixel;
scale = (0.5,1);
},
{
alignment = -1;
pos = (150,300);
ref = pixel;
scale = (0.5,1);
},
{
alignment = -1;
pos = (200,300);
ref = pixel;
scale = (0.5,1);
},
{
alignment = -1;
pos = (250,300);
ref = pixel;
scale = (0.5,1);
},
{
alignment = -1;
pos = (300,300);
ref = pixel;
scale = (0.5,1);
},
{
alignment = -1;
pos = (350,300);
ref = pixel;
scale = (0.5,1);
},
{
alignment = -1;
pos = (400,300);
ref = pixel;
scale = (0.5,1);
},
{
alignment = -1;
pos = (450,300);
ref = pixel;
scale = (0.5,1);
},
{
alignment = -1;
pos = (450,400);
ref = pixel;
scale = (0.5,1);
},
{
alignment = -1;
pos = (450,500);
ref = pixel;
scale = (0.5,1);
},
{
alignment = -1;
pos = (450,200);
ref = pixel;
scale = (0.5,1);
},
{
alignment = -1;
pos = (450,100);
ref = pixel;
scale = (0.5,1);
},
{
alignment = -1;
pos = (400,0);
ref = pixel;
scale = (0.5,1);
},
{
alignment = -1;
pos = (350,0);
ref = pixel;
scale = (0.5,1);
},
{
alignment = -1;
pos = (300,0);
ref = pixel;
scale = (0.5,1);
},
{
alignment = -1;
pos = (250,0);
ref = pixel;
scale = (0.5,1);
},
{
alignment = -1;
pos = (200,0);
ref = pixel;
scale = (0.5,1);
},
{
alignment = -1;
pos = (150,0);
ref = pixel;
scale = (0.5,1);
},
{
alignment = -1;
pos = (100,0);
ref = pixel;
scale = (0.5,1);
},
{
alignment = -1;
pos = (50,0);
ref = pixel;
scale = (0.5,1);
},
{
alignment = -1;
pos = (0,100);
ref = pixel;
scale = (0.5,1);
}
);
width = 500;
},
{
background = {
shapes = (
{
closed = 1;
nodes = (
(-150,600,l),
(650,600,l),
(650,700,l),
(-150,700,l)
);
},
{
closed = 1;
nodes = (
(-250,100,l),
(-150,100,l),
(-150,200,l),
(-250,200,l)
);
},
{
closed = 1;
nodes = (
(-250,400,l),
(-150,400,l),
(-150,600,l),
(-250,600,l)
);
},
{
closed = 1;
nodes = (
(-150,0,l),
(650,0,l),
(650,100,l),
(-150,100,l)
);
},
{
closed = 1;
nodes = (
(-150,300,l),
(650,300,l),
(650,100,l),
(750,100,l),
(750,600,l),
(650,600,l),
(650,400,l),
(-150,400,l)
);
}
);
};
hints = (
{
horizontal = 1;
place = (0, 100);
place = (0, 100);
type = Stem;
},
{
horizontal = 1;
place = (300, 100);
place = (300, 100);
type = Stem;
},
{
horizontal = 1;
place = (600, 100);
place = (600, 100);
type = Stem;
},
{
place = (200, 100);
place = (200, 100);
type = Stem;
},
{
place = (1100, 100);
place = (1100, 100);
type = Stem;
},
{
horizontal = 1;
place = (100, 100);
place = (100, 100);
type = Stem;
},
{
horizontal = 1;
place = (400, 200);
place = (400, 200);
type = Stem;
}
);
layerId = "70DB4E10-A1B7-44B2-BFCF-9F046C279AC2";
shapes = (
{
alignment = -1;
pos = (50,600);
ref = pixel;
scale = (0.5,1);
},
{
alignment = -1;
pos = (100,800);
ref = pixel;
scale = (0.5,1);
},
{
alignment = -1;
pos = (150,600);
ref = pixel;
scale = (0.5,1);
},
{
alignment = -1;
pos = (200,500);
ref = pixel;
scale = (0.5,1);
},
{
alignment = -1;
pos = (250,600);
ref = pixel;
scale = (0.5,1);
},
{
alignment = -1;
pos = (300,700);
ref = pixel;
scale = (0.5,1);
},
{
alignment = -1;
pos = (350,600);
ref = pixel;
scale = (0.5,1);
},
{
alignment = -1;
pos = (400,800);
ref = pixel;
scale = (0.5,1);
},
{
alignment = -1;
pos = (0,500);
ref = pixel;
scale = (0.5,1);
},
{
alignment = -1;
pos = (0,400);
ref = pixel;
scale = (0.5,1);
},
{
alignment = -1;
pos = (50,300);
ref = pixel;
scale = (0.5,1);
},
{
alignment = -1;
pos = (100,300);
ref = pixel;
scale = (0.5,1);
},
{
alignment = -1;
pos = (150,100);
ref = pixel;
scale = (0.5,1);
},
{
alignment = -1;
pos = (200,300);
ref = pixel;
scale = (0.5,1);
},
{
alignment = -1;
pos = (250,200);
ref = pixel;
scale = (0.5,1);
},
{
alignment = -1;
pos = (300,300);
ref = pixel;
scale = (0.5,1);
},
{
alignment = -1;
pos = (350,300);
ref = pixel;
scale = (0.5,1);
},
{
alignment = -1;
pos = (400,300);
ref = pixel;
scale = (0.5,1);
},
{
alignment = -1;
pos = (450,300);
ref = pixel;
scale = (0.5,1);
},
{
alignment = -1;
pos = (450,400);
ref = pixel;
scale = (0.5,1);
},
{
alignment = -1;
pos = (450,500);
ref = pixel;
scale = (0.5,1);
},
{
alignment = -1;
pos = (450,200);
ref = pixel;
scale = (0.5,1);
},
{
alignment = -1;
pos = (450,-100);
ref = pixel;
scale = (0.5,1);
},
{
alignment = -1;
pos = (400,0);
ref = pixel;
scale = (0.5,1);
},
{
alignment = -1;
pos = (350,-100);
ref = pixel;
scale = (0.5,1);
},
{
alignment = -1;
pos = (300,0);
ref = pixel;
scale = (0.5,1);
},
{
alignment = -1;
pos = (250,0);
ref = pixel;
scale = (0.5,1);
},
{
alignment = -1;
pos = (200,0);
ref = pixel;
scale = (0.5,1);
},
{
alignment = -1;
pos = (150,-200);
ref = pixel;
scale = (0.5,1);
},
{
alignment = -1;
pos = (100,0);
ref = pixel;
scale = (0.5,1);
},
{
alignment = -1;
pos = (50,0);
ref = pixel;
scale = (0.5,1);
},
{
alignment = -1;
pos = (0,100);
ref = pixel;
scale = (0.5,1);
}
);
width = 500;
}
);
note = nine;
unicode = 57;
},
{
export = 0;
glyphname = pixel;
lastChange = "2024-03-18 00:34:04 +0000";
layers = (
{
layerId = "AEA028FA-8432-430F-9508-2B91B3DB731A";
shapes = (
{
closed = 1;
nodes = (
(100,0,l),
(100,100,l),
(0,100,l),
(0,0,l)
);
}
